{"glyphs":{"0":{"ha":780,"x_min":82,"x_max":684,"o":"m 384 -14 q 161 91 241 -14 q 82 389 82 197 l 82 598 q 161 896 82 791 q 382 1002 239 1002 q 605 896 526 1002 q 684 598 684 791 l 684 389 q 605 91 684 196 q 384 -14 527 -14 m 384 22 q 579 121 512 22 q 647 391 647 219 l 647 598 q 579 868 647 770 q 382 965 511 965 q 186 868 254 965 q 119 598 119 770 l 119 391 q 187 121 119 220 q 384 22 255 22 z "},"1":{"ha":557,"x_min":43,"x_max":507,"o":"m 73 0 l 73 37 l 272 37 l 272 954 l 43 902 l 43 936 l 309 993 l 309 37 l 507 37 l 507 0 l 73 0 z "},"2":{"ha":749,"x_min":50,"x_max":663,"o":"m 72 0 l 72 37 l 395 410 q 496 538 457 481 q 554 644 535 595 q 572 736 572 692 q 513 905 572 844 q 338 965 453 965 q 151 894 217 965 q 84 709 84 823 l 53 709 l 52 713 q 84 859 50 793 q 185 963 119 924 q 338 1002 250 1002 q 481 970 420 1002 q 576 880 543 939 q 610 736 610 821 q 586 626 610 682 q 516 508 562 571 q 406 370 471 446 l 123 40 l 125 37 l 626 37 l 626 199 l 663 199 l 663 0 l 72 0 z "},"3":{"ha":745,"x_min":49,"x_max":660,"o":"m 366 -14 q 209 19 282 -14 q 93 116 136 52 q 51 271 49 180 l 52 275 l 83 275 q 120 144 83 201 q 221 55 157 87 q 366 22 285 22 q 555 85 488 22 q 623 259 623 148 q 546 430 623 374 q 335 485 468 485 l 260 485 l 260 523 l 335 523 q 477 551 418 523 q 569 628 537 580 q 602 736 602 676 q 540 901 602 836 q 359 965 479 965 q 229 936 286 965 q 138 853 171 907 q 104 729 104 800 l 73 729 l 72 733 q 107 873 70 813 q 211 968 145 934 q 359 1002 277 1002 q 563 929 487 1002 q 638 734 638 857 q 589 594 638 656 q 456 505 540 532 q 606 419 553 481 q 660 262 660 357 q 623 114 660 176 q 519 19 585 52 q 366 -14 452 -14 z "},"4":{"ha":793,"x_min":43,"x_max":729,"o":"m 411 0 l 411 37 l 522 37 l 522 269 l 43 269 l 43 290 l 514 987 l 558 987 l 558 306 l 729 306 l 729 269 l 558 269 l 558 37 l 669 37 l 669 0 l 411 0 m 100 306 l 522 306 l 522 936 l 517 937 l 465 850 l 100 306 z "},"5":{"ha":720,"x_min":64,"x_max":633,"o":"m 341 -14 q 198 16 261 -14 q 99 107 135 47 q 66 256 64 167 l 67 260 l 99 260 q 164 83 99 143 q 341 22 229 22 q 534 95 473 22 q 595 313 595 168 q 534 510 595 438 q 362 582 473 582 q 192 546 254 582 q 102 438 130 509 l 75 449 l 127 987 l 602 987 l 602 858 l 566 858 l 566 951 l 161 951 l 119 532 q 179 580 148 561 q 253 609 210 599 q 361 621 296 619 q 502 586 440 623 q 598 479 563 549 q 633 315 633 409 q 601 140 633 214 q 505 26 570 66 q 341 -14 441 -14 z "},"6":{"ha":751,"x_min":82,"x_max":669,"o":"m 376 -14 q 223 32 289 -14 q 119 164 157 77 q 82 374 82 251 l 82 597 q 122 819 82 729 q 231 956 161 909 q 389 1002 300 1002 q 490 990 441 1002 q 583 954 539 979 l 568 920 q 485 955 524 945 q 389 965 447 965 q 195 874 271 965 q 119 597 119 783 l 119 479 q 221 601 151 553 q 383 649 291 649 q 536 607 472 649 q 634 490 600 566 q 669 312 669 414 q 631 145 669 218 q 527 28 593 71 q 376 -14 461 -14 m 376 22 q 509 61 452 22 q 600 166 567 100 q 632 312 632 233 q 567 531 632 449 q 378 612 502 612 q 250 580 309 612 q 155 494 191 547 q 119 376 119 440 l 119 374 q 189 114 119 206 q 376 22 260 22 z "},"7":{"ha":749,"x_min":52,"x_max":682,"o":"m 261 0 l 265 62 q 334 397 285 240 q 459 692 382 554 q 638 951 536 830 l 88 951 l 88 789 l 52 789 l 52 987 l 682 987 l 682 951 q 546 770 609 866 q 434 564 484 673 q 351 329 385 454 q 302 62 317 204 l 298 0 l 261 0 z "},"8":{"ha":762,"x_min":62,"x_max":692,"o":"m 378 -14 q 214 17 285 -14 q 102 110 142 49 q 62 257 62 170 q 120 414 62 347 q 272 505 177 480 q 140 592 189 530 q 90 736 90 653 q 127 879 90 820 q 228 970 163 939 q 376 1002 293 1002 q 524 970 459 1002 q 626 879 589 938 q 663 736 663 819 q 613 592 663 654 q 480 505 562 530 q 633 413 574 479 q 692 257 692 347 q 651 110 692 170 q 540 17 611 49 q 378 -14 469 -14 m 378 22 q 520 50 457 22 q 618 130 583 78 q 654 254 654 181 q 618 376 654 323 q 518 458 581 429 q 376 487 455 487 q 234 458 296 487 q 135 376 171 429 q 99 254 99 323 q 177 83 99 144 q 378 22 255 22 m 378 524 q 505 550 449 524 q 594 626 562 577 q 627 740 627 674 q 593 855 627 804 q 503 936 560 906 q 376 965 446 965 q 197 904 267 965 q 127 740 127 842 q 197 582 127 641 q 378 524 268 524 z "},"9":{"ha":763,"x_min":57,"x_max":652,"o":"m 340 -14 q 234 -3 287 -14 q 127 28 181 7 l 138 67 q 235 33 189 44 q 340 22 281 22 q 539 116 467 22 q 610 392 610 210 l 610 475 q 503 359 572 401 q 347 317 433 317 q 197 362 262 317 q 94 483 132 407 q 57 650 57 558 q 95 827 57 747 q 200 954 133 907 q 353 1002 267 1002 q 510 961 443 1002 q 615 837 578 920 q 652 626 652 753 l 652 393 q 614 168 652 258 q 506 31 576 77 q 340 -14 436 -14 m 347 353 q 515 411 448 353 q 610 550 583 469 l 610 625 q 541 882 610 799 q 355 965 471 965 q 222 921 279 965 q 132 805 164 877 q 99 650 99 733 q 130 502 99 569 q 216 394 161 435 q 347 353 272 353 z "},"A":{"ha":998,"x_min":37,"x_max":939,"o":"m 37 0 l 37 37 l 110 37 l 465 987 l 510 987 l 866 37 l 939 37 l 939 0 l 729 0 l 729 37 l 826 37 l 729 295 l 246 295 l 150 37 l 247 37 l 247 0 l 37 0 m 260 332 l 715 332 l 509 888 l 490 943 l 486 943 l 467 888 l 260 332 z "},"Á":{"ha":998,"x_min":37,"x_max":939,"o":"m 37 0 l 37 37 l 110 37 l 465 987 l 510 987 l 866 37 l 939 37 l 939 0 l 729 0 l 729 37 l 826 37 l 729 295 l 246 295 l 150 37 l 247 37 l 247 0 l 37 0 m 260 332 l 715 332 l 509 888 l 490 943 l 486 943 l 467 888 l 260 332 m 447 1080 l 569 1236 l 612 1236 l 614 1233 l 479 1076 l 448 1076 l 447 1080 z "},"Ă":{"ha":998,"x_min":37,"x_max":939,"o":"m 37 0 l 37 37 l 110 37 l 465 987 l 510 987 l 866 37 l 939 37 l 939 0 l 729 0 l 729 37 l 826 37 l 729 295 l 246 295 l 150 37 l 247 37 l 247 0 l 37 0 m 260 332 l 715 332 l 509 888 l 490 943 l 486 943 l 467 888 l 260 332 m 488 1072 q 351 1117 401 1072 q 302 1232 301 1162 l 303 1236 l 338 1236 q 374 1144 338 1179 q 488 1109 410 1109 q 600 1145 563 1109 q 637 1236 637 1181 l 673 1236 l 674 1232 q 625 1117 674 1162 q 488 1072 575 1072 z "},"Ắ":{"ha":998,"x_min":37,"x_max":939,"o":"m 37 0 l 37 37 l 110 37 l 465 987 l 510 987 l 866 37 l 939 37 l 939 0 l 729 0 l 729 37 l 826 37 l 729 295 l 246 295 l 150 37 l 247 37 l 247 0 l 37 0 m 260 332 l 715 332 l 509 888 l 490 943 l 486 943 l 467 888 l 260 332 m 488 1035 q 351 1076 401 1035 q 302 1182 301 1117 l 303 1186 l 338 1186 q 374 1103 338 1135 q 488 1071 410 1071 q 600 1103 563 1071 q 637 1186 637 1136 l 673 1186 l 674 1182 q 625 1076 674 1116 q 488 1035 575 1035 m 454 1197 l 548 1342 l 591 1342 l 593 1339 l 486 1194 l 455 1194 l 454 1197 z "},"Ặ":{"ha":998,"x_min":37,"x_max":939,"o":"m 37 0 l 37 37 l 110 37 l 465 987 l 510 987 l 866 37 l 939 37 l 939 0 l 729 0 l 729 37 l 826 37 l 729 295 l 246 295 l 150 37 l 247 37 l 247 0 l 37 0 m 260 332 l 715 332 l 509 888 l 490 943 l 486 943 l 467 888 l 260 332 m 488 1072 q 351 1117 401 1072 q 302 1232 301 1162 l 303 1236 l 338 1236 q 374 1144 338 1179 q 488 1109 410 1109 q 600 1145 563 1109 q 637 1236 637 1181 l 673 1236 l 674 1232 q 625 1117 674 1162 q 488 1072 575 1072 m 475 -249 l 475 -154 l 524 -154 l 524 -249 l 475 -249 z "},"Ằ":{"ha":998,"x_min":37,"x_max":939,"o":"m 37 0 l 37 37 l 110 37 l 465 987 l 510 987 l 866 37 l 939 37 l 939 0 l 729 0 l 729 37 l 826 37 l 729 295 l 246 295 l 150 37 l 247 37 l 247 0 l 37 0 m 260 332 l 715 332 l 509 888 l 490 943 l 486 943 l 467 888 l 260 332 m 487 1035 q 351 1076 400 1035 q 301 1182 301 1116 l 302 1186 l 338 1186 q 375 1103 338 1136 q 487 1071 413 1071 q 601 1103 565 1071 q 637 1186 637 1135 l 672 1186 l 673 1182 q 625 1076 675 1117 q 487 1035 574 1035 m 522 1197 l 520 1194 l 490 1194 l 382 1339 l 384 1342 l 427 1342 l 522 1197 z "},"Ẳ":{"ha":998,"x_min":37,"x_max":939,"o":"m 37 0 l 37 37 l 110 37 l 465 987 l 510 987 l 866 37 l 939 37 l 939 0 l 729 0 l 729 37 l 826 37 l 729 295 l 246 295 l 150 37 l 247 37 l 247 0 l 37 0 m 260 332 l 715 332 l 509 888 l 490 943 l 486 943 l 467 888 l 260 332 m 488 1035 q 351 1076 401 1035 q 302 1182 301 1117 l 303 1186 l 338 1186 q 374 1103 338 1135 q 488 1071 410 1071 q 600 1103 563 1071 q 637 1186 637 1136 l 673 1186 l 674 1182 q 625 1076 674 1116 q 488 1035 575 1035 m 454 1188 l 454 1252 q 538 1269 513 1256 q 564 1306 564 1281 q 530 1352 564 1338 q 429 1366 495 1366 l 434 1399 q 561 1374 519 1399 q 602 1306 602 1349 q 571 1245 602 1266 q 487 1221 539 1225 l 487 1188 l 454 1188 z "},"Ẵ":{"ha":998,"x_min":37,"x_max":939,"o":"m 37 0 l 37 37 l 110 37 l 465 987 l 510 987 l 866 37 l 939 37 l 939 0 l 729 0 l 729 37 l 826 37 l 729 295 l 246 295 l 150 37 l 247 37 l 247 0 l 37 0 m 260 332 l 715 332 l 509 888 l 490 943 l 486 943 l 467 888 l 260 332 m 488 1035 q 351 1076 401 1035 q 302 1182 301 1117 l 303 1186 l 338 1186 q 374 1103 338 1135 q 488 1071 410 1071 q 600 1103 563 1071 q 637 1186 637 1136 l 673 1186 l 674 1182 q 625 1076 674 1116 q 488 1035 575 1035 m 338 1250 l 304 1251 q 318 1310 304 1284 q 354 1349 332 1335 q 404 1363 376 1363 q 469 1344 437 1363 q 531 1307 501 1326 q 586 1288 560 1288 q 630 1309 610 1288 q 650 1367 650 1330 l 684 1367 q 672 1307 685 1333 q 636 1266 659 1281 q 587 1252 614 1252 q 522 1271 554 1252 q 460 1309 490 1290 q 403 1328 431 1328 q 358 1308 378 1328 q 338 1250 338 1288 z "},"Â":{"ha":998,"x_min":37,"x_max":939,"o":"m 37 0 l 37 37 l 110 37 l 465 987 l 510 987 l 866 37 l 939 37 l 939 0 l 729 0 l 729 37 l 826 37 l 729 295 l 246 295 l 150 37 l 247 37 l 247 0 l 37 0 m 260 332 l 715 332 l 509 888 l 490 943 l 486 943 l 467 888 l 260 332 m 317 1085 l 317 1097 l 465 1236 l 509 1236 l 659 1094 l 659 1085 l 618 1085 l 486 1211 l 357 1085 l 317 1085 z "},"Ấ":{"ha":998,"x_min":37,"x_max":939,"o":"m 37 0 l 37 37 l 110 37 l 465 987 l 510 987 l 866 37 l 939 37 l 939 0 l 729 0 l 729 37 l 826 37 l 729 295 l 246 295 l 150 37 l 247 37 l 247 0 l 37 0 m 260 332 l 715 332 l 509 888 l 490 943 l 486 943 l 467 888 l 260 332 m 315 1053 l 315 1064 l 466 1190 l 510 1190 l 663 1061 l 663 1053 l 619 1053 l 488 1163 l 358 1053 l 315 1053 m 584 1197 l 678 1342 l 722 1342 l 723 1339 l 616 1194 l 585 1194 l 584 1197 z "},"Ậ":{"ha":998,"x_min":37,"x_max":939,"o":"m 37 0 l 37 37 l 110 37 l 465 987 l 510 987 l 866 37 l 939 37 l 939 0 l 729 0 l 729 37 l 826 37 l 729 295 l 246 295 l 150 37 l 247 37 l 247 0 l 37 0 m 260 332 l 715 332 l 509 888 l 490 943 l 486 943 l 467 888 l 260 332 m 317 1085 l 317 1097 l 465 1236 l 509 1236 l 659 1094 l 659 1085 l 618 1085 l 486 1211 l 357 1085 l 317 1085 m 475 -249 l 475 -154 l 524 -154 l 524 -249 l 475 -249 z "},"Ầ":{"ha":998,"x_min":37,"x_max":939,"o":"m 37 0 l 37 37 l 110 37 l 465 987 l 510 987 l 866 37 l 939 37 l 939 0 l 729 0 l 729 37 l 826 37 l 729 295 l 246 295 l 150 37 l 247 37 l 247 0 l 37 0 m 260 332 l 715 332 l 509 888 l 490 943 l 486 943 l 467 888 l 260 332 m 660 1053 l 617 1053 l 488 1163 l 356 1053 l 313 1053 l 313 1061 l 465 1190 l 509 1190 l 660 1064 l 660 1053 m 391 1197 l 390 1194 l 359 1194 l 252 1339 l 254 1342 l 297 1342 l 391 1197 z "},"Ẩ":{"ha":998,"x_min":37,"x_max":939,"o":"m 37 0 l 37 37 l 110 37 l 465 987 l 510 987 l 866 37 l 939 37 l 939 0 l 729 0 l 729 37 l 826 37 l 729 295 l 246 295 l 150 37 l 247 37 l 247 0 l 37 0 m 260 332 l 715 332 l 509 888 l 490 943 l 486 943 l 467 888 l 260 332 m 315 1053 l 315 1064 l 466 1190 l 510 1190 l 663 1061 l 663 1053 l 619 1053 l 488 1163 l 358 1053 l 315 1053 m 613 1156 l 613 1219 q 697 1236 671 1223 q 723 1274 723 1249 q 688 1319 723 1305 q 588 1333 654 1333 l 593 1367 q 720 1341 678 1367 q 761 1274 761 1316 q 729 1213 761 1234 q 646 1189 698 1192 l 646 1156 l 613 1156 z "},"Ẫ":{"ha":998,"x_min":37,"x_max":939,"o":"m 37 0 l 37 37 l 110 37 l 465 987 l 510 987 l 866 37 l 939 37 l 939 0 l 729 0 l 729 37 l 826 37 l 729 295 l 246 295 l 150 37 l 247 37 l 247 0 l 37 0 m 260 332 l 715 332 l 509 888 l 490 943 l 486 943 l 467 888 l 260 332 m 349 1259 l 315 1259 q 329 1313 315 1290 q 364 1350 342 1337 q 413 1363 387 1363 q 472 1347 446 1363 q 522 1313 498 1330 q 571 1297 545 1297 q 614 1316 595 1297 q 634 1367 634 1335 l 667 1367 q 655 1312 669 1336 q 621 1274 642 1288 q 572 1261 599 1261 q 514 1277 540 1261 q 464 1311 488 1294 q 412 1328 439 1328 q 368 1310 387 1328 q 349 1259 349 1292 m 314 1053 l 314 1064 l 465 1190 l 509 1190 l 661 1061 l 661 1053 l 618 1053 l 486 1163 l 357 1053 l 314 1053 z "},"Ä":{"ha":998,"x_min":37,"x_max":939,"o":"m 37 0 l 37 37 l 110 37 l 465 987 l 510 987 l 866 37 l 939 37 l 939 0 l 729 0 l 729 37 l 826 37 l 729 295 l 246 295 l 150 37 l 247 37 l 247 0 l 37 0 m 260 332 l 715 332 l 509 888 l 490 943 l 486 943 l 467 888 l 260 332 m 571 1143 l 571 1236 l 620 1236 l 620 1143 l 571 1143 m 354 1143 l 354 1236 l 404 1236 l 404 1143 l 354 1143 z "},"Ạ":{"ha":998,"x_min":37,"x_max":939,"o":"m 37 0 l 37 37 l 110 37 l 465 987 l 510 987 l 866 37 l 939 37 l 939 0 l 729 0 l 729 37 l 826 37 l 729 295 l 246 295 l 150 37 l 247 37 l 247 0 l 37 0 m 260 332 l 715 332 l 509 888 l 490 943 l 486 943 l 467 888 l 260 332 m 475 -249 l 475 -154 l 524 -154 l 524 -249 l 475 -249 z "},"À":{"ha":998,"x_min":37,"x_max":939,"o":"m 37 0 l 37 37 l 110 37 l 465 987 l 510 987 l 866 37 l 939 37 l 939 0 l 729 0 l 729 37 l 826 37 l 729 295 l 246 295 l 150 37 l 247 37 l 247 0 l 37 0 m 260 332 l 715 332 l 509 888 l 490 943 l 486 943 l 467 888 l 260 332 m 528 1080 l 527 1076 l 496 1076 l 361 1233 l 363 1236 l 406 1236 l 528 1080 z "},"Ả":{"ha":998,"x_min":37,"x_max":939,"o":"m 37 0 l 37 37 l 110 37 l 465 987 l 510 987 l 866 37 l 939 37 l 939 0 l 729 0 l 729 37 l 826 37 l 729 295 l 246 295 l 150 37 l 247 37 l 247 0 l 37 0 m 260 332 l 715 332 l 509 888 l 490 943 l 486 943 l 467 888 l 260 332 m 433 1055 l 433 1122 q 523 1141 498 1127 q 548 1182 548 1155 q 506 1235 548 1219 q 401 1251 464 1251 l 406 1284 q 537 1257 489 1284 q 586 1182 586 1230 q 555 1118 586 1141 q 466 1091 524 1095 l 466 1055 l 433 1055 z "},"Ā":{"ha":998,"x_min":37,"x_max":939,"o":"m 37 0 l 37 37 l 110 37 l 465 987 l 510 987 l 866 37 l 939 37 l 939 0 l 729 0 l 729 37 l 826 37 l 729 295 l 246 295 l 150 37 l 247 37 l 247 0 l 37 0 m 260 332 l 715 332 l 509 888 l 490 943 l 486 943 l 467 888 l 260 332 m 275 1141 l 275 1177 l 700 1177 l 700 1141 l 275 1141 z "},"Ą":{"ha":998,"x_min":37,"x_max":981,"o":"m 37 0 l 37 37 l 110 37 l 465 987 l 510 987 l 866 37 l 939 37 l 939 0 l 729 0 l 729 37 l 826 37 l 729 295 l 246 295 l 150 37 l 247 37 l 247 0 l 37 0 m 260 332 l 715 332 l 509 888 l 490 943 l 486 943 l 467 888 l 260 332 m 898 -287 q 816 -256 848 -287 q 784 -170 784 -225 q 811 -83 784 -125 q 903 14 838 -41 l 939 0 q 849 -90 878 -54 q 821 -170 821 -126 q 836 -222 821 -195 q 898 -250 850 -250 q 936 -243 920 -250 q 970 -224 953 -236 l 981 -257 q 944 -278 964 -269 q 898 -287 924 -287 z "},"Å":{"ha":998,"x_min":37,"x_max":939,"o":"m 37 0 l 37 37 l 110 37 l 465 987 l 510 987 l 866 37 l 939 37 l 939 0 l 729 0 l 729 37 l 826 37 l 729 295 l 246 295 l 150 37 l 247 37 l 247 0 l 37 0 m 260 332 l 715 332 l 509 888 l 490 943 l 486 943 l 467 888 l 260 332 m 488 1000 q 405 1033 439 1000 q 372 1116 372 1066 q 405 1200 372 1166 q 488 1234 439 1234 q 570 1200 536 1234 q 604 1116 604 1166 q 570 1033 604 1066 q 488 1000 536 1000 m 488 1037 q 545 1059 522 1037 q 567 1116 567 1080 q 545 1174 567 1152 q 488 1197 522 1197 q 431 1174 453 1197 q 408 1116 408 1152 q 431 1059 408 1080 q 488 1037 453 1037 z "},"Ǻ":{"ha":998,"x_min":37,"x_max":939,"o":"m 37 0 l 37 37 l 110 37 l 465 987 l 510 987 l 866 37 l 939 37 l 939 0 l 729 0 l 729 37 l 826 37 l 729 295 l 246 295 l 150 37 l 247 37 l 247 0 l 37 0 m 260 332 l 715 332 l 509 888 l 490 943 l 486 943 l 467 888 l 260 332 m 488 952 q 410 983 442 952 q 378 1061 378 1014 q 410 1140 378 1107 q 488 1172 442 1172 q 565 1140 533 1172 q 597 1061 597 1107 q 565 983 597 1014 q 488 952 533 952 m 488 989 q 540 1009 519 989 q 560 1061 560 1029 q 540 1115 560 1094 q 488 1135 519 1135 q 436 1115 456 1135 q 415 1061 415 1094 q 436 1009 415 1029 q 488 989 456 989 m 456 1213 l 550 1358 l 593 1358 l 595 1354 l 488 1209 l 457 1209 l 456 1213 z "},"Ḁ":{"ha":998,"x_min":37,"x_max":939,"o":"m 37 0 l 37 37 l 110 37 l 465 987 l 510 987 l 866 37 l 939 37 l 939 0 l 729 0 l 729 37 l 826 37 l 729 295 l 246 295 l 150 37 l 247 37 l 247 0 l 37 0 m 260 332 l 715 332 l 509 888 l 490 943 l 486 943 l 467 888 l 260 332 m 499 -334 q 417 -301 450 -334 q 383 -219 383 -269 q 417 -135 383 -169 q 499 -101 450 -101 q 581 -135 547 -101 q 615 -219 615 -169 q 581 -301 615 -269 q 499 -334 547 -334 m 499 -298 q 556 -276 534 -298 q 578 -219 578 -254 q 556 -160 578 -183 q 499 -138 534 -138 q 442 -160 465 -138 q 420 -219 420 -183 q 442 -276 420 -254 q 499 -298 465 -298 z "},"Ã":{"ha":998,"x_min":37,"x_max":939,"o":"m 37 0 l 37 37 l 110 37 l 465 987 l 510 987 l 866 37 l 939 37 l 939 0 l 729 0 l 729 37 l 826 37 l 729 295 l 246 295 l 150 37 l 247 37 l 247 0 l 37 0 m 260 332 l 715 332 l 509 888 l 490 943 l 486 943 l 467 888 l 260 332 m 307 1109 l 271 1109 q 286 1174 271 1146 q 327 1217 301 1201 q 382 1232 352 1232 q 459 1211 422 1232 q 530 1169 496 1190 q 593 1147 564 1147 q 645 1171 621 1147 q 668 1236 668 1194 l 704 1236 q 689 1171 704 1200 q 650 1127 674 1143 q 595 1111 625 1111 q 520 1132 557 1111 q 448 1175 483 1154 q 382 1196 414 1196 q 330 1174 353 1196 q 307 1109 307 1152 z "},"Æ":{"ha":1374,"x_min":35,"x_max":1259,"o":"m 35 0 l 35 37 l 115 37 l 691 987 l 1217 987 l 1217 789 l 1181 789 l 1181 951 l 745 951 l 763 533 l 1162 533 l 1162 496 l 764 496 l 783 37 l 1222 37 l 1222 199 l 1259 199 l 1259 0 l 638 0 l 638 37 l 747 37 l 736 288 l 311 288 l 159 37 l 248 37 l 248 0 l 35 0 m 332 324 l 735 324 l 709 951 l 705 951 l 667 880 l 332 324 z "},"Ǽ":{"ha":1374,"x_min":35,"x_max":1259,"o":"m 35 0 l 35 37 l 115 37 l 691 987 l 1217 987 l 1217 789 l 1181 789 l 1181 951 l 745 951 l 763 533 l 1162 533 l 1162 496 l 764 496 l 783 37 l 1222 37 l 1222 199 l 1259 199 l 1259 0 l 638 0 l 638 37 l 747 37 l 736 288 l 311 288 l 159 37 l 248 37 l 248 0 l 35 0 m 332 324 l 735 324 l 709 951 l 705 951 l 667 880 l 332 324 m 703 1080 l 825 1236 l 869 1236 l 870 1233 l 735 1076 l 705 1076 l 703 1080 z "},"B":{"ha":846,"x_min":48,"x_max":786,"o":"m 48 0 l 48 37 l 159 37 l 159 951 l 48 951 l 48 987 l 159 987 l 418 987 q 656 924 572 987 q 741 734 741 861 q 696 586 741 646 q 568 511 650 526 q 679 468 629 503 q 757 383 728 434 q 786 272 786 332 q 702 71 786 142 q 481 0 618 0 l 48 0 m 195 37 l 481 37 q 677 98 606 37 q 749 271 749 160 q 719 380 749 331 q 629 458 688 429 q 488 488 570 488 l 195 488 l 195 37 m 195 524 l 432 524 q 635 577 567 524 q 704 737 704 629 q 632 897 704 843 q 418 951 559 951 l 195 951 l 195 524 z "},"C":{"ha":914,"x_min":88,"x_max":835,"o":"m 538 -14 q 294 49 395 -14 q 141 225 193 113 q 88 488 88 338 l 88 500 q 142 762 88 649 q 294 938 197 875 q 520 1002 391 1002 q 696 975 627 1002 q 825 895 764 947 l 825 720 l 787 720 l 787 879 q 714 926 751 907 q 631 955 677 945 q 520 965 585 965 q 314 907 404 965 q 175 744 225 848 q 125 501 125 640 l 125 488 q 174 244 125 349 q 315 81 223 140 q 536 22 408 22 q 680 41 611 22 q 798 93 749 60 l 798 252 l 835 252 l 835 70 q 696 6 771 27 q 538 -14 622 -14 z "},"Ć":{"ha":914,"x_min":88,"x_max":835,"o":"m 538 -14 q 294 49 395 -14 q 141 225 193 113 q 88 488 88 338 l 88 500 q 142 762 88 649 q 294 938 197 875 q 520 1002 391 1002 q 696 975 627 1002 q 825 895 764 947 l 825 720 l 787 720 l 787 879 q 714 926 751 907 q 631 955 677 945 q 520 965 585 965 q 314 907 404 965 q 175 744 225 848 q 125 501 125 640 l 125 488 q 174 244 125 349 q 315 81 223 140 q 536 22 408 22 q 680 41 611 22 q 798 93 749 60 l 798 252 l 835 252 l 835 70 q 696 6 771 27 q 538 -14 622 -14 m 466 1080 l 588 1236 l 631 1236 l 633 1233 l 498 1076 l 467 1076 l 466 1080 z "},"Č":{"ha":914,"x_min":88,"x_max":835,"o":"m 538 -14 q 294 49 395 -14 q 141 225 193 113 q 88 488 88 338 l 88 500 q 142 762 88 649 q 294 938 197 875 q 520 1002 391 1002 q 696 975 627 1002 q 825 895 764 947 l 825 720 l 787 720 l 787 879 q 714 926 751 907 q 631 955 677 945 q 520 965 585 965 q 314 907 404 965 q 175 744 225 848 q 125 501 125 640 l 125 488 q 174 244 125 349 q 315 81 223 140 q 536 22 408 22 q 680 41 611 22 q 798 93 749 60 l 798 252 l 835 252 l 835 70 q 696 6 771 27 q 538 -14 622 -14 m 677 1236 l 677 1225 l 530 1085 l 486 1085 l 336 1227 l 336 1236 l 376 1236 l 509 1110 l 637 1236 l 677 1236 z "},"Ç":{"ha":914,"x_min":88,"x_max":835,"o":"m 538 -14 q 294 49 395 -14 q 141 225 193 113 q 88 488 88 338 l 88 500 q 142 762 88 649 q 294 938 197 875 q 520 1002 391 1002 q 696 975 627 1002 q 825 895 764 947 l 825 720 l 787 720 l 787 879 q 714 926 751 907 q 631 955 677 945 q 520 965 585 965 q 314 907 404 965 q 175 744 225 848 q 125 501 125 640 l 125 488 q 174 244 125 349 q 315 81 223 140 q 536 22 408 22 q 680 41 611 22 q 798 93 749 60 l 798 252 l 835 252 l 835 70 q 696 6 771 27 q 538 -14 622 -14 m 427 -295 l 422 -262 q 544 -237 492 -262 q 596 -166 596 -213 q 565 -106 596 -123 q 454 -82 534 -89 l 471 0 l 507 0 l 500 -52 q 597 -82 562 -56 q 633 -166 633 -109 q 580 -260 633 -225 q 427 -295 526 -295 z "},"Ĉ":{"ha":914,"x_min":88,"x_max":835,"o":"m 538 -14 q 294 49 395 -14 q 141 225 193 113 q 88 488 88 338 l 88 500 q 142 762 88 649 q 294 938 197 875 q 520 1002 391 1002 q 696 975 627 1002 q 825 895 764 947 l 825 720 l 787 720 l 787 879 q 714 926 751 907 q 631 955 677 945 q 520 965 585 965 q 314 907 404 965 q 175 744 225 848 q 125 501 125 640 l 125 488 q 174 244 125 349 q 315 81 223 140 q 536 22 408 22 q 680 41 611 22 q 798 93 749 60 l 798 252 l 835 252 l 835 70 q 696 6 771 27 q 538 -14 622 -14 m 336 1085 l 336 1097 l 484 1236 l 528 1236 l 677 1094 l 677 1085 l 637 1085 l 505 1211 l 376 1085 l 336 1085 z "},"Ċ":{"ha":914,"x_min":88,"x_max":835,"o":"m 538 -14 q 294 49 395 -14 q 141 225 193 113 q 88 488 88 338 l 88 500 q 142 762 88 649 q 294 938 197 875 q 520 1002 391 1002 q 696 975 627 1002 q 825 895 764 947 l 825 720 l 787 720 l 787 879 q 714 926 751 907 q 631 955 677 945 q 520 965 585 965 q 314 907 404 965 q 175 744 225 848 q 125 501 125 640 l 125 488 q 174 244 125 349 q 315 81 223 140 q 536 22 408 22 q 680 41 611 22 q 798 93 749 60 l 798 252 l 835 252 l 835 70 q 696 6 771 27 q 538 -14 622 -14 m 481 1141 l 481 1236 l 530 1236 l 530 1141 l 481 1141 z "},"D":{"ha":940,"x_min":48,"x_max":846,"o":"m 48 0 l 48 37 l 159 37 l 159 951 l 48 951 l 48 987 l 159 987 l 427 987 q 643 925 548 987 q 792 752 737 862 q 846 500 846 642 l 846 488 q 792 235 846 345 q 643 63 737 125 q 427 0 548 0 l 48 0 m 195 37 l 427 37 q 624 95 537 37 q 760 256 710 154 q 810 488 810 358 l 810 502 q 760 732 810 631 q 624 892 710 833 q 427 951 537 951 l 195 951 l 195 37 z "},"Ð":{"ha":940,"x_min":48,"x_max":846,"o":"m 48 0 l 48 37 l 159 37 l 159 951 l 48 951 l 48 987 l 159 987 l 427 987 q 643 925 548 987 q 792 752 737 862 q 846 500 846 642 l 846 488 q 792 235 846 345 q 643 63 737 125 q 427 0 548 0 l 48 0 m 195 37 l 427 37 q 624 95 537 37 q 760 256 710 154 q 810 488 810 358 l 810 502 q 760 732 810 631 q 624 892 710 833 q 427 951 537 951 l 195 951 l 195 37 m 48 486 l 48 522 l 401 522 l 401 486 l 48 486 z "},"Ď":{"ha":940,"x_min":48,"x_max":846,"o":"m 48 0 l 48 37 l 159 37 l 159 951 l 48 951 l 48 987 l 159 987 l 427 987 q 643 925 548 987 q 792 752 737 862 q 846 500 846 642 l 846 488 q 792 235 846 345 q 643 63 737 125 q 427 0 548 0 l 48 0 m 195 37 l 427 37 q 624 95 537 37 q 760 256 710 154 q 810 488 810 358 l 810 502 q 760 732 810 631 q 624 892 710 833 q 427 951 537 951 l 195 951 l 195 37 m 627 1236 l 627 1225 l 479 1085 l 435 1085 l 286 1227 l 286 1236 l 326 1236 l 458 1110 l 587 1236 l 627 1236 z "},"Đ":{"ha":940,"x_min":48,"x_max":846,"o":"m 48 0 l 48 37 l 159 37 l 159 951 l 48 951 l 48 987 l 159 987 l 427 987 q 643 925 548 987 q 792 752 737 862 q 846 500 846 642 l 846 488 q 792 235 846 345 q 643 63 737 125 q 427 0 548 0 l 48 0 m 195 37 l 427 37 q 624 95 537 37 q 760 256 710 154 q 810 488 810 358 l 810 502 q 760 732 810 631 q 624 892 710 833 q 427 951 537 951 l 195 951 l 195 37 m 48 486 l 48 522 l 401 522 l 401 486 l 48 486 z "},"E":{"ha":861,"x_min":48,"x_max":760,"o":"m 48 0 l 48 37 l 159 37 l 159 951 l 48 951 l 48 987 l 739 987 l 739 789 l 703 789 l 703 951 l 195 951 l 195 533 l 623 533 l 623 496 l 195 496 l 195 37 l 723 37 l 723 199 l 760 199 l 760 0 l 48 0 z "},"É":{"ha":861,"x_min":48,"x_max":760,"o":"m 48 0 l 48 37 l 159 37 l 159 951 l 48 951 l 48 987 l 739 987 l 739 789 l 703 789 l 703 951 l 195 951 l 195 533 l 623 533 l 623 496 l 195 496 l 195 37 l 723 37 l 723 199 l 760 199 l 760 0 l 48 0 m 390 1080 l 512 1236 l 555 1236 l 557 1233 l 422 1076 l 391 1076 l 390 1080 z "},"Ĕ":{"ha":861,"x_min":48,"x_max":760,"o":"m 48 0 l 48 37 l 159 37 l 159 951 l 48 951 l 48 987 l 739 987 l 739 789 l 703 789 l 703 951 l 195 951 l 195 533 l 623 533 l 623 496 l 195 496 l 195 37 l 723 37 l 723 199 l 760 199 l 760 0 l 48 0 m 431 1072 q 294 1117 344 1072 q 245 1232 244 1162 l 246 1236 l 281 1236 q 317 1144 281 1179 q 431 1109 353 1109 q 543 1145 506 1109 q 581 1236 581 1181 l 616 1236 l 617 1232 q 568 1117 617 1162 q 431 1072 518 1072 z "},"Ě":{"ha":861,"x_min":48,"x_max":760,"o":"m 48 0 l 48 37 l 159 37 l 159 951 l 48 951 l 48 987 l 739 987 l 739 789 l 703 789 l 703 951 l 195 951 l 195 533 l 623 533 l 623 496 l 195 496 l 195 37 l 723 37 l 723 199 l 760 199 l 760 0 l 48 0 m 602 1236 l 602 1225 l 454 1085 l 410 1085 l 260 1227 l 260 1236 l 300 1236 l 433 1110 l 562 1236 l 602 1236 z "},"Ê":{"ha":861,"x_min":48,"x_max":760,"o":"m 48 0 l 48 37 l 159 37 l 159 951 l 48 951 l 48 987 l 739 987 l 739 789 l 703 789 l 703 951 l 195 951 l 195 533 l 623 533 l 623 496 l 195 496 l 195 37 l 723 37 l 723 199 l 760 199 l 760 0 l 48 0 m 260 1085 l 260 1097 l 408 1236 l 452 1236 l 602 1094 l 602 1085 l 561 1085 l 429 1211 l 300 1085 l 260 1085 z "},"Ế":{"ha":861,"x_min":48,"x_max":760,"o":"m 48 0 l 48 37 l 159 37 l 159 951 l 48 951 l 48 987 l 739 987 l 739 789 l 703 789 l 703 951 l 195 951 l 195 533 l 623 533 l 623 496 l 195 496 l 195 37 l 723 37 l 723 199 l 760 199 l 760 0 l 48 0 m 258 1053 l 258 1064 l 409 1190 l 453 1190 l 606 1061 l 606 1053 l 562 1053 l 431 1163 l 301 1053 l 258 1053 m 527 1197 l 621 1342 l 665 1342 l 666 1339 l 559 1194 l 528 1194 l 527 1197 z "},"Ệ":{"ha":861,"x_min":48,"x_max":760,"o":"m 48 0 l 48 37 l 159 37 l 159 951 l 48 951 l 48 987 l 739 987 l 739 789 l 703 789 l 703 951 l 195 951 l 195 533 l 623 533 l 623 496 l 195 496 l 195 37 l 723 37 l 723 199 l 760 199 l 760 0 l 48 0 m 260 1085 l 260 1097 l 408 1236 l 452 1236 l 602 1094 l 602 1085 l 561 1085 l 429 1211 l 300 1085 l 260 1085 m 406 -249 l 406 -154 l 455 -154 l 455 -249 l 406 -249 z "},"Ề":{"ha":861,"x_min":48,"x_max":760,"o":"m 48 0 l 48 37 l 159 37 l 159 951 l 48 951 l 48 987 l 739 987 l 739 789 l 703 789 l 703 951 l 195 951 l 195 533 l 623 533 l 623 496 l 195 496 l 195 37 l 723 37 l 723 199 l 760 199 l 760 0 l 48 0 m 603 1053 l 560 1053 l 431 1163 l 299 1053 l 256 1053 l 256 1061 l 408 1190 l 452 1190 l 603 1064 l 603 1053 m 334 1197 l 333 1194 l 302 1194 l 195 1339 l 197 1342 l 240 1342 l 334 1197 z "},"Ể":{"ha":861,"x_min":48,"x_max":760,"o":"m 48 0 l 48 37 l 159 37 l 159 951 l 48 951 l 48 987 l 739 987 l 739 789 l 703 789 l 703 951 l 195 951 l 195 533 l 623 533 l 623 496 l 195 496 l 195 37 l 723 37 l 723 199 l 760 199 l 760 0 l 48 0 m 258 1053 l 258 1064 l 409 1190 l 453 1190 l 606 1061 l 606 1053 l 562 1053 l 431 1163 l 301 1053 l 258 1053 m 556 1156 l 556 1219 q 640 1236 614 1223 q 666 1274 666 1249 q 631 1319 666 1305 q 531 1333 597 1333 l 536 1367 q 663 1341 621 1367 q 704 1274 704 1316 q 672 1213 704 1234 q 589 1189 641 1192 l 589 1156 l 556 1156 z "},"Ễ":{"ha":861,"x_min":48,"x_max":760,"o":"m 48 0 l 48 37 l 159 37 l 159 951 l 48 951 l 48 987 l 739 987 l 739 789 l 703 789 l 703 951 l 195 951 l 195 533 l 623 533 l 623 496 l 195 496 l 195 37 l 723 37 l 723 199 l 760 199 l 760 0 l 48 0 m 292 1259 l 258 1259 q 272 1313 258 1290 q 307 1350 285 1337 q 356 1363 330 1363 q 415 1347 389 1363 q 465 1313 441 1330 q 514 1297 488 1297 q 557 1316 538 1297 q 577 1367 577 1335 l 610 1367 q 598 1312 612 1336 q 564 1274 585 1288 q 515 1261 542 1261 q 457 1277 483 1261 q 407 1311 431 1294 q 355 1328 382 1328 q 311 1310 330 1328 q 292 1259 292 1292 m 257 1053 l 257 1064 l 408 1190 l 452 1190 l 604 1061 l 604 1053 l 561 1053 l 429 1163 l 300 1053 l 257 1053 z "},"Ë":{"ha":861,"x_min":48,"x_max":760,"o":"m 48 0 l 48 37 l 159 37 l 159 951 l 48 951 l 48 987 l 739 987 l 739 789 l 703 789 l 703 951 l 195 951 l 195 533 l 623 533 l 623 496 l 195 496 l 195 37 l 723 37 l 723 199 l 760 199 l 760 0 l 48 0 m 514 1143 l 514 1236 l 563 1236 l 563 1143 l 514 1143 m 297 1143 l 297 1236 l 347 1236 l 347 1143 l 297 1143 z "},"Ė":{"ha":861,"x_min":48,"x_max":760,"o":"m 48 0 l 48 37 l 159 37 l 159 951 l 48 951 l 48 987 l 739 987 l 739 789 l 703 789 l 703 951 l 195 951 l 195 533 l 623 533 l 623 496 l 195 496 l 195 37 l 723 37 l 723 199 l 760 199 l 760 0 l 48 0 m 406 1141 l 406 1236 l 454 1236 l 454 1141 l 406 1141 z "},"Ẹ":{"ha":861,"x_min":48,"x_max":760,"o":"m 48 0 l 48 37 l 159 37 l 159 951 l 48 951 l 48 987 l 739 987 l 739 789 l 703 789 l 703 951 l 195 951 l 195 533 l 623 533 l 623 496 l 195 496 l 195 37 l 723 37 l 723 199 l 760 199 l 760 0 l 48 0 m 406 -249 l 406 -154 l 455 -154 l 455 -249 l 406 -249 z "},"È":{"ha":861,"x_min":48,"x_max":760,"o":"m 48 0 l 48 37 l 159 37 l 159 951 l 48 951 l 48 987 l 739 987 l 739 789 l 703 789 l 703 951 l 195 951 l 195 533 l 623 533 l 623 496 l 195 496 l 195 37 l 723 37 l 723 199 l 760 199 l 760 0 l 48 0 m 471 1080 l 470 1076 l 439 1076 l 304 1233 l 306 1236 l 349 1236 l 471 1080 z "},"Ẻ":{"ha":861,"x_min":48,"x_max":760,"o":"m 48 0 l 48 37 l 159 37 l 159 951 l 48 951 l 48 987 l 739 987 l 739 789 l 703 789 l 703 951 l 195 951 l 195 533 l 623 533 l 623 496 l 195 496 l 195 37 l 723 37 l 723 199 l 760 199 l 760 0 l 48 0 m 376 1055 l 376 1122 q 466 1141 441 1127 q 491 1182 491 1155 q 449 1235 491 1219 q 345 1251 407 1251 l 349 1284 q 480 1257 432 1284 q 529 1182 529 1230 q 498 1118 529 1141 q 409 1091 467 1095 l 409 1055 l 376 1055 z "},"Ē":{"ha":861,"x_min":48,"x_max":760,"o":"m 48 0 l 48 37 l 159 37 l 159 951 l 48 951 l 48 987 l 739 987 l 739 789 l 703 789 l 703 951 l 195 951 l 195 533 l 623 533 l 623 496 l 195 496 l 195 37 l 723 37 l 723 199 l 760 199 l 760 0 l 48 0 m 218 1141 l 218 1177 l 643 1177 l 643 1141 l 218 1141 z "},"Ę":{"ha":861,"x_min":48,"x_max":802,"o":"m 48 0 l 48 37 l 159 37 l 159 951 l 48 951 l 48 987 l 739 987 l 739 789 l 703 789 l 703 951 l 195 951 l 195 533 l 623 533 l 623 496 l 195 496 l 195 37 l 723 37 l 723 199 l 760 199 l 760 0 l 48 0 m 719 -287 q 637 -256 669 -287 q 605 -170 605 -225 q 632 -83 605 -125 q 724 14 659 -41 l 760 0 q 670 -90 699 -54 q 642 -170 642 -126 q 656 -222 642 -195 q 719 -250 671 -250 q 757 -243 741 -250 q 791 -224 774 -236 l 802 -257 q 765 -278 785 -269 q 719 -287 745 -287 z "},"Ẽ":{"ha":861,"x_min":48,"x_max":760,"o":"m 48 0 l 48 37 l 159 37 l 159 951 l 48 951 l 48 987 l 739 987 l 739 789 l 703 789 l 703 951 l 195 951 l 195 533 l 623 533 l 623 496 l 195 496 l 195 37 l 723 37 l 723 199 l 760 199 l 760 0 l 48 0 m 250 1109 l 214 1109 q 229 1174 214 1146 q 270 1217 244 1201 q 326 1232 295 1232 q 402 1211 365 1232 q 473 1169 439 1190 q 536 1147 507 1147 q 588 1171 564 1147 q 611 1236 611 1194 l 647 1236 q 632 1171 647 1200 q 593 1127 617 1143 q 538 1111 568 1111 q 463 1132 500 1111 q 391 1175 426 1154 q 325 1196 357 1196 q 273 1174 296 1196 q 250 1109 250 1152 z "},"F":{"ha":845,"x_min":48,"x_max":770,"o":"m 48 0 l 48 37 l 159 37 l 159 951 l 48 951 l 48 987 l 770 987 l 770 789 l 734 789 l 734 951 l 195 951 l 195 524 l 633 524 l 633 486 l 195 486 l 195 37 l 306 37 l 306 0 l 48 0 z "},"G":{"ha":961,"x_min":88,"x_max":846,"o":"m 522 -14 q 290 49 387 -14 q 140 226 193 113 q 88 488 88 339 l 88 514 q 143 768 88 659 q 294 940 198 878 q 511 1002 389 1002 q 689 974 616 1002 q 823 898 762 945 l 823 727 l 786 727 l 786 879 q 673 942 736 918 q 511 965 610 965 q 314 908 401 965 q 176 749 227 850 q 125 515 125 648 l 125 488 q 172 245 125 351 q 308 81 219 140 q 521 22 396 22 q 685 44 612 22 q 810 96 758 66 l 810 383 l 596 383 l 596 420 l 846 420 l 846 75 q 706 12 785 38 q 522 -14 627 -14 z "},"Ğ":{"ha":961,"x_min":88,"x_max":846,"o":"m 522 -14 q 290 49 387 -14 q 140 226 193 113 q 88 488 88 339 l 88 514 q 143 768 88 659 q 294 940 198 878 q 511 1002 389 1002 q 689 974 616 1002 q 823 898 762 945 l 823 727 l 786 727 l 786 879 q 673 942 736 918 q 511 965 610 965 q 314 908 401 965 q 176 749 227 850 q 125 515 125 648 l 125 488 q 172 245 125 351 q 308 81 219 140 q 521 22 396 22 q 685 44 612 22 q 810 96 758 66 l 810 383 l 596 383 l 596 420 l 846 420 l 846 75 q 706 12 785 38 q 522 -14 627 -14 m 481 1072 q 344 1117 394 1072 q 295 1232 294 1162 l 296 1236 l 332 1236 q 368 1144 332 1179 q 481 1109 404 1109 q 593 1145 556 1109 q 631 1236 631 1181 l 666 1236 l 667 1232 q 618 1117 667 1162 q 481 1072 568 1072 z "},"Ĝ":{"ha":961,"x_min":88,"x_max":846,"o":"m 522 -14 q 290 49 387 -14 q 140 226 193 113 q 88 488 88 339 l 88 514 q 143 768 88 659 q 294 940 198 878 q 511 1002 389 1002 q 689 974 616 1002 q 823 898 762 945 l 823 727 l 786 727 l 786 879 q 673 942 736 918 q 511 965 610 965 q 314 908 401 965 q 176 749 227 850 q 125 515 125 648 l 125 488 q 172 245 125 351 q 308 81 219 140 q 521 22 396 22 q 685 44 612 22 q 810 96 758 66 l 810 383 l 596 383 l 596 420 l 846 420 l 846 75 q 706 12 785 38 q 522 -14 627 -14 m 310 1085 l 310 1097 l 458 1236 l 502 1236 l 652 1094 l 652 1085 l 611 1085 l 479 1211 l 350 1085 l 310 1085 z "},"Ģ":{"ha":961,"x_min":88,"x_max":846,"o":"m 522 -14 q 290 49 387 -14 q 140 226 193 113 q 88 488 88 339 l 88 514 q 143 768 88 659 q 294 940 198 878 q 511 1002 389 1002 q 689 974 616 1002 q 823 898 762 945 l 823 727 l 786 727 l 786 879 q 673 942 736 918 q 511 965 610 965 q 314 908 401 965 q 176 749 227 850 q 125 515 125 648 l 125 488 q 172 245 125 351 q 308 81 219 140 q 521 22 396 22 q 685 44 612 22 q 810 96 758 66 l 810 383 l 596 383 l 596 420 l 846 420 l 846 75 q 706 12 785 38 q 522 -14 627 -14 m 482 -360 l 457 -338 q 489 -282 479 -309 q 498 -217 498 -255 l 498 -173 l 535 -173 l 535 -216 q 521 -297 535 -261 q 482 -360 507 -332 z "},"Ġ":{"ha":961,"x_min":88,"x_max":846,"o":"m 522 -14 q 290 49 387 -14 q 140 226 193 113 q 88 488 88 339 l 88 514 q 143 768 88 659 q 294 940 198 878 q 511 1002 389 1002 q 689 974 616 1002 q 823 898 762 945 l 823 727 l 786 727 l 786 879 q 673 942 736 918 q 511 965 610 965 q 314 908 401 965 q 176 749 227 850 q 125 515 125 648 l 125 488 q 172 245 125 351 q 308 81 219 140 q 521 22 396 22 q 685 44 612 22 q 810 96 758 66 l 810 383 l 596 383 l 596 420 l 846 420 l 846 75 q 706 12 785 38 q 522 -14 627 -14 m 456 1141 l 456 1236 l 505 1236 l 505 1141 l 456 1141 z "},"H":{"ha":1021,"x_min":48,"x_max":973,"o":"m 48 0 l 48 37 l 159 37 l 159 951 l 48 951 l 48 987 l 306 987 l 306 951 l 195 951 l 195 508 l 826 508 l 826 951 l 715 951 l 715 987 l 826 987 l 863 987 l 973 987 l 973 951 l 863 951 l 863 37 l 973 37 l 973 0 l 715 0 l 715 37 l 826 37 l 826 471 l 195 471 l 195 37 l 306 37 l 306 0 l 48 0 z "},"Ħ":{"ha":1021,"x_min":48,"x_max":973,"o":"m 48 0 l 48 37 l 159 37 l 159 951 l 48 951 l 48 987 l 306 987 l 306 951 l 195 951 l 195 508 l 826 508 l 826 951 l 715 951 l 715 987 l 826 987 l 863 987 l 973 987 l 973 951 l 863 951 l 863 37 l 973 37 l 973 0 l 715 0 l 715 37 l 826 37 l 826 471 l 195 471 l 195 37 l 306 37 l 306 0 l 48 0 m 48 697 l 48 734 l 973 734 l 973 697 l 48 697 z "},"Ĥ":{"ha":1021,"x_min":48,"x_max":973,"o":"m 48 0 l 48 37 l 159 37 l 159 951 l 48 951 l 48 987 l 306 987 l 306 951 l 195 951 l 195 508 l 826 508 l 826 951 l 715 951 l 715 987 l 826 987 l 863 987 l 973 987 l 973 951 l 863 951 l 863 37 l 973 37 l 973 0 l 715 0 l 715 37 l 826 37 l 826 471 l 195 471 l 195 37 l 306 37 l 306 0 l 48 0 m 340 1085 l 340 1097 l 488 1236 l 532 1236 l 682 1094 l 682 1085 l 641 1085 l 509 1211 l 380 1085 l 340 1085 z "},"I":{"ha":354,"x_min":48,"x_max":306,"o":"m 48 0 l 48 37 l 159 37 l 159 951 l 48 951 l 48 987 l 306 987 l 306 951 l 195 951 l 195 37 l 306 37 l 306 0 l 48 0 z "},"Ĳ":{"ha":1125,"x_min":48,"x_max":1061,"o":"m 48 0 l 48 37 l 159 37 l 159 951 l 48 951 l 48 987 l 306 987 l 306 951 l 195 951 l 195 37 l 306 37 l 306 0 l 48 0 m 673 -14 q 518 18 583 -14 q 418 113 452 50 q 385 268 383 176 l 387 272 l 418 272 q 484 87 418 151 q 673 22 549 22 q 797 55 743 22 q 883 146 852 87 q 914 286 914 205 l 914 951 l 788 951 l 788 987 l 1061 987 l 1061 951 l 951 951 l 951 286 q 916 127 951 195 q 818 23 880 60 q 673 -14 755 -14 z "},"Í":{"ha":354,"x_min":48,"x_max":306,"o":"m 48 0 l 48 37 l 159 37 l 159 951 l 48 951 l 48 987 l 306 987 l 306 951 l 195 951 l 195 37 l 306 37 l 306 0 l 48 0 m 136 1080 l 258 1236 l 302 1236 l 303 1233 l 168 1076 l 138 1076 l 136 1080 z "},"Ĭ":{"ha":354,"x_min":-9,"x_max":363,"o":"m 48 0 l 48 37 l 159 37 l 159 951 l 48 951 l 48 987 l 306 987 l 306 951 l 195 951 l 195 37 l 306 37 l 306 0 l 48 0 m 178 1072 q 40 1117 90 1072 q -9 1232 -9 1162 l -7 1236 l 28 1236 q 64 1144 28 1179 q 178 1109 100 1109 q 290 1145 252 1109 q 327 1236 327 1181 l 362 1236 l 363 1232 q 314 1117 363 1162 q 178 1072 264 1072 z "},"Î":{"ha":354,"x_min":6,"x_max":348,"o":"m 48 0 l 48 37 l 159 37 l 159 951 l 48 951 l 48 987 l 306 987 l 306 951 l 195 951 l 195 37 l 306 37 l 306 0 l 48 0 m 6 1085 l 6 1097 l 154 1236 l 198 1236 l 348 1094 l 348 1085 l 307 1085 l 175 1211 l 46 1085 l 6 1085 z "},"Ï":{"ha":354,"x_min":43,"x_max":309,"o":"m 48 0 l 48 37 l 159 37 l 159 951 l 48 951 l 48 987 l 306 987 l 306 951 l 195 951 l 195 37 l 306 37 l 306 0 l 48 0 m 260 1143 l 260 1236 l 309 1236 l 309 1143 l 260 1143 m 43 1143 l 43 1236 l 93 1236 l 93 1143 l 43 1143 z "},"İ":{"ha":354,"x_min":48,"x_max":306,"o":"m 48 0 l 48 37 l 159 37 l 159 951 l 48 951 l 48 987 l 306 987 l 306 951 l 195 951 l 195 37 l 306 37 l 306 0 l 48 0 m 152 1141 l 152 1236 l 201 1236 l 201 1141 l 152 1141 z "},"Ị":{"ha":354,"x_min":48,"x_max":306,"o":"m 48 0 l 48 37 l 159 37 l 159 951 l 48 951 l 48 987 l 306 987 l 306 951 l 195 951 l 195 37 l 306 37 l 306 0 l 48 0 m 153 -249 l 153 -154 l 201 -154 l 201 -249 l 153 -249 z "},"Ì":{"ha":354,"x_min":48,"x_max":306,"o":"m 48 0 l 48 37 l 159 37 l 159 951 l 48 951 l 48 987 l 306 987 l 306 951 l 195 951 l 195 37 l 306 37 l 306 0 l 48 0 m 218 1080 l 216 1076 l 186 1076 l 51 1233 l 52 1236 l 96 1236 l 218 1080 z "},"Ỉ":{"ha":354,"x_min":48,"x_max":306,"o":"m 48 0 l 48 37 l 159 37 l 159 951 l 48 951 l 48 987 l 306 987 l 306 951 l 195 951 l 195 37 l 306 37 l 306 0 l 48 0 m 123 1055 l 123 1122 q 212 1141 187 1127 q 237 1182 237 1155 q 195 1235 237 1219 q 91 1251 153 1251 l 96 1284 q 227 1257 178 1284 q 275 1182 275 1230 q 244 1118 275 1141 q 155 1091 213 1095 l 155 1055 l 123 1055 z "},"Ī":{"ha":354,"x_min":-36,"x_max":389,"o":"m 48 0 l 48 37 l 159 37 l 159 951 l 48 951 l 48 987 l 306 987 l 306 951 l 195 951 l 195 37 l 306 37 l 306 0 l 48 0 m -36 1141 l -36 1177 l 389 1177 l 389 1141 l -36 1141 z "},"Į":{"ha":354,"x_min":48,"x_max":348,"o":"m 48 0 l 48 37 l 159 37 l 159 951 l 48 951 l 48 987 l 306 987 l 306 951 l 195 951 l 195 37 l 306 37 l 306 0 l 48 0 m 265 -287 q 183 -256 215 -287 q 151 -170 151 -225 q 178 -83 151 -125 q 271 14 205 -41 l 306 0 q 217 -90 245 -54 q 188 -170 188 -126 q 203 -222 188 -195 q 265 -250 218 -250 q 303 -243 287 -250 q 337 -224 320 -236 l 348 -257 q 311 -278 332 -269 q 265 -287 291 -287 z "},"Ĩ":{"ha":354,"x_min":-40,"x_max":393,"o":"m 48 0 l 48 37 l 159 37 l 159 951 l 48 951 l 48 987 l 306 987 l 306 951 l 195 951 l 195 37 l 306 37 l 306 0 l 48 0 m -4 1109 l -40 1109 q -25 1174 -40 1146 q 16 1217 -9 1201 q 72 1232 41 1232 q 148 1211 111 1232 q 219 1169 185 1190 q 283 1147 253 1147 q 334 1171 311 1147 q 357 1236 357 1194 l 393 1236 q 378 1171 393 1200 q 339 1127 363 1143 q 285 1111 315 1111 q 209 1132 246 1111 q 138 1175 172 1154 q 71 1196 103 1196 q 19 1174 42 1196 q -4 1109 -4 1152 z "},"J":{"ha":771,"x_min":29,"x_max":707,"o":"m 319 -14 q 164 18 229 -14 q 64 113 98 50 q 31 268 29 176 l 33 272 l 64 272 q 130 87 64 151 q 319 22 195 22 q 443 55 389 22 q 529 146 498 87 q 560 286 560 205 l 560 951 l 434 951 l 434 987 l 707 987 l 707 951 l 597 951 l 597 286 q 562 127 597 195 q 464 23 526 60 q 319 -14 401 -14 z "},"Ĵ":{"ha":771,"x_min":29,"x_max":746,"o":"m 319 -14 q 164 18 229 -14 q 64 113 98 50 q 31 268 29 176 l 33 272 l 64 272 q 130 87 64 151 q 319 22 195 22 q 443 55 389 22 q 529 146 498 87 q 560 286 560 205 l 560 951 l 434 951 l 434 987 l 707 987 l 707 951 l 597 951 l 597 286 q 562 127 597 195 q 464 23 526 60 q 319 -14 401 -14 m 404 1085 l 404 1097 l 552 1236 l 596 1236 l 746 1094 l 746 1085 l 705 1085 l 573 1211 l 444 1085 l 404 1085 z "},"K":{"ha":941,"x_min":48,"x_max":901,"o":"m 183 265 l 170 307 l 740 947 l 739 951 l 625 951 l 625 987 l 869 987 l 869 951 l 791 951 l 183 265 m 48 0 l 48 37 l 159 37 l 159 951 l 48 951 l 48 987 l 306 987 l 306 951 l 195 951 l 195 37 l 306 37 l 306 0 l 48 0 m 656 0 l 656 37 l 766 37 l 768 41 l 401 545 l 435 564 l 821 37 l 901 37 l 901 0 l 656 0 z "},"Ķ":{"ha":941,"x_min":48,"x_max":901,"o":"m 183 265 l 170 307 l 740 947 l 739 951 l 625 951 l 625 987 l 869 987 l 869 951 l 791 951 l 183 265 m 48 0 l 48 37 l 159 37 l 159 951 l 48 951 l 48 987 l 306 987 l 306 951 l 195 951 l 195 37 l 306 37 l 306 0 l 48 0 m 656 0 l 656 37 l 766 37 l 768 41 l 401 545 l 435 564 l 821 37 l 901 37 l 901 0 l 656 0 m 445 -360 l 420 -338 q 451 -282 441 -309 q 461 -217 461 -255 l 461 -173 l 498 -173 l 498 -216 q 484 -297 498 -261 q 445 -360 469 -332 z "},"L":{"ha":787,"x_min":48,"x_max":703,"o":"m 48 0 l 48 37 l 159 37 l 159 951 l 48 951 l 48 987 l 159 987 l 196 987 l 307 987 l 307 951 l 196 951 l 196 37 l 666 37 l 666 199 l 703 199 l 703 0 l 48 0 z "},"Ĺ":{"ha":787,"x_min":48,"x_max":703,"o":"m 48 0 l 48 37 l 159 37 l 159 951 l 48 951 l 48 987 l 159 987 l 196 987 l 307 987 l 307 951 l 196 951 l 196 37 l 666 37 l 666 199 l 703 199 l 703 0 l 48 0 m 137 1080 l 259 1236 l 302 1236 l 304 1233 l 169 1076 l 138 1076 l 137 1080 z "},"Ľ":{"ha":787,"x_min":48,"x_max":704,"o":"m 48 0 l 48 37 l 159 37 l 159 951 l 48 951 l 48 987 l 159 987 l 196 987 l 307 987 l 307 951 l 196 951 l 196 37 l 666 37 l 666 199 l 703 199 l 703 0 l 48 0 m 651 800 l 626 822 q 657 879 648 852 q 667 943 667 905 l 667 987 l 704 987 l 704 945 q 690 864 704 899 q 651 800 675 828 z "},"Ļ":{"ha":787,"x_min":48,"x_max":703,"o":"m 48 0 l 48 37 l 159 37 l 159 951 l 48 951 l 48 987 l 159 987 l 196 987 l 307 987 l 307 951 l 196 951 l 196 37 l 666 37 l 666 199 l 703 199 l 703 0 l 48 0 m 368 -360 l 343 -338 q 375 -282 365 -309 q 385 -217 385 -255 l 385 -173 l 421 -173 l 421 -216 q 407 -297 421 -261 q 368 -360 393 -332 z "},"Ŀ":{"ha":787,"x_min":48,"x_max":703,"o":"m 48 0 l 48 37 l 159 37 l 159 951 l 48 951 l 48 987 l 159 987 l 196 987 l 307 987 l 307 951 l 196 951 l 196 37 l 666 37 l 666 199 l 703 199 l 703 0 l 48 0 m 530 431 l 530 519 l 589 519 l 589 431 l 530 431 z "},"Ł":{"ha":787,"x_min":43,"x_max":703,"o":"m 48 0 l 48 37 l 159 37 l 159 951 l 48 951 l 48 987 l 159 987 l 196 987 l 307 987 l 307 951 l 196 951 l 196 37 l 666 37 l 666 199 l 703 199 l 703 0 l 48 0 m 43 439 l 43 478 l 444 605 l 444 566 l 43 439 z "},"M":{"ha":1237,"x_min":48,"x_max":1189,"o":"m 48 0 l 48 37 l 159 37 l 159 951 l 48 951 l 48 987 l 159 987 l 211 987 l 615 58 l 619 58 l 1025 987 l 1189 987 l 1189 951 l 1078 951 l 1078 37 l 1189 37 l 1189 0 l 931 0 l 931 37 l 1042 37 l 1042 573 l 1042 923 l 1038 924 l 632 0 l 603 0 l 199 920 l 195 918 l 195 591 l 195 37 l 306 37 l 306 0 l 48 0 z "},"Ḿ":{"ha":1237,"x_min":48,"x_max":1189,"o":"m 48 0 l 48 37 l 159 37 l 159 951 l 48 951 l 48 987 l 159 987 l 211 987 l 615 58 l 619 58 l 1025 987 l 1189 987 l 1189 951 l 1078 951 l 1078 37 l 1189 37 l 1189 0 l 931 0 l 931 37 l 1042 37 l 1042 573 l 1042 923 l 1038 924 l 632 0 l 603 0 l 199 920 l 195 918 l 195 591 l 195 37 l 306 37 l 306 0 l 48 0 m 578 1080 l 700 1236 l 743 1236 l 745 1233 l 610 1076 l 579 1076 l 578 1080 z "},"N":{"ha":1029,"x_min":48,"x_max":981,"o":"m 48 0 l 48 37 l 159 37 l 159 951 l 48 951 l 48 987 l 159 987 l 196 987 l 829 70 l 833 71 l 833 951 l 723 951 l 723 987 l 870 987 l 981 987 l 981 951 l 870 951 l 870 0 l 833 0 l 200 920 l 196 918 l 196 37 l 307 37 l 307 0 l 48 0 z "},"Ń":{"ha":1029,"x_min":48,"x_max":981,"o":"m 48 0 l 48 37 l 159 37 l 159 951 l 48 951 l 48 987 l 159 987 l 196 987 l 829 70 l 833 71 l 833 951 l 723 951 l 723 987 l 870 987 l 981 987 l 981 951 l 870 951 l 870 0 l 833 0 l 200 920 l 196 918 l 196 37 l 307 37 l 307 0 l 48 0 m 474 1080 l 596 1236 l 640 1236 l 641 1233 l 506 1076 l 475 1076 l 474 1080 z "},"Ň":{"ha":1029,"x_min":48,"x_max":981,"o":"m 48 0 l 48 37 l 159 37 l 159 951 l 48 951 l 48 987 l 159 987 l 196 987 l 829 70 l 833 71 l 833 951 l 723 951 l 723 987 l 870 987 l 981 987 l 981 951 l 870 951 l 870 0 l 833 0 l 200 920 l 196 918 l 196 37 l 307 37 l 307 0 l 48 0 m 686 1236 l 686 1225 l 538 1085 l 494 1085 l 344 1227 l 344 1236 l 385 1236 l 517 1110 l 646 1236 l 686 1236 z "},"Ņ":{"ha":1029,"x_min":48,"x_max":981,"o":"m 48 0 l 48 37 l 159 37 l 159 951 l 48 951 l 48 987 l 159 987 l 196 987 l 829 70 l 833 71 l 833 951 l 723 951 l 723 987 l 870 987 l 981 987 l 981 951 l 870 951 l 870 0 l 833 0 l 200 920 l 196 918 l 196 37 l 307 37 l 307 0 l 48 0 m 489 -360 l 464 -338 q 495 -282 486 -309 q 505 -217 505 -255 l 505 -173 l 542 -173 l 542 -216 q 528 -297 542 -261 q 489 -360 513 -332 z "},"Ŋ":{"ha":1042,"x_min":47,"x_max":981,"o":"m 677 -296 q 639 -293 656 -296 q 601 -283 621 -290 l 610 -248 q 640 -256 622 -252 q 677 -260 659 -260 q 792 -208 751 -260 q 833 -60 833 -155 l 833 0 l 199 920 l 195 918 l 195 37 l 305 37 l 305 0 l 47 0 l 47 37 l 158 37 l 158 951 l 47 951 l 47 987 l 195 987 l 829 68 l 833 70 l 833 951 l 723 951 l 723 987 l 981 987 l 981 951 l 870 951 l 870 -60 q 819 -235 870 -174 q 677 -296 768 -296 z "},"Ñ":{"ha":1029,"x_min":48,"x_max":981,"o":"m 48 0 l 48 37 l 159 37 l 159 951 l 48 951 l 48 987 l 159 987 l 196 987 l 829 70 l 833 71 l 833 951 l 723 951 l 723 987 l 870 987 l 981 987 l 981 951 l 870 951 l 870 0 l 833 0 l 200 920 l 196 918 l 196 37 l 307 37 l 307 0 l 48 0 m 334 1109 l 298 1109 q 313 1174 298 1146 q 354 1217 328 1201 q 410 1232 379 1232 q 486 1211 449 1232 q 557 1169 523 1190 q 621 1147 591 1147 q 672 1171 648 1147 q 695 1236 695 1194 l 731 1236 q 716 1171 731 1200 q 677 1127 701 1143 q 623 1111 652 1111 q 547 1132 584 1111 q 475 1175 510 1154 q 409 1196 441 1196 q 357 1174 380 1196 q 334 1109 334 1152 z "},"O":{"ha":1009,"x_min":88,"x_max":914,"o":"m 502 -14 q 334 21 410 -14 q 203 123 258 57 q 118 281 148 189 q 88 488 88 374 l 88 500 q 118 706 88 614 q 202 864 147 798 q 333 966 257 930 q 500 1002 408 1002 q 668 966 592 1002 q 799 864 744 930 q 884 706 854 798 q 914 500 914 614 l 914 488 q 884 281 914 374 q 800 123 854 189 q 669 21 745 57 q 502 -14 593 -14 m 502 22 q 701 80 616 22 q 831 242 785 138 q 878 488 878 347 l 878 501 q 831 745 878 641 q 700 907 785 850 q 500 965 615 965 q 302 907 387 965 q 172 745 218 850 q 125 501 125 641 l 125 488 q 172 242 125 347 q 303 80 218 138 q 502 22 387 22 z "},"Ó":{"ha":1009,"x_min":88,"x_max":914,"o":"m 502 -14 q 334 21 410 -14 q 203 123 258 57 q 118 281 148 189 q 88 488 88 374 l 88 500 q 118 706 88 614 q 202 864 147 798 q 333 966 257 930 q 500 1002 408 1002 q 668 966 592 1002 q 799 864 744 930 q 884 706 854 798 q 914 500 914 614 l 914 488 q 884 281 914 374 q 800 123 854 189 q 669 21 745 57 q 502 -14 593 -14 m 502 22 q 701 80 616 22 q 831 242 785 138 q 878 488 878 347 l 878 501 q 831 745 878 641 q 700 907 785 850 q 500 965 615 965 q 302 907 387 965 q 172 745 218 850 q 125 501 125 641 l 125 488 q 172 242 125 347 q 303 80 218 138 q 502 22 387 22 m 460 1080 l 582 1236 l 625 1236 l 627 1233 l 492 1076 l 461 1076 l 460 1080 z "},"Ŏ":{"ha":1009,"x_min":88,"x_max":914,"o":"m 502 -14 q 334 21 410 -14 q 203 123 258 57 q 118 281 148 189 q 88 488 88 374 l 88 500 q 118 706 88 614 q 202 864 147 798 q 333 966 257 930 q 500 1002 408 1002 q 668 966 592 1002 q 799 864 744 930 q 884 706 854 798 q 914 500 914 614 l 914 488 q 884 281 914 374 q 800 123 854 189 q 669 21 745 57 q 502 -14 593 -14 m 502 22 q 701 80 616 22 q 831 242 785 138 q 878 488 878 347 l 878 501 q 831 745 878 641 q 700 907 785 850 q 500 965 615 965 q 302 907 387 965 q 172 745 218 850 q 125 501 125 641 l 125 488 q 172 242 125 347 q 303 80 218 138 q 502 22 387 22 m 501 1072 q 364 1117 414 1072 q 315 1232 314 1162 l 316 1236 l 351 1236 q 387 1144 351 1179 q 501 1109 423 1109 q 613 1145 576 1109 q 650 1236 650 1181 l 686 1236 l 687 1232 q 637 1117 687 1162 q 501 1072 588 1072 z "},"Ô":{"ha":1009,"x_min":88,"x_max":914,"o":"m 502 -14 q 334 21 410 -14 q 203 123 258 57 q 118 281 148 189 q 88 488 88 374 l 88 500 q 118 706 88 614 q 202 864 147 798 q 333 966 257 930 q 500 1002 408 1002 q 668 966 592 1002 q 799 864 744 930 q 884 706 854 798 q 914 500 914 614 l 914 488 q 884 281 914 374 q 800 123 854 189 q 669 21 745 57 q 502 -14 593 -14 m 502 22 q 701 80 616 22 q 831 242 785 138 q 878 488 878 347 l 878 501 q 831 745 878 641 q 700 907 785 850 q 500 965 615 965 q 302 907 387 965 q 172 745 218 850 q 125 501 125 641 l 125 488 q 172 242 125 347 q 303 80 218 138 q 502 22 387 22 m 330 1085 l 330 1097 l 477 1236 l 522 1236 l 671 1094 l 671 1085 l 631 1085 l 498 1211 l 370 1085 l 330 1085 z "},"Ố":{"ha":1009,"x_min":88,"x_max":914,"o":"m 502 -14 q 334 21 410 -14 q 203 123 258 57 q 118 281 148 189 q 88 488 88 374 l 88 500 q 118 706 88 614 q 202 864 147 798 q 333 966 257 930 q 500 1002 408 1002 q 668 966 592 1002 q 799 864 744 930 q 884 706 854 798 q 914 500 914 614 l 914 488 q 884 281 914 374 q 800 123 854 189 q 669 21 745 57 q 502 -14 593 -14 m 502 22 q 701 80 616 22 q 831 242 785 138 q 878 488 878 347 l 878 501 q 831 745 878 641 q 700 907 785 850 q 500 965 615 965 q 302 907 387 965 q 172 745 218 850 q 125 501 125 641 l 125 488 q 172 242 125 347 q 303 80 218 138 q 502 22 387 22 m 328 1053 l 328 1064 l 479 1190 l 523 1190 l 675 1061 l 675 1053 l 632 1053 l 500 1163 l 371 1053 l 328 1053 m 597 1197 l 691 1342 l 734 1342 l 736 1339 l 629 1194 l 598 1194 l 597 1197 z "},"Ộ":{"ha":1009,"x_min":88,"x_max":914,"o":"m 502 -14 q 334 21 410 -14 q 203 123 258 57 q 118 281 148 189 q 88 488 88 374 l 88 500 q 118 706 88 614 q 202 864 147 798 q 333 966 257 930 q 500 1002 408 1002 q 668 966 592 1002 q 799 864 744 930 q 884 706 854 798 q 914 500 914 614 l 914 488 q 884 281 914 374 q 800 123 854 189 q 669 21 745 57 q 502 -14 593 -14 m 502 22 q 701 80 616 22 q 831 242 785 138 q 878 488 878 347 l 878 501 q 831 745 878 641 q 700 907 785 850 q 500 965 615 965 q 302 907 387 965 q 172 745 218 850 q 125 501 125 641 l 125 488 q 172 242 125 347 q 303 80 218 138 q 502 22 387 22 m 330 1085 l 330 1097 l 477 1236 l 522 1236 l 671 1094 l 671 1085 l 631 1085 l 498 1211 l 370 1085 l 330 1085 m 480 -249 l 480 -154 l 529 -154 l 529 -249 l 480 -249 z "},"Ồ":{"ha":1009,"x_min":88,"x_max":914,"o":"m 502 -14 q 334 21 410 -14 q 203 123 258 57 q 118 281 148 189 q 88 488 88 374 l 88 500 q 118 706 88 614 q 202 864 147 798 q 333 966 257 930 q 500 1002 408 1002 q 668 966 592 1002 q 799 864 744 930 q 884 706 854 798 q 914 500 914 614 l 914 488 q 884 281 914 374 q 800 123 854 189 q 669 21 745 57 q 502 -14 593 -14 m 502 22 q 701 80 616 22 q 831 242 785 138 q 878 488 878 347 l 878 501 q 831 745 878 641 q 700 907 785 850 q 500 965 615 965 q 302 907 387 965 q 172 745 218 850 q 125 501 125 641 l 125 488 q 172 242 125 347 q 303 80 218 138 q 502 22 387 22 m 673 1053 l 630 1053 l 500 1163 l 369 1053 l 326 1053 l 326 1061 l 478 1190 l 522 1190 l 673 1064 l 673 1053 m 404 1197 l 403 1194 l 372 1194 l 265 1339 l 267 1342 l 310 1342 l 404 1197 z "},"Ổ":{"ha":1009,"x_min":88,"x_max":914,"o":"m 502 -14 q 334 21 410 -14 q 203 123 258 57 q 118 281 148 189 q 88 488 88 374 l 88 500 q 118 706 88 614 q 202 864 147 798 q 333 966 257 930 q 500 1002 408 1002 q 668 966 592 1002 q 799 864 744 930 q 884 706 854 798 q 914 500 914 614 l 914 488 q 884 281 914 374 q 800 123 854 189 q 669 21 745 57 q 502 -14 593 -14 m 502 22 q 701 80 616 22 q 831 242 785 138 q 878 488 878 347 l 878 501 q 831 745 878 641 q 700 907 785 850 q 500 965 615 965 q 302 907 387 965 q 172 745 218 850 q 125 501 125 641 l 125 488 q 172 242 125 347 q 303 80 218 138 q 502 22 387 22 m 328 1053 l 328 1064 l 479 1190 l 523 1190 l 675 1061 l 675 1053 l 632 1053 l 500 1163 l 371 1053 l 328 1053 m 626 1156 l 626 1219 q 710 1236 684 1223 q 736 1274 736 1249 q 701 1319 736 1305 q 601 1333 667 1333 l 606 1367 q 732 1341 691 1367 q 774 1274 774 1316 q 742 1213 774 1234 q 659 1189 711 1192 l 659 1156 l 626 1156 z "},"Ỗ":{"ha":1009,"x_min":88,"x_max":914,"o":"m 502 -14 q 334 21 410 -14 q 203 123 258 57 q 118 281 148 189 q 88 488 88 374 l 88 500 q 118 706 88 614 q 202 864 147 798 q 333 966 257 930 q 500 1002 408 1002 q 668 966 592 1002 q 799 864 744 930 q 884 706 854 798 q 914 500 914 614 l 914 488 q 884 281 914 374 q 800 123 854 189 q 669 21 745 57 q 502 -14 593 -14 m 502 22 q 701 80 616 22 q 831 242 785 138 q 878 488 878 347 l 878 501 q 831 745 878 641 q 700 907 785 850 q 500 965 615 965 q 302 907 387 965 q 172 745 218 850 q 125 501 125 641 l 125 488 q 172 242 125 347 q 303 80 218 138 q 502 22 387 22 m 361 1259 l 328 1259 q 341 1313 328 1290 q 377 1350 355 1337 q 426 1363 399 1363 q 485 1347 459 1363 q 534 1313 511 1330 q 584 1297 558 1297 q 627 1316 608 1297 q 647 1367 647 1335 l 680 1367 q 668 1312 682 1336 q 633 1274 655 1288 q 585 1261 612 1261 q 527 1277 553 1261 q 476 1311 500 1294 q 425 1328 452 1328 q 381 1310 400 1328 q 361 1259 361 1292 m 327 1053 l 327 1064 l 477 1190 l 522 1190 l 674 1061 l 674 1053 l 631 1053 l 499 1163 l 370 1053 l 327 1053 z "},"Ö":{"ha":1009,"x_min":88,"x_max":914,"o":"m 502 -14 q 334 21 410 -14 q 203 123 258 57 q 118 281 148 189 q 88 488 88 374 l 88 500 q 118 706 88 614 q 202 864 147 798 q 333 966 257 930 q 500 1002 408 1002 q 668 966 592 1002 q 799 864 744 930 q 884 706 854 798 q 914 500 914 614 l 914 488 q 884 281 914 374 q 800 123 854 189 q 669 21 745 57 q 502 -14 593 -14 m 502 22 q 701 80 616 22 q 831 242 785 138 q 878 488 878 347 l 878 501 q 831 745 878 641 q 700 907 785 850 q 500 965 615 965 q 302 907 387 965 q 172 745 218 850 q 125 501 125 641 l 125 488 q 172 242 125 347 q 303 80 218 138 q 502 22 387 22 m 584 1143 l 584 1236 l 633 1236 l 633 1143 l 584 1143 m 367 1143 l 367 1236 l 416 1236 l 416 1143 l 367 1143 z "},"Ọ":{"ha":1009,"x_min":88,"x_max":914,"o":"m 502 -14 q 334 21 410 -14 q 203 123 258 57 q 118 281 148 189 q 88 488 88 374 l 88 500 q 118 706 88 614 q 202 864 147 798 q 333 966 257 930 q 500 1002 408 1002 q 668 966 592 1002 q 799 864 744 930 q 884 706 854 798 q 914 500 914 614 l 914 488 q 884 281 914 374 q 800 123 854 189 q 669 21 745 57 q 502 -14 593 -14 m 502 22 q 701 80 616 22 q 831 242 785 138 q 878 488 878 347 l 878 501 q 831 745 878 641 q 700 907 785 850 q 500 965 615 965 q 302 907 387 965 q 172 745 218 850 q 125 501 125 641 l 125 488 q 172 242 125 347 q 303 80 218 138 q 502 22 387 22 m 480 -249 l 480 -154 l 529 -154 l 529 -249 l 480 -249 z "},"Ò":{"ha":1009,"x_min":88,"x_max":914,"o":"m 502 -14 q 334 21 410 -14 q 203 123 258 57 q 118 281 148 189 q 88 488 88 374 l 88 500 q 118 706 88 614 q 202 864 147 798 q 333 966 257 930 q 500 1002 408 1002 q 668 966 592 1002 q 799 864 744 930 q 884 706 854 798 q 914 500 914 614 l 914 488 q 884 281 914 374 q 800 123 854 189 q 669 21 745 57 q 502 -14 593 -14 m 502 22 q 701 80 616 22 q 831 242 785 138 q 878 488 878 347 l 878 501 q 831 745 878 641 q 700 907 785 850 q 500 965 615 965 q 302 907 387 965 q 172 745 218 850 q 125 501 125 641 l 125 488 q 172 242 125 347 q 303 80 218 138 q 502 22 387 22 m 541 1080 l 540 1076 l 509 1076 l 374 1233 l 376 1236 l 419 1236 l 541 1080 z "},"Ỏ":{"ha":1009,"x_min":88,"x_max":914,"o":"m 502 -14 q 334 21 410 -14 q 203 123 258 57 q 118 281 148 189 q 88 488 88 374 l 88 500 q 118 706 88 614 q 202 864 147 798 q 333 966 257 930 q 500 1002 408 1002 q 668 966 592 1002 q 799 864 744 930 q 884 706 854 798 q 914 500 914 614 l 914 488 q 884 281 914 374 q 800 123 854 189 q 669 21 745 57 q 502 -14 593 -14 m 502 22 q 701 80 616 22 q 831 242 785 138 q 878 488 878 347 l 878 501 q 831 745 878 641 q 700 907 785 850 q 500 965 615 965 q 302 907 387 965 q 172 745 218 850 q 125 501 125 641 l 125 488 q 172 242 125 347 q 303 80 218 138 q 502 22 387 22 m 446 1055 l 446 1122 q 536 1141 511 1127 q 561 1182 561 1155 q 519 1235 561 1219 q 414 1251 477 1251 l 419 1284 q 550 1257 502 1284 q 599 1182 599 1230 q 568 1118 599 1141 q 479 1091 536 1095 l 479 1055 l 446 1055 z "},"Ơ":{"ha":1009,"x_min":88,"x_max":982,"o":"m 502 -14 q 334 21 410 -14 q 203 123 258 57 q 118 281 148 189 q 88 488 88 374 l 88 500 q 118 706 88 614 q 202 864 147 798 q 333 966 257 930 q 500 1002 408 1002 q 668 966 592 1002 q 799 864 744 930 q 884 706 854 798 q 914 500 914 614 l 914 488 q 884 281 914 374 q 800 123 854 189 q 669 21 745 57 q 502 -14 593 -14 m 502 22 q 701 80 616 22 q 831 242 785 138 q 878 488 878 347 l 878 501 q 831 745 878 641 q 700 907 785 850 q 500 965 615 965 q 302 907 387 965 q 172 745 218 850 q 125 501 125 641 l 125 488 q 172 242 125 347 q 303 80 218 138 q 502 22 387 22 m 787 827 l 787 863 q 909 910 873 863 q 945 1045 945 958 l 982 1045 q 963 930 982 979 q 901 854 943 882 q 787 827 858 827 z "},"Ớ":{"ha":1009,"x_min":88,"x_max":982,"o":"m 502 -14 q 334 21 410 -14 q 203 123 258 57 q 118 281 148 189 q 88 488 88 374 l 88 500 q 118 706 88 614 q 202 864 147 798 q 333 966 257 930 q 500 1002 408 1002 q 668 966 592 1002 q 799 864 744 930 q 884 706 854 798 q 914 500 914 614 l 914 488 q 884 281 914 374 q 800 123 854 189 q 669 21 745 57 q 502 -14 593 -14 m 502 22 q 701 80 616 22 q 831 242 785 138 q 878 488 878 347 l 878 501 q 831 745 878 641 q 700 907 785 850 q 500 965 615 965 q 302 907 387 965 q 172 745 218 850 q 125 501 125 641 l 125 488 q 172 242 125 347 q 303 80 218 138 q 502 22 387 22 m 787 827 l 787 863 q 909 910 873 863 q 945 1045 945 958 l 982 1045 q 963 930 982 979 q 901 854 943 882 q 787 827 858 827 m 460 1080 l 582 1236 l 625 1236 l 627 1233 l 492 1076 l 461 1076 l 460 1080 z "},"Ợ":{"ha":1009,"x_min":88,"x_max":982,"o":"m 502 -14 q 334 21 410 -14 q 203 123 258 57 q 118 281 148 189 q 88 488 88 374 l 88 500 q 118 706 88 614 q 202 864 147 798 q 333 966 257 930 q 500 1002 408 1002 q 668 966 592 1002 q 799 864 744 930 q 884 706 854 798 q 914 500 914 614 l 914 488 q 884 281 914 374 q 800 123 854 189 q 669 21 745 57 q 502 -14 593 -14 m 502 22 q 701 80 616 22 q 831 242 785 138 q 878 488 878 347 l 878 501 q 831 745 878 641 q 700 907 785 850 q 500 965 615 965 q 302 907 387 965 q 172 745 218 850 q 125 501 125 641 l 125 488 q 172 242 125 347 q 303 80 218 138 q 502 22 387 22 m 787 827 l 787 863 q 909 910 873 863 q 945 1045 945 958 l 982 1045 q 963 930 982 979 q 901 854 943 882 q 787 827 858 827 m 480 -249 l 480 -154 l 529 -154 l 529 -249 l 480 -249 z "},"Ờ":{"ha":1009,"x_min":88,"x_max":982,"o":"m 502 -14 q 334 21 410 -14 q 203 123 258 57 q 118 281 148 189 q 88 488 88 374 l 88 500 q 118 706 88 614 q 202 864 147 798 q 333 966 257 930 q 500 1002 408 1002 q 668 966 592 1002 q 799 864 744 930 q 884 706 854 798 q 914 500 914 614 l 914 488 q 884 281 914 374 q 800 123 854 189 q 669 21 745 57 q 502 -14 593 -14 m 502 22 q 701 80 616 22 q 831 242 785 138 q 878 488 878 347 l 878 501 q 831 745 878 641 q 700 907 785 850 q 500 965 615 965 q 302 907 387 965 q 172 745 218 850 q 125 501 125 641 l 125 488 q 172 242 125 347 q 303 80 218 138 q 502 22 387 22 m 787 827 l 787 863 q 909 910 873 863 q 945 1045 945 958 l 982 1045 q 963 930 982 979 q 901 854 943 882 q 787 827 858 827 m 541 1080 l 540 1076 l 509 1076 l 374 1233 l 376 1236 l 419 1236 l 541 1080 z "},"Ở":{"ha":1009,"x_min":88,"x_max":982,"o":"m 502 -14 q 334 21 410 -14 q 203 123 258 57 q 118 281 148 189 q 88 488 88 374 l 88 500 q 118 706 88 614 q 202 864 147 798 q 333 966 257 930 q 500 1002 408 1002 q 668 966 592 1002 q 799 864 744 930 q 884 706 854 798 q 914 500 914 614 l 914 488 q 884 281 914 374 q 800 123 854 189 q 669 21 745 57 q 502 -14 593 -14 m 502 22 q 701 80 616 22 q 831 242 785 138 q 878 488 878 347 l 878 501 q 831 745 878 641 q 700 907 785 850 q 500 965 615 965 q 302 907 387 965 q 172 745 218 850 q 125 501 125 641 l 125 488 q 172 242 125 347 q 303 80 218 138 q 502 22 387 22 m 787 827 l 787 863 q 909 910 873 863 q 945 1045 945 958 l 982 1045 q 963 930 982 979 q 901 854 943 882 q 787 827 858 827 m 446 1055 l 446 1122 q 536 1141 511 1127 q 561 1182 561 1155 q 519 1235 561 1219 q 414 1251 477 1251 l 419 1284 q 550 1257 502 1284 q 599 1182 599 1230 q 568 1118 599 1141 q 479 1091 536 1095 l 479 1055 l 446 1055 z "},"Ỡ":{"ha":1009,"x_min":88,"x_max":982,"o":"m 502 -14 q 334 21 410 -14 q 203 123 258 57 q 118 281 148 189 q 88 488 88 374 l 88 500 q 118 706 88 614 q 202 864 147 798 q 333 966 257 930 q 500 1002 408 1002 q 668 966 592 1002 q 799 864 744 930 q 884 706 854 798 q 914 500 914 614 l 914 488 q 884 281 914 374 q 800 123 854 189 q 669 21 745 57 q 502 -14 593 -14 m 502 22 q 701 80 616 22 q 831 242 785 138 q 878 488 878 347 l 878 501 q 831 745 878 641 q 700 907 785 850 q 500 965 615 965 q 302 907 387 965 q 172 745 218 850 q 125 501 125 641 l 125 488 q 172 242 125 347 q 303 80 218 138 q 502 22 387 22 m 787 827 l 787 863 q 909 910 873 863 q 945 1045 945 958 l 982 1045 q 963 930 982 979 q 901 854 943 882 q 787 827 858 827 m 319 1109 l 283 1109 q 299 1174 283 1146 q 339 1217 314 1201 q 395 1232 365 1232 q 472 1211 435 1232 q 543 1169 509 1190 q 606 1147 576 1147 q 657 1171 634 1147 q 681 1236 681 1194 l 717 1236 q 702 1171 717 1200 q 663 1127 687 1143 q 608 1111 638 1111 q 533 1132 570 1111 q 461 1175 496 1154 q 395 1196 427 1196 q 342 1174 366 1196 q 319 1109 319 1152 z "},"Ő":{"ha":1009,"x_min":88,"x_max":914,"o":"m 502 -14 q 334 21 410 -14 q 203 123 258 57 q 118 281 148 189 q 88 488 88 374 l 88 500 q 118 706 88 614 q 202 864 147 798 q 333 966 257 930 q 500 1002 408 1002 q 668 966 592 1002 q 799 864 744 930 q 884 706 854 798 q 914 500 914 614 l 914 488 q 884 281 914 374 q 800 123 854 189 q 669 21 745 57 q 502 -14 593 -14 m 502 22 q 701 80 616 22 q 831 242 785 138 q 878 488 878 347 l 878 501 q 831 745 878 641 q 700 907 785 850 q 500 965 615 965 q 302 907 387 965 q 172 745 218 850 q 125 501 125 641 l 125 488 q 172 242 125 347 q 303 80 218 138 q 502 22 387 22 m 524 1076 l 522 1080 l 667 1236 l 713 1236 l 715 1232 l 558 1076 l 524 1076 m 364 1078 l 363 1082 l 484 1236 l 528 1236 l 530 1232 l 397 1078 l 364 1078 z "},"Ō":{"ha":1009,"x_min":88,"x_max":914,"o":"m 502 -14 q 334 21 410 -14 q 203 123 258 57 q 118 281 148 189 q 88 488 88 374 l 88 500 q 118 706 88 614 q 202 864 147 798 q 333 966 257 930 q 500 1002 408 1002 q 668 966 592 1002 q 799 864 744 930 q 884 706 854 798 q 914 500 914 614 l 914 488 q 884 281 914 374 q 800 123 854 189 q 669 21 745 57 q 502 -14 593 -14 m 502 22 q 701 80 616 22 q 831 242 785 138 q 878 488 878 347 l 878 501 q 831 745 878 641 q 700 907 785 850 q 500 965 615 965 q 302 907 387 965 q 172 745 218 850 q 125 501 125 641 l 125 488 q 172 242 125 347 q 303 80 218 138 q 502 22 387 22 m 288 1141 l 288 1177 l 713 1177 l 713 1141 l 288 1141 z "},"Ø":{"ha":1009,"x_min":88,"x_max":914,"o":"m 502 -14 q 334 21 410 -14 q 203 123 258 57 q 118 281 148 189 q 88 488 88 374 l 88 500 q 118 706 88 614 q 202 864 147 798 q 333 966 257 930 q 500 1002 408 1002 q 668 966 592 1002 q 799 864 744 930 q 884 706 854 798 q 914 500 914 614 l 914 488 q 884 281 914 374 q 800 123 854 189 q 669 21 745 57 q 502 -14 593 -14 m 502 22 q 701 80 616 22 q 831 242 785 138 q 878 488 878 347 l 878 501 q 831 745 878 641 q 700 907 785 850 q 500 965 615 965 q 302 907 387 965 q 172 745 218 850 q 125 501 125 641 l 125 488 q 172 242 125 347 q 303 80 218 138 q 502 22 387 22 m 144 -39 l 820 1026 l 865 1026 l 189 -39 l 144 -39 z "},"Ǿ":{"ha":1009,"x_min":88,"x_max":914,"o":"m 502 -14 q 334 21 410 -14 q 203 123 258 57 q 118 281 148 189 q 88 488 88 374 l 88 500 q 118 706 88 614 q 202 864 147 798 q 333 966 257 930 q 500 1002 408 1002 q 668 966 592 1002 q 799 864 744 930 q 884 706 854 798 q 914 500 914 614 l 914 488 q 884 281 914 374 q 800 123 854 189 q 669 21 745 57 q 502 -14 593 -14 m 502 22 q 701 80 616 22 q 831 242 785 138 q 878 488 878 347 l 878 501 q 831 745 878 641 q 700 907 785 850 q 500 965 615 965 q 302 907 387 965 q 172 745 218 850 q 125 501 125 641 l 125 488 q 172 242 125 347 q 303 80 218 138 q 502 22 387 22 m 144 -39 l 820 1026 l 865 1026 l 189 -39 l 144 -39 m 460 1080 l 582 1236 l 625 1236 l 627 1233 l 492 1076 l 461 1076 l 460 1080 z "},"Õ":{"ha":1009,"x_min":88,"x_max":914,"o":"m 502 -14 q 334 21 410 -14 q 203 123 258 57 q 118 281 148 189 q 88 488 88 374 l 88 500 q 118 706 88 614 q 202 864 147 798 q 333 966 257 930 q 500 1002 408 1002 q 668 966 592 1002 q 799 864 744 930 q 884 706 854 798 q 914 500 914 614 l 914 488 q 884 281 914 374 q 800 123 854 189 q 669 21 745 57 q 502 -14 593 -14 m 502 22 q 701 80 616 22 q 831 242 785 138 q 878 488 878 347 l 878 501 q 831 745 878 641 q 700 907 785 850 q 500 965 615 965 q 302 907 387 965 q 172 745 218 850 q 125 501 125 641 l 125 488 q 172 242 125 347 q 303 80 218 138 q 502 22 387 22 m 319 1109 l 283 1109 q 299 1174 283 1146 q 339 1217 314 1201 q 395 1232 365 1232 q 472 1211 435 1232 q 543 1169 509 1190 q 606 1147 576 1147 q 657 1171 634 1147 q 681 1236 681 1194 l 717 1236 q 702 1171 717 1200 q 663 1127 687 1143 q 608 1111 638 1111 q 533 1132 570 1111 q 461 1175 496 1154 q 395 1196 427 1196 q 342 1174 366 1196 q 319 1109 319 1152 z "},"Œ":{"ha":1375,"x_min":88,"x_max":1274,"o":"m 533 -14 q 348 21 430 -14 q 208 123 266 57 q 119 281 150 189 q 88 488 88 374 l 88 500 q 119 706 88 614 q 207 864 149 798 q 347 966 264 930 q 532 1002 429 1002 q 620 996 572 1002 q 711 981 669 991 l 697 945 q 613 960 656 955 q 532 965 569 965 q 313 907 404 965 q 174 745 222 850 q 125 501 125 641 l 125 488 q 174 242 125 347 q 314 80 222 138 q 533 22 405 22 q 614 27 570 22 q 697 43 657 33 l 711 6 q 621 -9 669 -3 q 533 -14 573 -14 m 628 0 l 673 30 l 673 958 l 628 987 l 1274 987 l 1274 789 l 1237 789 l 1237 951 l 709 951 l 709 533 l 1137 533 l 1137 496 l 709 496 l 709 37 l 1237 37 l 1237 199 l 1274 199 l 1274 0 l 628 0 z "},"P":{"ha":851,"x_min":48,"x_max":752,"o":"m 48 0 l 48 37 l 159 37 l 159 951 l 48 951 l 48 987 l 159 987 l 433 987 q 607 952 536 987 q 715 854 678 918 q 752 706 752 791 q 715 556 752 620 q 607 458 678 493 q 433 424 536 424 l 195 424 l 195 37 l 306 37 l 306 0 l 48 0 m 195 460 l 433 460 q 645 530 574 460 q 715 705 715 600 q 645 881 715 812 q 433 951 574 951 l 195 951 l 195 460 z "},"Þ":{"ha":841,"x_min":47,"x_max":751,"o":"m 47 0 l 47 37 l 158 37 l 158 951 l 47 951 l 47 987 l 195 987 l 305 987 l 305 951 l 195 951 l 195 775 l 446 775 q 671 699 590 775 q 751 500 751 622 q 671 302 751 378 q 446 227 590 227 l 195 227 l 195 37 l 305 37 l 305 0 l 47 0 m 195 263 l 446 263 q 594 296 534 263 q 684 382 654 328 q 715 499 715 436 q 685 619 715 564 q 595 706 654 673 q 446 739 535 739 l 195 739 l 195 263 z "},"Q":{"ha":1002,"x_min":88,"x_max":914,"o":"m 887 -140 l 664 19 q 586 -6 627 2 q 502 -14 545 -14 q 334 21 410 -14 q 203 123 258 57 q 118 281 148 189 q 88 488 88 374 l 88 500 q 118 706 88 614 q 202 864 147 798 q 333 966 257 930 q 500 1002 408 1002 q 668 966 592 1002 q 799 864 744 930 q 884 706 854 798 q 914 500 914 614 l 914 488 q 858 213 914 330 q 701 38 801 96 l 911 -112 l 887 -140 m 502 22 q 701 80 616 22 q 831 242 785 138 q 878 488 878 347 l 878 501 q 831 745 878 641 q 700 907 785 850 q 500 965 615 965 q 302 907 387 965 q 172 745 218 850 q 125 501 125 641 l 125 488 q 172 242 125 347 q 303 80 218 138 q 502 22 387 22 z "},"R":{"ha":925,"x_min":48,"x_max":838,"o":"m 48 -1 l 48 36 l 159 36 l 159 950 l 48 950 l 48 987 l 445 987 q 622 957 549 987 q 731 868 694 926 q 769 722 769 809 q 728 582 769 640 q 613 493 687 524 q 442 463 540 463 l 195 463 l 195 36 l 306 36 l 306 -1 l 48 -1 m 724 -1 l 517 487 l 553 487 l 748 36 l 838 36 l 838 -1 l 724 -1 m 195 500 l 441 500 q 662 564 591 500 q 732 722 732 627 q 660 891 732 833 q 445 950 588 950 l 195 950 l 195 500 z "},"Ŕ":{"ha":925,"x_min":48,"x_max":838,"o":"m 48 -1 l 48 36 l 159 36 l 159 950 l 48 950 l 48 987 l 445 987 q 622 957 549 987 q 731 868 694 926 q 769 722 769 809 q 728 582 769 640 q 613 493 687 524 q 442 463 540 463 l 195 463 l 195 36 l 306 36 l 306 -1 l 48 -1 m 724 -1 l 517 487 l 553 487 l 748 36 l 838 36 l 838 -1 l 724 -1 m 195 500 l 441 500 q 662 564 591 500 q 732 722 732 627 q 660 891 732 833 q 445 950 588 950 l 195 950 l 195 500 m 422 1080 l 544 1236 l 587 1236 l 589 1233 l 454 1076 l 423 1076 l 422 1080 z "},"Ř":{"ha":925,"x_min":48,"x_max":838,"o":"m 48 -1 l 48 36 l 159 36 l 159 950 l 48 950 l 48 987 l 445 987 q 622 957 549 987 q 731 868 694 926 q 769 722 769 809 q 728 582 769 640 q 613 493 687 524 q 442 463 540 463 l 195 463 l 195 36 l 306 36 l 306 -1 l 48 -1 m 724 -1 l 517 487 l 553 487 l 748 36 l 838 36 l 838 -1 l 724 -1 m 195 500 l 441 500 q 662 564 591 500 q 732 722 732 627 q 660 891 732 833 q 445 950 588 950 l 195 950 l 195 500 m 633 1236 l 633 1225 l 486 1085 l 441 1085 l 292 1227 l 292 1236 l 332 1236 l 465 1110 l 593 1236 l 633 1236 z "},"Ŗ":{"ha":925,"x_min":48,"x_max":838,"o":"m 48 -1 l 48 36 l 159 36 l 159 950 l 48 950 l 48 987 l 445 987 q 622 957 549 987 q 731 868 694 926 q 769 722 769 809 q 728 582 769 640 q 613 493 687 524 q 442 463 540 463 l 195 463 l 195 36 l 306 36 l 306 -1 l 48 -1 m 724 -1 l 517 487 l 553 487 l 748 36 l 838 36 l 838 -1 l 724 -1 m 195 500 l 441 500 q 662 564 591 500 q 732 722 732 627 q 660 891 732 833 q 445 950 588 950 l 195 950 l 195 500 m 437 -360 l 412 -338 q 443 -282 433 -309 q 453 -217 453 -255 l 453 -173 l 490 -173 l 490 -216 q 475 -297 490 -261 q 437 -360 461 -332 z "},"S":{"ha":802,"x_min":68,"x_max":734,"o":"m 399 -14 q 234 11 320 -14 q 68 90 149 36 l 68 264 l 104 264 l 104 111 q 253 44 178 65 q 399 22 328 22 q 553 50 486 22 q 659 125 621 77 q 697 237 697 174 q 668 345 697 299 q 572 427 638 391 q 393 494 505 463 q 214 561 280 526 q 118 645 147 596 q 90 766 90 694 q 127 889 90 836 q 234 972 165 942 q 395 1002 303 1002 q 567 973 490 1002 q 702 897 644 945 l 702 738 l 665 738 l 665 876 q 543 943 612 920 q 395 965 474 965 q 249 938 309 965 q 157 865 189 910 q 126 767 126 820 q 149 669 126 711 q 231 593 171 627 q 403 530 290 560 q 651 420 567 486 q 734 238 734 355 q 691 103 734 160 q 571 16 647 47 q 399 -14 496 -14 z "},"Ś":{"ha":802,"x_min":68,"x_max":734,"o":"m 399 -14 q 234 11 320 -14 q 68 90 149 36 l 68 264 l 104 264 l 104 111 q 253 44 178 65 q 399 22 328 22 q 553 50 486 22 q 659 125 621 77 q 697 237 697 174 q 668 345 697 299 q 572 427 638 391 q 393 494 505 463 q 214 561 280 526 q 118 645 147 596 q 90 766 90 694 q 127 889 90 836 q 234 972 165 942 q 395 1002 303 1002 q 567 973 490 1002 q 702 897 644 945 l 702 738 l 665 738 l 665 876 q 543 943 612 920 q 395 965 474 965 q 249 938 309 965 q 157 865 189 910 q 126 767 126 820 q 149 669 126 711 q 231 593 171 627 q 403 530 290 560 q 651 420 567 486 q 734 238 734 355 q 691 103 734 160 q 571 16 647 47 q 399 -14 496 -14 m 361 1080 l 483 1236 l 526 1236 l 528 1233 l 393 1076 l 362 1076 l 361 1080 z "},"Š":{"ha":802,"x_min":68,"x_max":734,"o":"m 399 -14 q 234 11 320 -14 q 68 90 149 36 l 68 264 l 104 264 l 104 111 q 253 44 178 65 q 399 22 328 22 q 553 50 486 22 q 659 125 621 77 q 697 237 697 174 q 668 345 697 299 q 572 427 638 391 q 393 494 505 463 q 214 561 280 526 q 118 645 147 596 q 90 766 90 694 q 127 889 90 836 q 234 972 165 942 q 395 1002 303 1002 q 567 973 490 1002 q 702 897 644 945 l 702 738 l 665 738 l 665 876 q 543 943 612 920 q 395 965 474 965 q 249 938 309 965 q 157 865 189 910 q 126 767 126 820 q 149 669 126 711 q 231 593 171 627 q 403 530 290 560 q 651 420 567 486 q 734 238 734 355 q 691 103 734 160 q 571 16 647 47 q 399 -14 496 -14 m 572 1236 l 572 1225 l 425 1085 l 380 1085 l 231 1227 l 231 1236 l 271 1236 l 404 1110 l 532 1236 l 572 1236 z "},"Ş":{"ha":802,"x_min":68,"x_max":734,"o":"m 399 -14 q 234 11 320 -14 q 68 90 149 36 l 68 264 l 104 264 l 104 111 q 253 44 178 65 q 399 22 328 22 q 553 50 486 22 q 659 125 621 77 q 697 237 697 174 q 668 345 697 299 q 572 427 638 391 q 393 494 505 463 q 214 561 280 526 q 118 645 147 596 q 90 766 90 694 q 127 889 90 836 q 234 972 165 942 q 395 1002 303 1002 q 567 973 490 1002 q 702 897 644 945 l 702 738 l 665 738 l 665 876 q 543 943 612 920 q 395 965 474 965 q 249 938 309 965 q 157 865 189 910 q 126 767 126 820 q 149 669 126 711 q 231 593 171 627 q 403 530 290 560 q 651 420 567 486 q 734 238 734 355 q 691 103 734 160 q 571 16 647 47 q 399 -14 496 -14 m 321 -295 l 317 -262 q 439 -237 387 -262 q 491 -166 491 -213 q 460 -106 491 -123 q 349 -82 429 -89 l 366 0 l 402 0 l 395 -52 q 492 -82 456 -56 q 528 -166 528 -109 q 475 -260 528 -225 q 321 -295 421 -295 z "},"Ŝ":{"ha":802,"x_min":68,"x_max":734,"o":"m 399 -14 q 234 11 320 -14 q 68 90 149 36 l 68 264 l 104 264 l 104 111 q 253 44 178 65 q 399 22 328 22 q 553 50 486 22 q 659 125 621 77 q 697 237 697 174 q 668 345 697 299 q 572 427 638 391 q 393 494 505 463 q 214 561 280 526 q 118 645 147 596 q 90 766 90 694 q 127 889 90 836 q 234 972 165 942 q 395 1002 303 1002 q 567 973 490 1002 q 702 897 644 945 l 702 738 l 665 738 l 665 876 q 543 943 612 920 q 395 965 474 965 q 249 938 309 965 q 157 865 189 910 q 126 767 126 820 q 149 669 126 711 q 231 593 171 627 q 403 530 290 560 q 651 420 567 486 q 734 238 734 355 q 691 103 734 160 q 571 16 647 47 q 399 -14 496 -14 m 231 1085 l 231 1097 l 378 1236 l 422 1236 l 572 1094 l 572 1085 l 532 1085 l 399 1211 l 271 1085 l 231 1085 z "},"Ș":{"ha":802,"x_min":68,"x_max":734,"o":"m 399 -14 q 234 11 320 -14 q 68 90 149 36 l 68 264 l 104 264 l 104 111 q 253 44 178 65 q 399 22 328 22 q 553 50 486 22 q 659 125 621 77 q 697 237 697 174 q 668 345 697 299 q 572 427 638 391 q 393 494 505 463 q 214 561 280 526 q 118 645 147 596 q 90 766 90 694 q 127 889 90 836 q 234 972 165 942 q 395 1002 303 1002 q 567 973 490 1002 q 702 897 644 945 l 702 738 l 665 738 l 665 876 q 543 943 612 920 q 395 965 474 965 q 249 938 309 965 q 157 865 189 910 q 126 767 126 820 q 149 669 126 711 q 231 593 171 627 q 403 530 290 560 q 651 420 567 486 q 734 238 734 355 q 691 103 734 160 q 571 16 647 47 q 399 -14 496 -14 m 376 -360 l 351 -338 q 382 -282 372 -309 q 392 -217 392 -255 l 392 -173 l 429 -173 l 429 -216 q 414 -297 429 -261 q 376 -360 400 -332 z "},"ẞ":{"ha":921,"x_min":48,"x_max":875,"o":"m 48 0 l 48 37 l 159 37 l 159 951 l 48 951 l 48 987 l 833 987 l 833 951 l 195 951 l 195 37 l 306 37 l 306 0 l 48 0 m 581 -14 q 526 -10 553 -14 q 473 1 498 -6 l 484 37 q 530 26 506 30 q 581 22 555 22 q 770 85 703 22 q 838 258 838 148 q 761 462 838 396 q 547 528 684 528 l 515 528 l 515 566 l 800 970 l 833 951 l 541 536 l 541 563 q 730 528 656 563 q 839 425 804 492 q 875 261 875 358 q 838 114 875 176 q 734 19 800 52 q 581 -14 667 -14 z "},"Ə":{"ha":941,"x_min":53,"x_max":847,"o":"m 458 -14 q 244 36 335 -14 q 103 180 153 87 q 53 399 53 273 l 53 482 l 810 482 l 810 566 q 769 774 810 684 q 646 915 728 864 q 441 965 564 965 q 268 937 345 965 q 132 861 190 909 l 112 890 q 247 971 172 941 q 441 1002 321 1002 q 660 947 570 1002 q 799 795 751 892 q 847 566 847 697 l 847 450 q 797 209 847 314 q 659 45 746 104 q 458 -14 571 -14 m 458 22 q 643 77 565 22 q 765 227 722 132 q 807 441 808 322 l 806 445 l 90 445 l 90 396 q 134 204 90 288 q 261 71 178 119 q 458 22 344 22 z "},"T":{"ha":866,"x_min":54,"x_max":810,"o":"m 303 0 l 303 37 l 414 37 l 414 951 l 91 951 l 91 789 l 54 789 l 54 987 l 810 987 l 810 789 l 773 789 l 773 951 l 450 951 l 450 37 l 561 37 l 561 0 l 303 0 z "},"Ŧ":{"ha":866,"x_min":54,"x_max":810,"o":"m 303 0 l 303 37 l 414 37 l 414 951 l 91 951 l 91 789 l 54 789 l 54 987 l 810 987 l 810 789 l 773 789 l 773 951 l 450 951 l 450 37 l 561 37 l 561 0 l 303 0 m 256 480 l 256 517 l 610 517 l 610 480 l 256 480 z "},"Ť":{"ha":866,"x_min":54,"x_max":810,"o":"m 303 0 l 303 37 l 414 37 l 414 951 l 91 951 l 91 789 l 54 789 l 54 987 l 810 987 l 810 789 l 773 789 l 773 951 l 450 951 l 450 37 l 561 37 l 561 0 l 303 0 m 604 1236 l 604 1225 l 456 1085 l 412 1085 l 262 1227 l 262 1236 l 303 1236 l 435 1110 l 564 1236 l 604 1236 z "},"Ţ":{"ha":866,"x_min":54,"x_max":810,"o":"m 303 0 l 303 37 l 414 37 l 414 951 l 91 951 l 91 789 l 54 789 l 54 987 l 810 987 l 810 789 l 773 789 l 773 951 l 450 951 l 450 37 l 561 37 l 561 0 l 303 0 m 353 -295 l 349 -262 q 471 -237 419 -262 q 523 -166 523 -213 q 492 -106 523 -123 q 381 -82 461 -89 l 398 0 l 434 0 l 427 -52 q 524 -82 488 -56 q 560 -166 560 -109 q 507 -260 560 -225 q 353 -295 453 -295 z "},"Ț":{"ha":866,"x_min":54,"x_max":810,"o":"m 303 0 l 303 37 l 414 37 l 414 951 l 91 951 l 91 789 l 54 789 l 54 987 l 810 987 l 810 789 l 773 789 l 773 951 l 450 951 l 450 37 l 561 37 l 561 0 l 303 0 m 408 -360 l 382 -338 q 414 -282 404 -309 q 424 -217 424 -255 l 424 -173 l 460 -173 l 460 -216 q 446 -297 460 -261 q 408 -360 432 -332 z "},"U":{"ha":977,"x_min":41,"x_max":937,"o":"m 489 -14 q 312 24 388 -14 q 194 137 236 62 q 151 318 151 211 l 151 951 l 41 951 l 41 987 l 298 987 l 298 951 l 188 951 l 188 318 q 226 159 188 225 q 332 58 264 93 q 489 22 400 22 q 645 58 577 22 q 751 159 713 93 q 789 318 789 225 l 789 951 l 679 951 l 679 987 l 937 987 l 937 951 l 826 951 l 826 318 q 783 136 826 210 q 665 24 741 62 q 489 -14 589 -14 z "},"Ú":{"ha":977,"x_min":41,"x_max":937,"o":"m 489 -14 q 312 24 388 -14 q 194 137 236 62 q 151 318 151 211 l 151 951 l 41 951 l 41 987 l 298 987 l 298 951 l 188 951 l 188 318 q 226 159 188 225 q 332 58 264 93 q 489 22 400 22 q 645 58 577 22 q 751 159 713 93 q 789 318 789 225 l 789 951 l 679 951 l 679 987 l 937 987 l 937 951 l 826 951 l 826 318 q 783 136 826 210 q 665 24 741 62 q 489 -14 589 -14 m 448 1080 l 570 1236 l 614 1236 l 615 1233 l 480 1076 l 450 1076 l 448 1080 z "},"Ŭ":{"ha":977,"x_min":41,"x_max":937,"o":"m 489 -14 q 312 24 388 -14 q 194 137 236 62 q 151 318 151 211 l 151 951 l 41 951 l 41 987 l 298 987 l 298 951 l 188 951 l 188 318 q 226 159 188 225 q 332 58 264 93 q 489 22 400 22 q 645 58 577 22 q 751 159 713 93 q 789 318 789 225 l 789 951 l 679 951 l 679 987 l 937 987 l 937 951 l 826 951 l 826 318 q 783 136 826 210 q 665 24 741 62 q 489 -14 589 -14 m 490 1072 q 352 1117 402 1072 q 303 1232 302 1162 l 304 1236 l 340 1236 q 376 1144 340 1179 q 490 1109 412 1109 q 602 1145 564 1109 q 639 1236 639 1181 l 674 1236 l 675 1232 q 626 1117 675 1162 q 490 1072 576 1072 z "},"Û":{"ha":977,"x_min":41,"x_max":937,"o":"m 489 -14 q 312 24 388 -14 q 194 137 236 62 q 151 318 151 211 l 151 951 l 41 951 l 41 987 l 298 987 l 298 951 l 188 951 l 188 318 q 226 159 188 225 q 332 58 264 93 q 489 22 400 22 q 645 58 577 22 q 751 159 713 93 q 789 318 789 225 l 789 951 l 679 951 l 679 987 l 937 987 l 937 951 l 826 951 l 826 318 q 783 136 826 210 q 665 24 741 62 q 489 -14 589 -14 m 318 1085 l 318 1097 l 466 1236 l 510 1236 l 660 1094 l 660 1085 l 619 1085 l 487 1211 l 358 1085 l 318 1085 z "},"Ü":{"ha":977,"x_min":41,"x_max":937,"o":"m 489 -14 q 312 24 388 -14 q 194 137 236 62 q 151 318 151 211 l 151 951 l 41 951 l 41 987 l 298 987 l 298 951 l 188 951 l 188 318 q 226 159 188 225 q 332 58 264 93 q 489 22 400 22 q 645 58 577 22 q 751 159 713 93 q 789 318 789 225 l 789 951 l 679 951 l 679 987 l 937 987 l 937 951 l 826 951 l 826 318 q 783 136 826 210 q 665 24 741 62 q 489 -14 589 -14 m 572 1143 l 572 1236 l 621 1236 l 621 1143 l 572 1143 m 355 1143 l 355 1236 l 405 1236 l 405 1143 l 355 1143 z "},"Ụ":{"ha":977,"x_min":41,"x_max":937,"o":"m 489 -14 q 312 24 388 -14 q 194 137 236 62 q 151 318 151 211 l 151 951 l 41 951 l 41 987 l 298 987 l 298 951 l 188 951 l 188 318 q 226 159 188 225 q 332 58 264 93 q 489 22 400 22 q 645 58 577 22 q 751 159 713 93 q 789 318 789 225 l 789 951 l 679 951 l 679 987 l 937 987 l 937 951 l 826 951 l 826 318 q 783 136 826 210 q 665 24 741 62 q 489 -14 589 -14 m 465 -249 l 465 -154 l 513 -154 l 513 -249 l 465 -249 z "},"Ù":{"ha":977,"x_min":41,"x_max":937,"o":"m 489 -14 q 312 24 388 -14 q 194 137 236 62 q 151 318 151 211 l 151 951 l 41 951 l 41 987 l 298 987 l 298 951 l 188 951 l 188 318 q 226 159 188 225 q 332 58 264 93 q 489 22 400 22 q 645 58 577 22 q 751 159 713 93 q 789 318 789 225 l 789 951 l 679 951 l 679 987 l 937 987 l 937 951 l 826 951 l 826 318 q 783 136 826 210 q 665 24 741 62 q 489 -14 589 -14 m 530 1080 l 528 1076 l 498 1076 l 363 1233 l 364 1236 l 408 1236 l 530 1080 z "},"Ủ":{"ha":977,"x_min":41,"x_max":937,"o":"m 489 -14 q 312 24 388 -14 q 194 137 236 62 q 151 318 151 211 l 151 951 l 41 951 l 41 987 l 298 987 l 298 951 l 188 951 l 188 318 q 226 159 188 225 q 332 58 264 93 q 489 22 400 22 q 645 58 577 22 q 751 159 713 93 q 789 318 789 225 l 789 951 l 679 951 l 679 987 l 937 987 l 937 951 l 826 951 l 826 318 q 783 136 826 210 q 665 24 741 62 q 489 -14 589 -14 m 435 1055 l 435 1122 q 524 1141 499 1127 q 549 1182 549 1155 q 507 1235 549 1219 q 403 1251 465 1251 l 408 1284 q 539 1257 490 1284 q 587 1182 587 1230 q 556 1118 587 1141 q 467 1091 525 1095 l 467 1055 l 435 1055 z "},"Ư":{"ha":1044,"x_min":41,"x_max":1019,"o":"m 489 -14 q 312 24 388 -14 q 194 137 236 62 q 151 318 151 211 l 151 951 l 41 951 l 41 987 l 298 987 l 298 951 l 188 951 l 188 318 q 226 159 188 225 q 332 58 264 93 q 489 22 400 22 q 645 58 577 22 q 751 159 713 93 q 789 318 789 225 l 789 951 l 679 951 l 679 987 l 826 987 l 826 318 q 783 136 826 210 q 665 24 741 62 q 489 -14 589 -14 m 813 809 l 817 852 q 948 898 912 849 q 983 1052 983 947 l 1017 1052 l 1017 1048 q 972 870 1019 930 q 813 809 924 810 z "},"Ứ":{"ha":1044,"x_min":41,"x_max":1019,"o":"m 489 -14 q 312 24 388 -14 q 194 137 236 62 q 151 318 151 211 l 151 951 l 41 951 l 41 987 l 298 987 l 298 951 l 188 951 l 188 318 q 226 159 188 225 q 332 58 264 93 q 489 22 400 22 q 645 58 577 22 q 751 159 713 93 q 789 318 789 225 l 789 951 l 679 951 l 679 987 l 826 987 l 826 318 q 783 136 826 210 q 665 24 741 62 q 489 -14 589 -14 m 813 809 l 817 852 q 948 898 912 849 q 983 1052 983 947 l 1017 1052 l 1017 1048 q 972 870 1019 930 q 813 809 924 810 m 445 1080 l 567 1236 l 610 1236 l 612 1233 l 477 1076 l 446 1076 l 445 1080 z "},"Ự":{"ha":1044,"x_min":41,"x_max":1019,"o":"m 489 -14 q 312 24 388 -14 q 194 137 236 62 q 151 318 151 211 l 151 951 l 41 951 l 41 987 l 298 987 l 298 951 l 188 951 l 188 318 q 226 159 188 225 q 332 58 264 93 q 489 22 400 22 q 645 58 577 22 q 751 159 713 93 q 789 318 789 225 l 789 951 l 679 951 l 679 987 l 826 987 l 826 318 q 783 136 826 210 q 665 24 741 62 q 489 -14 589 -14 m 813 809 l 817 852 q 948 898 912 849 q 983 1052 983 947 l 1017 1052 l 1017 1048 q 972 870 1019 930 q 813 809 924 810 m 461 -249 l 461 -154 l 510 -154 l 510 -249 l 461 -249 z "},"Ừ":{"ha":1044,"x_min":41,"x_max":1019,"o":"m 489 -14 q 312 24 388 -14 q 194 137 236 62 q 151 318 151 211 l 151 951 l 41 951 l 41 987 l 298 987 l 298 951 l 188 951 l 188 318 q 226 159 188 225 q 332 58 264 93 q 489 22 400 22 q 645 58 577 22 q 751 159 713 93 q 789 318 789 225 l 789 951 l 679 951 l 679 987 l 826 987 l 826 318 q 783 136 826 210 q 665 24 741 62 q 489 -14 589 -14 m 813 809 l 817 852 q 948 898 912 849 q 983 1052 983 947 l 1017 1052 l 1017 1048 q 972 870 1019 930 q 813 809 924 810 m 526 1080 l 525 1076 l 494 1076 l 359 1233 l 361 1236 l 404 1236 l 526 1080 z "},"Ử":{"ha":1044,"x_min":41,"x_max":1019,"o":"m 489 -14 q 312 24 388 -14 q 194 137 236 62 q 151 318 151 211 l 151 951 l 41 951 l 41 987 l 298 987 l 298 951 l 188 951 l 188 318 q 226 159 188 225 q 332 58 264 93 q 489 22 400 22 q 645 58 577 22 q 751 159 713 93 q 789 318 789 225 l 789 951 l 679 951 l 679 987 l 826 987 l 826 318 q 783 136 826 210 q 665 24 741 62 q 489 -14 589 -14 m 813 809 l 817 852 q 948 898 912 849 q 983 1052 983 947 l 1017 1052 l 1017 1048 q 972 870 1019 930 q 813 809 924 810 m 431 1055 l 431 1122 q 521 1141 496 1127 q 546 1182 546 1155 q 504 1235 546 1219 q 399 1251 462 1251 l 404 1284 q 535 1257 487 1284 q 584 1182 584 1230 q 553 1118 584 1141 q 464 1091 522 1095 l 464 1055 l 431 1055 z "},"Ữ":{"ha":1044,"x_min":41,"x_max":1019,"o":"m 489 -14 q 312 24 388 -14 q 194 137 236 62 q 151 318 151 211 l 151 951 l 41 951 l 41 987 l 298 987 l 298 951 l 188 951 l 188 318 q 226 159 188 225 q 332 58 264 93 q 489 22 400 22 q 645 58 577 22 q 751 159 713 93 q 789 318 789 225 l 789 951 l 679 951 l 679 987 l 826 987 l 826 318 q 783 136 826 210 q 665 24 741 62 q 489 -14 589 -14 m 813 809 l 817 852 q 948 898 912 849 q 983 1052 983 947 l 1017 1052 l 1017 1048 q 972 870 1019 930 q 813 809 924 810 m 304 1109 l 269 1109 q 284 1174 269 1146 q 325 1217 299 1201 q 380 1232 350 1232 q 457 1211 420 1232 q 528 1169 494 1190 q 591 1147 562 1147 q 643 1171 619 1147 q 666 1236 666 1194 l 702 1236 q 687 1171 702 1200 q 648 1127 672 1143 q 593 1111 623 1111 q 518 1132 555 1111 q 446 1175 481 1154 q 380 1196 412 1196 q 328 1174 351 1196 q 304 1109 304 1152 z "},"Ű":{"ha":977,"x_min":41,"x_max":937,"o":"m 489 -14 q 312 24 388 -14 q 194 137 236 62 q 151 318 151 211 l 151 951 l 41 951 l 41 987 l 298 987 l 298 951 l 188 951 l 188 318 q 226 159 188 225 q 332 58 264 93 q 489 22 400 22 q 645 58 577 22 q 751 159 713 93 q 789 318 789 225 l 789 951 l 679 951 l 679 987 l 937 987 l 937 951 l 826 951 l 826 318 q 783 136 826 210 q 665 24 741 62 q 489 -14 589 -14 m 512 1076 l 511 1080 l 656 1236 l 702 1236 l 703 1232 l 547 1076 l 512 1076 m 353 1078 l 351 1082 l 473 1236 l 516 1236 l 518 1232 l 385 1078 l 353 1078 z "},"Ū":{"ha":977,"x_min":41,"x_max":937,"o":"m 489 -14 q 312 24 388 -14 q 194 137 236 62 q 151 318 151 211 l 151 951 l 41 951 l 41 987 l 298 987 l 298 951 l 188 951 l 188 318 q 226 159 188 225 q 332 58 264 93 q 489 22 400 22 q 645 58 577 22 q 751 159 713 93 q 789 318 789 225 l 789 951 l 679 951 l 679 987 l 937 987 l 937 951 l 826 951 l 826 318 q 783 136 826 210 q 665 24 741 62 q 489 -14 589 -14 m 276 1141 l 276 1177 l 701 1177 l 701 1141 l 276 1141 z "},"Ų":{"ha":977,"x_min":41,"x_max":937,"o":"m 489 -14 q 312 24 388 -14 q 194 137 236 62 q 151 318 151 211 l 151 951 l 41 951 l 41 987 l 298 987 l 298 951 l 188 951 l 188 318 q 226 159 188 225 q 332 58 264 93 q 489 22 400 22 q 645 58 577 22 q 751 159 713 93 q 789 318 789 225 l 789 951 l 679 951 l 679 987 l 937 987 l 937 951 l 826 951 l 826 318 q 783 136 826 210 q 665 24 741 62 q 489 -14 589 -14 m 515 -287 q 433 -256 465 -287 q 401 -170 401 -225 q 428 -83 401 -125 q 520 14 455 -41 l 555 0 q 466 -90 495 -54 q 437 -170 437 -126 q 452 -222 437 -195 q 515 -250 467 -250 q 553 -243 536 -250 q 587 -224 570 -236 l 597 -257 q 561 -278 581 -269 q 515 -287 541 -287 z "},"Ů":{"ha":977,"x_min":41,"x_max":937,"o":"m 489 -14 q 312 24 388 -14 q 194 137 236 62 q 151 318 151 211 l 151 951 l 41 951 l 41 987 l 298 987 l 298 951 l 188 951 l 188 318 q 226 159 188 225 q 332 58 264 93 q 489 22 400 22 q 645 58 577 22 q 751 159 713 93 q 789 318 789 225 l 789 951 l 679 951 l 679 987 l 937 987 l 937 951 l 826 951 l 826 318 q 783 136 826 210 q 665 24 741 62 q 489 -14 589 -14 m 489 1000 q 407 1033 440 1000 q 373 1116 373 1066 q 407 1200 373 1166 q 489 1234 440 1234 q 571 1200 537 1234 q 605 1116 605 1166 q 571 1033 605 1066 q 489 1000 537 1000 m 489 1037 q 546 1059 524 1037 q 568 1116 568 1080 q 546 1174 568 1152 q 489 1197 524 1197 q 432 1174 454 1197 q 410 1116 410 1152 q 432 1059 410 1080 q 489 1037 454 1037 z "},"Ũ":{"ha":977,"x_min":41,"x_max":937,"o":"m 489 -14 q 312 24 388 -14 q 194 137 236 62 q 151 318 151 211 l 151 951 l 41 951 l 41 987 l 298 987 l 298 951 l 188 951 l 188 318 q 226 159 188 225 q 332 58 264 93 q 489 22 400 22 q 645 58 577 22 q 751 159 713 93 q 789 318 789 225 l 789 951 l 679 951 l 679 987 l 937 987 l 937 951 l 826 951 l 826 318 q 783 136 826 210 q 665 24 741 62 q 489 -14 589 -14 m 308 1109 l 272 1109 q 287 1174 272 1146 q 328 1217 302 1201 q 384 1232 353 1232 q 460 1211 423 1232 q 531 1169 497 1190 q 595 1147 565 1147 q 646 1171 623 1147 q 669 1236 669 1194 l 705 1236 q 690 1171 705 1200 q 651 1127 675 1143 q 597 1111 627 1111 q 521 1132 558 1111 q 450 1175 484 1154 q 383 1196 415 1196 q 331 1174 354 1196 q 308 1109 308 1152 z "},"V":{"ha":972,"x_min":37,"x_max":938,"o":"m 465 0 l 110 951 l 37 951 l 37 987 l 254 987 l 254 951 l 150 951 l 468 96 l 486 43 l 490 43 l 507 96 l 825 951 l 722 951 l 722 987 l 938 987 l 938 951 l 865 951 l 510 0 l 465 0 z "},"W":{"ha":1356,"x_min":39,"x_max":1331,"o":"m 351 0 l 107 951 l 39 951 l 39 987 l 256 987 l 256 951 l 147 951 l 330 224 l 372 68 l 376 68 l 419 224 l 666 987 l 707 987 l 952 224 l 994 68 l 998 68 l 1042 224 l 1223 951 l 1115 951 l 1115 987 l 1331 987 l 1331 951 l 1263 951 l 1020 0 l 979 0 l 720 823 l 688 922 l 684 922 l 652 823 l 392 0 l 351 0 z "},"Ẃ":{"ha":1356,"x_min":39,"x_max":1331,"o":"m 351 0 l 107 951 l 39 951 l 39 987 l 256 987 l 256 951 l 147 951 l 330 224 l 372 68 l 376 68 l 419 224 l 666 987 l 707 987 l 952 224 l 994 68 l 998 68 l 1042 224 l 1223 951 l 1115 951 l 1115 987 l 1331 987 l 1331 951 l 1263 951 l 1020 0 l 979 0 l 720 823 l 688 922 l 684 922 l 652 823 l 392 0 l 351 0 m 646 1080 l 768 1236 l 812 1236 l 813 1233 l 678 1076 l 648 1076 l 646 1080 z "},"Ŵ":{"ha":1356,"x_min":39,"x_max":1331,"o":"m 351 0 l 107 951 l 39 951 l 39 987 l 256 987 l 256 951 l 147 951 l 330 224 l 372 68 l 376 68 l 419 224 l 666 987 l 707 987 l 952 224 l 994 68 l 998 68 l 1042 224 l 1223 951 l 1115 951 l 1115 987 l 1331 987 l 1331 951 l 1263 951 l 1020 0 l 979 0 l 720 823 l 688 922 l 684 922 l 652 823 l 392 0 l 351 0 m 516 1085 l 516 1097 l 664 1236 l 708 1236 l 858 1094 l 858 1085 l 817 1085 l 685 1211 l 556 1085 l 516 1085 z "},"Ẅ":{"ha":1356,"x_min":39,"x_max":1331,"o":"m 351 0 l 107 951 l 39 951 l 39 987 l 256 987 l 256 951 l 147 951 l 330 224 l 372 68 l 376 68 l 419 224 l 666 987 l 707 987 l 952 224 l 994 68 l 998 68 l 1042 224 l 1223 951 l 1115 951 l 1115 987 l 1331 987 l 1331 951 l 1263 951 l 1020 0 l 979 0 l 720 823 l 688 922 l 684 922 l 652 823 l 392 0 l 351 0 m 770 1143 l 770 1236 l 819 1236 l 819 1143 l 770 1143 m 553 1143 l 553 1236 l 603 1236 l 603 1143 l 553 1143 z "},"Ẁ":{"ha":1356,"x_min":39,"x_max":1331,"o":"m 351 0 l 107 951 l 39 951 l 39 987 l 256 987 l 256 951 l 147 951 l 330 224 l 372 68 l 376 68 l 419 224 l 666 987 l 707 987 l 952 224 l 994 68 l 998 68 l 1042 224 l 1223 951 l 1115 951 l 1115 987 l 1331 987 l 1331 951 l 1263 951 l 1020 0 l 979 0 l 720 823 l 688 922 l 684 922 l 652 823 l 392 0 l 351 0 m 728 1080 l 726 1076 l 696 1076 l 561 1233 l 562 1236 l 606 1236 l 728 1080 z "},"X":{"ha":939,"x_min":39,"x_max":900,"o":"m 39 0 l 39 37 l 117 37 l 446 504 l 130 951 l 52 951 l 52 987 l 288 987 l 288 951 l 176 951 l 469 532 l 762 951 l 650 951 l 650 987 l 886 987 l 886 951 l 808 951 l 492 504 l 822 37 l 900 37 l 900 0 l 665 0 l 665 37 l 777 37 l 469 475 l 161 37 l 273 37 l 273 0 l 39 0 z "},"Y":{"ha":969,"x_min":37,"x_max":935,"o":"m 357 0 l 357 37 l 467 37 l 467 375 l 118 951 l 37 951 l 37 987 l 258 987 l 258 951 l 163 951 l 467 439 l 485 405 l 486 406 l 503 439 l 809 951 l 713 951 l 713 987 l 935 987 l 935 951 l 853 951 l 505 375 l 505 37 l 615 37 l 615 0 l 357 0 z "},"Ý":{"ha":969,"x_min":37,"x_max":935,"o":"m 357 0 l 357 37 l 467 37 l 467 375 l 118 951 l 37 951 l 37 987 l 258 987 l 258 951 l 163 951 l 467 439 l 485 405 l 486 406 l 503 439 l 809 951 l 713 951 l 713 987 l 935 987 l 935 951 l 853 951 l 505 375 l 505 37 l 615 37 l 615 0 l 357 0 m 444 1080 l 566 1236 l 610 1236 l 611 1233 l 476 1076 l 446 1076 l 444 1080 z "},"Ŷ":{"ha":969,"x_min":37,"x_max":935,"o":"m 357 0 l 357 37 l 467 37 l 467 375 l 118 951 l 37 951 l 37 987 l 258 987 l 258 951 l 163 951 l 467 439 l 485 405 l 486 406 l 503 439 l 809 951 l 713 951 l 713 987 l 935 987 l 935 951 l 853 951 l 505 375 l 505 37 l 615 37 l 615 0 l 357 0 m 314 1085 l 314 1097 l 462 1236 l 506 1236 l 656 1094 l 656 1085 l 615 1085 l 483 1211 l 354 1085 l 314 1085 z "},"Ÿ":{"ha":969,"x_min":37,"x_max":935,"o":"m 357 0 l 357 37 l 467 37 l 467 375 l 118 951 l 37 951 l 37 987 l 258 987 l 258 951 l 163 951 l 467 439 l 485 405 l 486 406 l 503 439 l 809 951 l 713 951 l 713 987 l 935 987 l 935 951 l 853 951 l 505 375 l 505 37 l 615 37 l 615 0 l 357 0 m 568 1143 l 568 1236 l 617 1236 l 617 1143 l 568 1143 m 351 1143 l 351 1236 l 401 1236 l 401 1143 l 351 1143 z "},"Ỵ":{"ha":969,"x_min":37,"x_max":935,"o":"m 357 0 l 357 37 l 467 37 l 467 375 l 118 951 l 37 951 l 37 987 l 258 987 l 258 951 l 163 951 l 467 439 l 485 405 l 486 406 l 503 439 l 809 951 l 713 951 l 713 987 l 935 987 l 935 951 l 853 951 l 505 375 l 505 37 l 615 37 l 615 0 l 357 0 m 460 -249 l 460 -154 l 509 -154 l 509 -249 l 460 -249 z "},"Ỳ":{"ha":969,"x_min":37,"x_max":935,"o":"m 357 0 l 357 37 l 467 37 l 467 375 l 118 951 l 37 951 l 37 987 l 258 987 l 258 951 l 163 951 l 467 439 l 485 405 l 486 406 l 503 439 l 809 951 l 713 951 l 713 987 l 935 987 l 935 951 l 853 951 l 505 375 l 505 37 l 615 37 l 615 0 l 357 0 m 526 1080 l 524 1076 l 494 1076 l 359 1233 l 360 1236 l 404 1236 l 526 1080 z "},"Ỷ":{"ha":969,"x_min":37,"x_max":935,"o":"m 357 0 l 357 37 l 467 37 l 467 375 l 118 951 l 37 951 l 37 987 l 258 987 l 258 951 l 163 951 l 467 439 l 485 405 l 486 406 l 503 439 l 809 951 l 713 951 l 713 987 l 935 987 l 935 951 l 853 951 l 505 375 l 505 37 l 615 37 l 615 0 l 357 0 m 431 1055 l 431 1122 q 520 1141 495 1127 q 545 1182 545 1155 q 503 1235 545 1219 q 399 1251 461 1251 l 404 1284 q 535 1257 486 1284 q 583 1182 583 1230 q 552 1118 583 1141 q 463 1091 521 1095 l 463 1055 l 431 1055 z "},"Ỹ":{"ha":969,"x_min":37,"x_max":935,"o":"m 357 0 l 357 37 l 467 37 l 467 375 l 118 951 l 37 951 l 37 987 l 258 987 l 258 951 l 163 951 l 467 439 l 485 405 l 486 406 l 503 439 l 809 951 l 713 951 l 713 987 l 935 987 l 935 951 l 853 951 l 505 375 l 505 37 l 615 37 l 615 0 l 357 0 m 304 1109 l 268 1109 q 283 1174 268 1146 q 324 1217 298 1201 q 380 1232 349 1232 q 456 1211 419 1232 q 527 1169 493 1190 q 591 1147 561 1147 q 642 1171 618 1147 q 665 1236 665 1194 l 701 1236 q 686 1171 701 1200 q 647 1127 671 1143 q 593 1111 623 1111 q 517 1132 554 1111 q 446 1175 480 1154 q 379 1196 411 1196 q 327 1174 350 1196 q 304 1109 304 1152 z "},"Z":{"ha":827,"x_min":62,"x_max":765,"o":"m 62 0 l 62 30 l 692 951 l 126 951 l 126 789 l 90 789 l 90 987 l 743 987 l 743 962 l 113 37 l 728 37 l 728 199 l 765 199 l 765 0 l 62 0 z "},"Ź":{"ha":827,"x_min":62,"x_max":765,"o":"m 62 0 l 62 30 l 692 951 l 126 951 l 126 789 l 90 789 l 90 987 l 743 987 l 743 962 l 113 37 l 728 37 l 728 199 l 765 199 l 765 0 l 62 0 m 373 1080 l 495 1236 l 538 1236 l 540 1233 l 405 1076 l 374 1076 l 373 1080 z "},"Ž":{"ha":827,"x_min":62,"x_max":765,"o":"m 62 0 l 62 30 l 692 951 l 126 951 l 126 789 l 90 789 l 90 987 l 743 987 l 743 962 l 113 37 l 728 37 l 728 199 l 765 199 l 765 0 l 62 0 m 585 1236 l 585 1225 l 437 1085 l 393 1085 l 243 1227 l 243 1236 l 283 1236 l 416 1110 l 545 1236 l 585 1236 z "},"Ż":{"ha":827,"x_min":62,"x_max":765,"o":"m 62 0 l 62 30 l 692 951 l 126 951 l 126 789 l 90 789 l 90 987 l 743 987 l 743 962 l 113 37 l 728 37 l 728 199 l 765 199 l 765 0 l 62 0 m 389 1141 l 389 1236 l 437 1236 l 437 1141 l 389 1141 z "},"a":{"ha":757,"x_min":71,"x_max":709,"o":"m 283 -14 q 129 41 186 -14 q 71 186 71 96 q 110 302 71 252 q 222 381 150 353 q 392 410 294 410 l 561 410 l 561 503 q 508 653 561 595 q 342 711 455 711 q 233 689 282 711 q 149 635 183 667 l 149 515 l 112 515 l 112 654 q 213 722 157 696 q 342 747 269 747 q 533 681 469 747 q 597 502 597 615 l 597 148 q 600 92 597 119 q 608 37 602 64 l 709 37 l 709 0 l 576 0 q 564 74 567 48 q 561 135 561 99 q 447 27 519 68 q 283 -14 375 -14 m 283 22 q 444 68 366 22 q 561 198 522 115 l 561 372 l 394 372 q 186 320 264 372 q 107 183 107 267 q 157 68 107 115 q 283 22 206 22 z "},"á":{"ha":757,"x_min":71,"x_max":709,"o":"m 283 -14 q 129 41 186 -14 q 71 186 71 96 q 110 302 71 252 q 222 381 150 353 q 392 410 294 410 l 561 410 l 561 503 q 508 653 561 595 q 342 711 455 711 q 233 689 282 711 q 149 635 183 667 l 149 515 l 112 515 l 112 654 q 213 722 157 696 q 342 747 269 747 q 533 681 469 747 q 597 502 597 615 l 597 148 q 600 92 597 119 q 608 37 602 64 l 709 37 l 709 0 l 576 0 q 564 74 567 48 q 561 135 561 99 q 447 27 519 68 q 283 -14 375 -14 m 283 22 q 444 68 366 22 q 561 198 522 115 l 561 372 l 394 372 q 186 320 264 372 q 107 183 107 267 q 157 68 107 115 q 283 22 206 22 m 309 901 l 431 1058 l 474 1058 l 475 1055 l 340 898 l 310 898 l 309 901 z "},"ă":{"ha":757,"x_min":71,"x_max":709,"o":"m 283 -14 q 129 41 186 -14 q 71 186 71 96 q 110 302 71 252 q 222 381 150 353 q 392 410 294 410 l 561 410 l 561 503 q 508 653 561 595 q 342 711 455 711 q 233 689 282 711 q 149 635 183 667 l 149 515 l 112 515 l 112 654 q 213 722 157 696 q 342 747 269 747 q 533 681 469 747 q 597 502 597 615 l 597 148 q 600 92 597 119 q 608 37 602 64 l 709 37 l 709 0 l 576 0 q 564 74 567 48 q 561 135 561 99 q 447 27 519 68 q 283 -14 375 -14 m 283 22 q 444 68 366 22 q 561 198 522 115 l 561 372 l 394 372 q 186 320 264 372 q 107 183 107 267 q 157 68 107 115 q 283 22 206 22 m 350 894 q 213 939 262 894 q 163 1054 163 983 l 165 1058 l 200 1058 q 236 966 200 1001 q 350 930 272 930 q 462 966 425 930 q 499 1058 499 1002 l 534 1058 l 536 1054 q 486 939 536 983 q 350 894 437 894 z "},"ắ":{"ha":757,"x_min":71,"x_max":709,"o":"m 283 -14 q 129 41 186 -14 q 71 186 71 96 q 110 302 71 252 q 222 381 150 353 q 392 410 294 410 l 561 410 l 561 503 q 508 653 561 595 q 342 711 455 711 q 233 689 282 711 q 149 635 183 667 l 149 515 l 112 515 l 112 654 q 213 722 157 696 q 342 747 269 747 q 533 681 469 747 q 597 502 597 615 l 597 148 q 600 92 597 119 q 608 37 602 64 l 709 37 l 709 0 l 576 0 q 564 74 567 48 q 561 135 561 99 q 447 27 519 68 q 283 -14 375 -14 m 283 22 q 444 68 366 22 q 561 198 522 115 l 561 372 l 394 372 q 186 320 264 372 q 107 183 107 267 q 157 68 107 115 q 283 22 206 22 m 350 857 q 213 898 262 857 q 163 1004 163 939 l 165 1008 l 200 1008 q 236 924 200 956 q 350 892 272 892 q 462 925 425 892 q 499 1008 499 958 l 534 1008 l 536 1004 q 486 897 536 938 q 350 857 437 857 m 315 1019 l 410 1164 l 453 1164 l 454 1160 l 347 1015 l 317 1015 l 315 1019 z "},"ặ":{"ha":757,"x_min":71,"x_max":709,"o":"m 283 -14 q 129 41 186 -14 q 71 186 71 96 q 110 302 71 252 q 222 381 150 353 q 392 410 294 410 l 561 410 l 561 503 q 508 653 561 595 q 342 711 455 711 q 233 689 282 711 q 149 635 183 667 l 149 515 l 112 515 l 112 654 q 213 722 157 696 q 342 747 269 747 q 533 681 469 747 q 597 502 597 615 l 597 148 q 600 92 597 119 q 608 37 602 64 l 709 37 l 709 0 l 576 0 q 564 74 567 48 q 561 135 561 99 q 447 27 519 68 q 283 -14 375 -14 m 283 22 q 444 68 366 22 q 561 198 522 115 l 561 372 l 394 372 q 186 320 264 372 q 107 183 107 267 q 157 68 107 115 q 283 22 206 22 m 350 894 q 213 939 262 894 q 163 1054 163 983 l 165 1058 l 200 1058 q 236 966 200 1001 q 350 930 272 930 q 462 966 425 930 q 499 1058 499 1002 l 534 1058 l 536 1054 q 486 939 536 983 q 350 894 437 894 m 340 -249 l 340 -154 l 389 -154 l 389 -249 l 340 -249 z "},"ằ":{"ha":757,"x_min":71,"x_max":709,"o":"m 283 -14 q 129 41 186 -14 q 71 186 71 96 q 110 302 71 252 q 222 381 150 353 q 392 410 294 410 l 561 410 l 561 503 q 508 653 561 595 q 342 711 455 711 q 233 689 282 711 q 149 635 183 667 l 149 515 l 112 515 l 112 654 q 213 722 157 696 q 342 747 269 747 q 533 681 469 747 q 597 502 597 615 l 597 148 q 600 92 597 119 q 608 37 602 64 l 709 37 l 709 0 l 576 0 q 564 74 567 48 q 561 135 561 99 q 447 27 519 68 q 283 -14 375 -14 m 283 22 q 444 68 366 22 q 561 198 522 115 l 561 372 l 394 372 q 186 320 264 372 q 107 183 107 267 q 157 68 107 115 q 283 22 206 22 m 349 857 q 212 897 262 857 q 163 1004 163 938 l 164 1008 l 199 1008 q 237 925 199 958 q 349 892 275 892 q 463 924 427 892 q 498 1008 498 956 l 534 1008 l 535 1004 q 486 898 536 939 q 349 857 436 857 m 383 1019 l 382 1015 l 351 1015 l 244 1160 l 245 1164 l 289 1164 l 383 1019 z "},"ẳ":{"ha":757,"x_min":71,"x_max":709,"o":"m 283 -14 q 129 41 186 -14 q 71 186 71 96 q 110 302 71 252 q 222 381 150 353 q 392 410 294 410 l 561 410 l 561 503 q 508 653 561 595 q 342 711 455 711 q 233 689 282 711 q 149 635 183 667 l 149 515 l 112 515 l 112 654 q 213 722 157 696 q 342 747 269 747 q 533 681 469 747 q 597 502 597 615 l 597 148 q 600 92 597 119 q 608 37 602 64 l 709 37 l 709 0 l 576 0 q 564 74 567 48 q 561 135 561 99 q 447 27 519 68 q 283 -14 375 -14 m 283 22 q 444 68 366 22 q 561 198 522 115 l 561 372 l 394 372 q 186 320 264 372 q 107 183 107 267 q 157 68 107 115 q 283 22 206 22 m 350 857 q 213 898 262 857 q 163 1004 163 939 l 165 1008 l 200 1008 q 236 924 200 956 q 350 892 272 892 q 462 925 425 892 q 499 1008 499 958 l 534 1008 l 536 1004 q 486 897 536 938 q 350 857 437 857 m 316 1010 l 316 1074 q 400 1090 374 1078 q 426 1128 426 1103 q 391 1174 426 1160 q 291 1187 357 1187 l 296 1221 q 422 1196 381 1221 q 464 1128 464 1171 q 432 1067 464 1088 q 349 1043 401 1046 l 349 1010 l 316 1010 z "},"ẵ":{"ha":757,"x_min":71,"x_max":709,"o":"m 283 -14 q 129 41 186 -14 q 71 186 71 96 q 110 302 71 252 q 222 381 150 353 q 392 410 294 410 l 561 410 l 561 503 q 508 653 561 595 q 342 711 455 711 q 233 689 282 711 q 149 635 183 667 l 149 515 l 112 515 l 112 654 q 213 722 157 696 q 342 747 269 747 q 533 681 469 747 q 597 502 597 615 l 597 148 q 600 92 597 119 q 608 37 602 64 l 709 37 l 709 0 l 576 0 q 564 74 567 48 q 561 135 561 99 q 447 27 519 68 q 283 -14 375 -14 m 283 22 q 444 68 366 22 q 561 198 522 115 l 561 372 l 394 372 q 186 320 264 372 q 107 183 107 267 q 157 68 107 115 q 283 22 206 22 m 350 857 q 213 898 262 857 q 163 1004 163 939 l 165 1008 l 200 1008 q 236 924 200 956 q 350 892 272 892 q 462 925 425 892 q 499 1008 499 958 l 534 1008 l 536 1004 q 486 897 536 938 q 350 857 437 857 m 199 1072 l 166 1072 q 180 1131 166 1106 q 216 1171 193 1156 q 265 1185 238 1185 q 331 1166 299 1185 q 392 1128 363 1147 q 448 1109 422 1109 q 492 1131 471 1109 q 512 1189 512 1152 l 545 1188 q 533 1128 547 1154 q 498 1088 520 1103 q 449 1074 475 1074 q 384 1093 416 1074 q 322 1131 352 1112 q 264 1149 292 1149 q 219 1129 239 1149 q 199 1072 199 1109 z "},"â":{"ha":757,"x_min":71,"x_max":709,"o":"m 283 -14 q 129 41 186 -14 q 71 186 71 96 q 110 302 71 252 q 222 381 150 353 q 392 410 294 410 l 561 410 l 561 503 q 508 653 561 595 q 342 711 455 711 q 233 689 282 711 q 149 635 183 667 l 149 515 l 112 515 l 112 654 q 213 722 157 696 q 342 747 269 747 q 533 681 469 747 q 597 502 597 615 l 597 148 q 600 92 597 119 q 608 37 602 64 l 709 37 l 709 0 l 576 0 q 564 74 567 48 q 561 135 561 99 q 447 27 519 68 q 283 -14 375 -14 m 283 22 q 444 68 366 22 q 561 198 522 115 l 561 372 l 394 372 q 186 320 264 372 q 107 183 107 267 q 157 68 107 115 q 283 22 206 22 m 178 907 l 178 918 l 326 1058 l 370 1058 l 520 916 l 520 907 l 479 907 l 347 1033 l 218 907 l 178 907 z "},"ấ":{"ha":757,"x_min":71,"x_max":709,"o":"m 283 -14 q 129 41 186 -14 q 71 186 71 96 q 110 302 71 252 q 222 381 150 353 q 392 410 294 410 l 561 410 l 561 503 q 508 653 561 595 q 342 711 455 711 q 233 689 282 711 q 149 635 183 667 l 149 515 l 112 515 l 112 654 q 213 722 157 696 q 342 747 269 747 q 533 681 469 747 q 597 502 597 615 l 597 148 q 600 92 597 119 q 608 37 602 64 l 709 37 l 709 0 l 576 0 q 564 74 567 48 q 561 135 561 99 q 447 27 519 68 q 283 -14 375 -14 m 283 22 q 444 68 366 22 q 561 198 522 115 l 561 372 l 394 372 q 186 320 264 372 q 107 183 107 267 q 157 68 107 115 q 283 22 206 22 m 177 874 l 177 886 l 328 1012 l 372 1012 l 524 883 l 524 874 l 481 874 l 349 985 l 220 874 l 177 874 m 446 1019 l 540 1164 l 583 1164 l 585 1160 l 477 1015 l 447 1015 l 446 1019 z "},"ậ":{"ha":757,"x_min":71,"x_max":709,"o":"m 283 -14 q 129 41 186 -14 q 71 186 71 96 q 110 302 71 252 q 222 381 150 353 q 392 410 294 410 l 561 410 l 561 503 q 508 653 561 595 q 342 711 455 711 q 233 689 282 711 q 149 635 183 667 l 149 515 l 112 515 l 112 654 q 213 722 157 696 q 342 747 269 747 q 533 681 469 747 q 597 502 597 615 l 597 148 q 600 92 597 119 q 608 37 602 64 l 709 37 l 709 0 l 576 0 q 564 74 567 48 q 561 135 561 99 q 447 27 519 68 q 283 -14 375 -14 m 283 22 q 444 68 366 22 q 561 198 522 115 l 561 372 l 394 372 q 186 320 264 372 q 107 183 107 267 q 157 68 107 115 q 283 22 206 22 m 178 907 l 178 918 l 326 1058 l 370 1058 l 520 916 l 520 907 l 479 907 l 347 1033 l 218 907 l 178 907 m 340 -249 l 340 -154 l 389 -154 l 389 -249 l 340 -249 z "},"ầ":{"ha":757,"x_min":71,"x_max":709,"o":"m 283 -14 q 129 41 186 -14 q 71 186 71 96 q 110 302 71 252 q 222 381 150 353 q 392 410 294 410 l 561 410 l 561 503 q 508 653 561 595 q 342 711 455 711 q 233 689 282 711 q 149 635 183 667 l 149 515 l 112 515 l 112 654 q 213 722 157 696 q 342 747 269 747 q 533 681 469 747 q 597 502 597 615 l 597 148 q 600 92 597 119 q 608 37 602 64 l 709 37 l 709 0 l 576 0 q 564 74 567 48 q 561 135 561 99 q 447 27 519 68 q 283 -14 375 -14 m 283 22 q 444 68 366 22 q 561 198 522 115 l 561 372 l 394 372 q 186 320 264 372 q 107 183 107 267 q 157 68 107 115 q 283 22 206 22 m 522 874 l 479 874 l 349 985 l 218 874 l 174 874 l 174 883 l 327 1012 l 371 1012 l 522 886 l 522 874 m 253 1019 l 252 1015 l 221 1015 l 114 1160 l 115 1164 l 159 1164 l 253 1019 z "},"ẩ":{"ha":757,"x_min":71,"x_max":709,"o":"m 283 -14 q 129 41 186 -14 q 71 186 71 96 q 110 302 71 252 q 222 381 150 353 q 392 410 294 410 l 561 410 l 561 503 q 508 653 561 595 q 342 711 455 711 q 233 689 282 711 q 149 635 183 667 l 149 515 l 112 515 l 112 654 q 213 722 157 696 q 342 747 269 747 q 533 681 469 747 q 597 502 597 615 l 597 148 q 600 92 597 119 q 608 37 602 64 l 709 37 l 709 0 l 576 0 q 564 74 567 48 q 561 135 561 99 q 447 27 519 68 q 283 -14 375 -14 m 283 22 q 444 68 366 22 q 561 198 522 115 l 561 372 l 394 372 q 186 320 264 372 q 107 183 107 267 q 157 68 107 115 q 283 22 206 22 m 177 874 l 177 886 l 328 1012 l 372 1012 l 524 883 l 524 874 l 481 874 l 349 985 l 220 874 l 177 874 m 475 977 l 475 1041 q 559 1058 533 1045 q 585 1095 585 1070 q 550 1141 585 1127 q 450 1155 515 1155 l 454 1188 q 581 1163 540 1188 q 623 1095 623 1138 q 591 1035 623 1055 q 507 1010 559 1014 l 507 977 l 475 977 z "},"ẫ":{"ha":757,"x_min":71,"x_max":709,"o":"m 283 -14 q 129 41 186 -14 q 71 186 71 96 q 110 302 71 252 q 222 381 150 353 q 392 410 294 410 l 561 410 l 561 503 q 508 653 561 595 q 342 711 455 711 q 233 689 282 711 q 149 635 183 667 l 149 515 l 112 515 l 112 654 q 213 722 157 696 q 342 747 269 747 q 533 681 469 747 q 597 502 597 615 l 597 148 q 600 92 597 119 q 608 37 602 64 l 709 37 l 709 0 l 576 0 q 564 74 567 48 q 561 135 561 99 q 447 27 519 68 q 283 -14 375 -14 m 283 22 q 444 68 366 22 q 561 198 522 115 l 561 372 l 394 372 q 186 320 264 372 q 107 183 107 267 q 157 68 107 115 q 283 22 206 22 m 210 1080 l 177 1081 q 190 1135 177 1112 q 226 1172 203 1158 q 275 1185 248 1185 q 334 1168 308 1185 q 383 1135 359 1152 q 433 1118 407 1118 q 476 1137 456 1118 q 496 1189 496 1156 l 529 1188 q 517 1134 530 1158 q 482 1096 504 1109 q 434 1082 460 1082 q 375 1099 401 1082 q 325 1133 349 1116 q 274 1149 301 1149 q 230 1132 249 1149 q 210 1080 210 1114 m 176 874 l 176 886 l 326 1012 l 370 1012 l 523 883 l 523 874 l 479 874 l 348 985 l 218 874 l 176 874 z "},"ä":{"ha":757,"x_min":71,"x_max":709,"o":"m 283 -14 q 129 41 186 -14 q 71 186 71 96 q 110 302 71 252 q 222 381 150 353 q 392 410 294 410 l 561 410 l 561 503 q 508 653 561 595 q 342 711 455 711 q 233 689 282 711 q 149 635 183 667 l 149 515 l 112 515 l 112 654 q 213 722 157 696 q 342 747 269 747 q 533 681 469 747 q 597 502 597 615 l 597 148 q 600 92 597 119 q 608 37 602 64 l 709 37 l 709 0 l 576 0 q 564 74 567 48 q 561 135 561 99 q 447 27 519 68 q 283 -14 375 -14 m 283 22 q 444 68 366 22 q 561 198 522 115 l 561 372 l 394 372 q 186 320 264 372 q 107 183 107 267 q 157 68 107 115 q 283 22 206 22 m 433 964 l 433 1058 l 481 1058 l 481 964 l 433 964 m 216 964 l 216 1058 l 265 1058 l 265 964 l 216 964 z "},"ạ":{"ha":757,"x_min":71,"x_max":709,"o":"m 283 -14 q 129 41 186 -14 q 71 186 71 96 q 110 302 71 252 q 222 381 150 353 q 392 410 294 410 l 561 410 l 561 503 q 508 653 561 595 q 342 711 455 711 q 233 689 282 711 q 149 635 183 667 l 149 515 l 112 515 l 112 654 q 213 722 157 696 q 342 747 269 747 q 533 681 469 747 q 597 502 597 615 l 597 148 q 600 92 597 119 q 608 37 602 64 l 709 37 l 709 0 l 576 0 q 564 74 567 48 q 561 135 561 99 q 447 27 519 68 q 283 -14 375 -14 m 283 22 q 444 68 366 22 q 561 198 522 115 l 561 372 l 394 372 q 186 320 264 372 q 107 183 107 267 q 157 68 107 115 q 283 22 206 22 m 340 -249 l 340 -154 l 389 -154 l 389 -249 l 340 -249 z "},"à":{"ha":757,"x_min":71,"x_max":709,"o":"m 283 -14 q 129 41 186 -14 q 71 186 71 96 q 110 302 71 252 q 222 381 150 353 q 392 410 294 410 l 561 410 l 561 503 q 508 653 561 595 q 342 711 455 711 q 233 689 282 711 q 149 635 183 667 l 149 515 l 112 515 l 112 654 q 213 722 157 696 q 342 747 269 747 q 533 681 469 747 q 597 502 597 615 l 597 148 q 600 92 597 119 q 608 37 602 64 l 709 37 l 709 0 l 576 0 q 564 74 567 48 q 561 135 561 99 q 447 27 519 68 q 283 -14 375 -14 m 283 22 q 444 68 366 22 q 561 198 522 115 l 561 372 l 394 372 q 186 320 264 372 q 107 183 107 267 q 157 68 107 115 q 283 22 206 22 m 390 901 l 389 898 l 358 898 l 223 1055 l 224 1058 l 268 1058 l 390 901 z "},"ả":{"ha":757,"x_min":71,"x_max":709,"o":"m 283 -14 q 129 41 186 -14 q 71 186 71 96 q 110 302 71 252 q 222 381 150 353 q 392 410 294 410 l 561 410 l 561 503 q 508 653 561 595 q 342 711 455 711 q 233 689 282 711 q 149 635 183 667 l 149 515 l 112 515 l 112 654 q 213 722 157 696 q 342 747 269 747 q 533 681 469 747 q 597 502 597 615 l 597 148 q 600 92 597 119 q 608 37 602 64 l 709 37 l 709 0 l 576 0 q 564 74 567 48 q 561 135 561 99 q 447 27 519 68 q 283 -14 375 -14 m 283 22 q 444 68 366 22 q 561 198 522 115 l 561 372 l 394 372 q 186 320 264 372 q 107 183 107 267 q 157 68 107 115 q 283 22 206 22 m 295 876 l 295 943 q 385 963 359 949 q 410 1004 410 977 q 368 1057 410 1041 q 263 1072 326 1072 l 268 1105 q 399 1079 351 1105 q 448 1004 448 1052 q 416 939 448 962 q 328 913 385 916 l 328 876 l 295 876 z "},"ā":{"ha":757,"x_min":71,"x_max":709,"o":"m 283 -14 q 129 41 186 -14 q 71 186 71 96 q 110 302 71 252 q 222 381 150 353 q 392 410 294 410 l 561 410 l 561 503 q 508 653 561 595 q 342 711 455 711 q 233 689 282 711 q 149 635 183 667 l 149 515 l 112 515 l 112 654 q 213 722 157 696 q 342 747 269 747 q 533 681 469 747 q 597 502 597 615 l 597 148 q 600 92 597 119 q 608 37 602 64 l 709 37 l 709 0 l 576 0 q 564 74 567 48 q 561 135 561 99 q 447 27 519 68 q 283 -14 375 -14 m 283 22 q 444 68 366 22 q 561 198 522 115 l 561 372 l 394 372 q 186 320 264 372 q 107 183 107 267 q 157 68 107 115 q 283 22 206 22 m 136 963 l 136 999 l 562 999 l 562 963 l 136 963 z "},"ą":{"ha":757,"x_min":71,"x_max":751,"o":"m 283 -14 q 129 41 186 -14 q 71 186 71 96 q 110 302 71 252 q 222 381 150 353 q 392 410 294 410 l 561 410 l 561 503 q 508 653 561 595 q 342 711 455 711 q 233 689 282 711 q 149 635 183 667 l 149 515 l 112 515 l 112 654 q 213 722 157 696 q 342 747 269 747 q 533 681 469 747 q 597 502 597 615 l 597 148 q 600 92 597 119 q 608 37 602 64 l 709 37 l 709 0 l 576 0 q 564 74 567 48 q 561 135 561 99 q 447 27 519 68 q 283 -14 375 -14 m 283 22 q 444 68 366 22 q 561 198 522 115 l 561 372 l 394 372 q 186 320 264 372 q 107 183 107 267 q 157 68 107 115 q 283 22 206 22 m 669 -287 q 587 -256 618 -287 q 555 -170 555 -225 q 582 -83 555 -125 q 674 14 609 -41 l 709 0 q 620 -90 649 -54 q 591 -170 591 -126 q 606 -222 591 -195 q 669 -250 621 -250 q 707 -243 690 -250 q 741 -224 724 -236 l 751 -257 q 715 -278 735 -269 q 669 -287 694 -287 z "},"å":{"ha":757,"x_min":71,"x_max":709,"o":"m 283 -14 q 129 41 186 -14 q 71 186 71 96 q 110 302 71 252 q 222 381 150 353 q 392 410 294 410 l 561 410 l 561 503 q 508 653 561 595 q 342 711 455 711 q 233 689 282 711 q 149 635 183 667 l 149 515 l 112 515 l 112 654 q 213 722 157 696 q 342 747 269 747 q 533 681 469 747 q 597 502 597 615 l 597 148 q 600 92 597 119 q 608 37 602 64 l 709 37 l 709 0 l 576 0 q 564 74 567 48 q 561 135 561 99 q 447 27 519 68 q 283 -14 375 -14 m 283 22 q 444 68 366 22 q 561 198 522 115 l 561 372 l 394 372 q 186 320 264 372 q 107 183 107 267 q 157 68 107 115 q 283 22 206 22 m 349 822 q 267 855 300 822 q 233 937 233 888 q 267 1021 233 987 q 349 1055 300 1055 q 431 1021 397 1055 q 465 937 465 987 q 431 855 465 888 q 349 822 397 822 m 349 859 q 406 880 384 859 q 429 937 429 902 q 406 996 429 973 q 349 1019 384 1019 q 292 996 315 1019 q 270 937 270 973 q 292 880 270 902 q 349 859 315 859 z "},"ǻ":{"ha":757,"x_min":71,"x_max":709,"o":"m 283 -14 q 129 41 186 -14 q 71 186 71 96 q 110 302 71 252 q 222 381 150 353 q 392 410 294 410 l 561 410 l 561 503 q 508 653 561 595 q 342 711 455 711 q 233 689 282 711 q 149 635 183 667 l 149 515 l 112 515 l 112 654 q 213 722 157 696 q 342 747 269 747 q 533 681 469 747 q 597 502 597 615 l 597 148 q 600 92 597 119 q 608 37 602 64 l 709 37 l 709 0 l 576 0 q 564 74 567 48 q 561 135 561 99 q 447 27 519 68 q 283 -14 375 -14 m 283 22 q 444 68 366 22 q 561 198 522 115 l 561 372 l 394 372 q 186 320 264 372 q 107 183 107 267 q 157 68 107 115 q 283 22 206 22 m 349 724 q 267 757 300 724 q 233 840 233 790 q 267 924 233 890 q 349 958 300 958 q 431 924 397 958 q 465 840 465 890 q 431 757 465 790 q 349 724 397 724 m 349 761 q 406 783 384 761 q 429 840 429 804 q 406 898 429 876 q 349 921 384 921 q 292 898 315 921 q 270 840 270 876 q 292 783 270 804 q 349 761 315 761 m 317 1019 l 412 1164 l 455 1164 l 456 1160 l 349 1015 l 319 1015 l 317 1019 z "},"ḁ":{"ha":757,"x_min":71,"x_max":709,"o":"m 283 -14 q 129 41 186 -14 q 71 186 71 96 q 110 302 71 252 q 222 381 150 353 q 392 410 294 410 l 561 410 l 561 503 q 508 653 561 595 q 342 711 455 711 q 233 689 282 711 q 149 635 183 667 l 149 515 l 112 515 l 112 654 q 213 722 157 696 q 342 747 269 747 q 533 681 469 747 q 597 502 597 615 l 597 148 q 600 92 597 119 q 608 37 602 64 l 709 37 l 709 0 l 576 0 q 564 74 567 48 q 561 135 561 99 q 447 27 519 68 q 283 -14 375 -14 m 283 22 q 444 68 366 22 q 561 198 522 115 l 561 372 l 394 372 q 186 320 264 372 q 107 183 107 267 q 157 68 107 115 q 283 22 206 22 m 365 -334 q 282 -301 316 -334 q 249 -219 249 -269 q 282 -135 249 -169 q 365 -101 316 -101 q 447 -135 413 -101 q 481 -219 481 -169 q 447 -301 481 -269 q 365 -334 413 -334 m 365 -298 q 422 -276 399 -298 q 444 -219 444 -254 q 422 -160 444 -183 q 365 -138 399 -138 q 308 -160 330 -138 q 286 -219 286 -183 q 308 -276 286 -254 q 365 -298 330 -298 z "},"ã":{"ha":757,"x_min":71,"x_max":709,"o":"m 283 -14 q 129 41 186 -14 q 71 186 71 96 q 110 302 71 252 q 222 381 150 353 q 392 410 294 410 l 561 410 l 561 503 q 508 653 561 595 q 342 711 455 711 q 233 689 282 711 q 149 635 183 667 l 149 515 l 112 515 l 112 654 q 213 722 157 696 q 342 747 269 747 q 533 681 469 747 q 597 502 597 615 l 597 148 q 600 92 597 119 q 608 37 602 64 l 709 37 l 709 0 l 576 0 q 564 74 567 48 q 561 135 561 99 q 447 27 519 68 q 283 -14 375 -14 m 283 22 q 444 68 366 22 q 561 198 522 115 l 561 372 l 394 372 q 186 320 264 372 q 107 183 107 267 q 157 68 107 115 q 283 22 206 22 m 168 930 l 132 930 q 148 995 132 968 q 188 1038 163 1023 q 244 1054 214 1054 q 320 1033 283 1054 q 391 990 357 1012 q 455 969 425 969 q 506 992 483 969 q 530 1058 530 1016 l 566 1058 q 551 993 566 1021 q 511 948 536 964 q 457 932 487 932 q 381 954 418 932 q 310 997 345 975 q 243 1018 275 1018 q 191 996 214 1018 q 168 930 168 973 z "},"æ":{"ha":1217,"x_min":71,"x_max":1131,"o":"m 283 -14 q 129 44 186 -14 q 71 195 71 102 q 110 317 71 264 q 222 399 150 370 q 392 429 294 429 l 561 429 l 561 503 q 508 653 561 595 q 342 711 455 711 q 233 689 282 711 q 149 635 183 667 l 149 515 l 112 515 l 112 654 q 213 722 157 696 q 342 747 269 747 q 516 698 454 747 q 592 562 579 648 q 650 658 610 616 q 744 724 690 700 q 857 747 798 747 q 1004 711 943 747 q 1098 608 1065 675 q 1131 448 1131 541 l 1131 391 l 597 391 l 597 339 q 665 110 597 198 q 867 22 732 22 q 994 46 937 22 q 1093 111 1051 69 l 1113 83 q 1012 12 1069 38 q 867 -14 956 -14 q 590 168 671 -14 q 463 36 543 86 q 283 -14 384 -14 m 283 22 q 396 44 340 22 q 498 109 452 66 q 571 210 545 151 q 564 274 566 241 q 561 340 561 307 l 561 391 l 394 391 q 186 336 264 391 q 107 193 107 281 q 157 71 107 120 q 283 22 206 22 m 599 429 l 1095 429 l 1095 450 q 1033 637 1095 564 q 857 711 970 711 q 727 674 784 711 q 637 575 671 638 q 597 432 604 513 l 599 429 z "},"ǽ":{"ha":1217,"x_min":71,"x_max":1131,"o":"m 283 -14 q 129 44 186 -14 q 71 195 71 102 q 110 317 71 264 q 222 399 150 370 q 392 429 294 429 l 561 429 l 561 503 q 508 653 561 595 q 342 711 455 711 q 233 689 282 711 q 149 635 183 667 l 149 515 l 112 515 l 112 654 q 213 722 157 696 q 342 747 269 747 q 516 698 454 747 q 592 562 579 648 q 650 658 610 616 q 744 724 690 700 q 857 747 798 747 q 1004 711 943 747 q 1098 608 1065 675 q 1131 448 1131 541 l 1131 391 l 597 391 l 597 339 q 665 110 597 198 q 867 22 732 22 q 994 46 937 22 q 1093 111 1051 69 l 1113 83 q 1012 12 1069 38 q 867 -14 956 -14 q 590 168 671 -14 q 463 36 543 86 q 283 -14 384 -14 m 283 22 q 396 44 340 22 q 498 109 452 66 q 571 210 545 151 q 564 274 566 241 q 561 340 561 307 l 561 391 l 394 391 q 186 336 264 391 q 107 193 107 281 q 157 71 107 120 q 283 22 206 22 m 599 429 l 1095 429 l 1095 450 q 1033 637 1095 564 q 857 711 970 711 q 727 674 784 711 q 637 575 671 638 q 597 432 604 513 l 599 429 m 568 901 l 690 1058 l 733 1058 l 734 1055 l 600 898 l 569 898 l 568 901 z "},"b":{"ha":738,"x_min":-5,"x_max":667,"o":"m 392 -14 q 240 21 304 -14 q 140 117 176 57 l 136 0 l 105 0 l 105 1021 l -5 1021 l -5 1058 l 142 1058 l 142 600 q 241 708 178 669 q 391 747 303 747 q 539 701 477 747 q 634 569 601 654 q 667 368 667 484 l 667 353 q 634 158 667 240 q 540 31 602 75 q 392 -14 478 -14 m 393 22 q 569 112 509 22 q 629 353 629 201 l 629 368 q 602 547 629 469 q 522 667 575 624 q 391 711 469 711 q 225 656 284 711 q 142 522 167 602 l 142 186 q 232 67 168 111 q 393 22 295 22 z "},"c":{"ha":734,"x_min":71,"x_max":635,"o":"m 366 -14 q 215 32 282 -14 q 109 160 148 78 q 71 353 71 243 l 71 381 q 108 573 71 491 q 212 702 146 656 q 365 747 279 747 q 514 712 448 747 q 624 627 580 677 l 624 470 l 587 470 l 587 614 q 489 685 544 660 q 366 711 434 711 q 230 669 288 711 q 139 552 172 627 q 107 381 107 478 l 107 353 q 140 180 107 255 q 231 64 172 106 q 368 22 290 22 q 527 71 463 22 q 603 219 591 119 l 634 219 l 635 215 q 591 89 627 140 q 498 12 555 37 q 366 -14 441 -14 z "},"ć":{"ha":734,"x_min":71,"x_max":635,"o":"m 366 -14 q 215 32 282 -14 q 109 160 148 78 q 71 353 71 243 l 71 381 q 108 573 71 491 q 212 702 146 656 q 365 747 279 747 q 514 712 448 747 q 624 627 580 677 l 624 470 l 587 470 l 587 614 q 489 685 544 660 q 366 711 434 711 q 230 669 288 711 q 139 552 172 627 q 107 381 107 478 l 107 353 q 140 180 107 255 q 231 64 172 106 q 368 22 290 22 q 527 71 463 22 q 603 219 591 119 l 634 219 l 635 215 q 591 89 627 140 q 498 12 555 37 q 366 -14 441 -14 m 326 901 l 448 1058 l 492 1058 l 493 1055 l 358 898 l 328 898 l 326 901 z "},"č":{"ha":734,"x_min":71,"x_max":635,"o":"m 366 -14 q 215 32 282 -14 q 109 160 148 78 q 71 353 71 243 l 71 381 q 108 573 71 491 q 212 702 146 656 q 365 747 279 747 q 514 712 448 747 q 624 627 580 677 l 624 470 l 587 470 l 587 614 q 489 685 544 660 q 366 711 434 711 q 230 669 288 711 q 139 552 172 627 q 107 381 107 478 l 107 353 q 140 180 107 255 q 231 64 172 106 q 368 22 290 22 q 527 71 463 22 q 603 219 591 119 l 634 219 l 635 215 q 591 89 627 140 q 498 12 555 37 q 366 -14 441 -14 m 538 1058 l 538 1046 l 390 907 l 346 907 l 196 1049 l 196 1058 l 237 1058 l 369 932 l 498 1058 l 538 1058 z "},"ç":{"ha":734,"x_min":71,"x_max":635,"o":"m 366 -14 q 215 32 282 -14 q 109 160 148 78 q 71 353 71 243 l 71 381 q 108 573 71 491 q 212 702 146 656 q 365 747 279 747 q 514 712 448 747 q 624 627 580 677 l 624 470 l 587 470 l 587 614 q 489 685 544 660 q 366 711 434 711 q 230 669 288 711 q 139 552 172 627 q 107 381 107 478 l 107 353 q 140 180 107 255 q 231 64 172 106 q 368 22 290 22 q 527 71 463 22 q 603 219 591 119 l 634 219 l 635 215 q 591 89 627 140 q 498 12 555 37 q 366 -14 441 -14 m 287 -295 l 282 -262 q 405 -237 353 -262 q 456 -166 456 -213 q 426 -106 456 -123 q 315 -82 395 -89 l 332 0 l 368 0 l 360 -52 q 458 -82 422 -56 q 494 -166 494 -109 q 440 -260 494 -225 q 287 -295 387 -295 z "},"ĉ":{"ha":734,"x_min":71,"x_max":635,"o":"m 366 -14 q 215 32 282 -14 q 109 160 148 78 q 71 353 71 243 l 71 381 q 108 573 71 491 q 212 702 146 656 q 365 747 279 747 q 514 712 448 747 q 624 627 580 677 l 624 470 l 587 470 l 587 614 q 489 685 544 660 q 366 711 434 711 q 230 669 288 711 q 139 552 172 627 q 107 381 107 478 l 107 353 q 140 180 107 255 q 231 64 172 106 q 368 22 290 22 q 527 71 463 22 q 603 219 591 119 l 634 219 l 635 215 q 591 89 627 140 q 498 12 555 37 q 366 -14 441 -14 m 196 907 l 196 918 l 344 1058 l 388 1058 l 538 916 l 538 907 l 497 907 l 365 1033 l 236 907 l 196 907 z "},"ċ":{"ha":734,"x_min":71,"x_max":635,"o":"m 366 -14 q 215 32 282 -14 q 109 160 148 78 q 71 353 71 243 l 71 381 q 108 573 71 491 q 212 702 146 656 q 365 747 279 747 q 514 712 448 747 q 624 627 580 677 l 624 470 l 587 470 l 587 614 q 489 685 544 660 q 366 711 434 711 q 230 669 288 711 q 139 552 172 627 q 107 381 107 478 l 107 353 q 140 180 107 255 q 231 64 172 106 q 368 22 290 22 q 527 71 463 22 q 603 219 591 119 l 634 219 l 635 215 q 591 89 627 140 q 498 12 555 37 q 366 -14 441 -14 m 342 963 l 342 1058 l 391 1058 l 391 963 l 342 963 z "},"d":{"ha":817,"x_min":71,"x_max":743,"o":"m 346 -14 q 198 31 260 -14 q 103 158 136 75 q 71 353 71 240 l 71 368 q 103 569 71 484 q 198 701 136 654 q 347 747 260 747 q 496 708 434 747 q 596 599 559 668 l 596 1021 l 486 1021 l 486 1058 l 596 1058 l 633 1058 l 633 37 l 743 37 l 743 0 l 597 0 l 596 117 q 496 21 560 57 q 346 -14 433 -14 m 345 22 q 504 66 441 22 q 596 182 568 109 l 596 526 q 511 657 570 604 q 347 711 452 711 q 216 667 269 711 q 136 547 163 624 q 109 368 109 469 l 109 353 q 169 112 109 201 q 345 22 229 22 z "},"ð":{"ha":793,"x_min":53,"x_max":696,"o":"m 362 -14 q 202 27 272 -14 q 93 141 132 69 q 53 302 53 213 q 91 488 53 412 q 199 606 128 565 q 370 646 271 646 q 524 615 455 646 q 628 528 593 583 l 631 531 q 582 725 621 642 q 481 869 543 808 l 252 739 l 233 771 l 452 897 q 379 948 418 924 q 294 995 340 972 l 307 1029 q 404 976 359 1004 q 486 916 449 948 l 676 1025 l 696 992 l 515 889 q 636 692 597 806 q 675 417 675 578 l 675 363 q 635 167 675 252 q 523 34 594 82 q 362 -14 452 -14 m 365 25 q 507 68 446 25 q 604 188 569 111 q 639 363 639 264 l 639 418 l 639 458 q 545 564 612 521 q 370 607 477 607 q 214 569 276 607 q 121 461 152 530 q 90 302 90 393 q 124 165 90 229 q 219 63 157 102 q 365 25 281 25 z "},"ď":{"ha":817,"x_min":71,"x_max":791,"o":"m 346 -14 q 198 31 260 -14 q 103 158 136 75 q 71 353 71 240 l 71 368 q 103 569 71 484 q 198 701 136 654 q 347 747 260 747 q 496 708 434 747 q 596 599 559 668 l 596 1021 l 486 1021 l 486 1058 l 596 1058 l 633 1058 l 633 37 l 743 37 l 743 0 l 597 0 l 596 117 q 496 21 560 57 q 346 -14 433 -14 m 345 22 q 504 66 441 22 q 596 182 568 109 l 596 526 q 511 657 570 604 q 347 711 452 711 q 216 667 269 711 q 136 547 163 624 q 109 368 109 469 l 109 353 q 169 112 109 201 q 345 22 229 22 m 738 871 l 713 892 q 744 949 734 922 q 754 1014 754 976 l 754 1058 l 791 1058 l 791 1015 q 777 934 791 970 q 738 871 762 899 z "},"đ":{"ha":817,"x_min":71,"x_max":743,"o":"m 346 -14 q 198 31 260 -14 q 103 158 136 75 q 71 353 71 240 l 71 368 q 103 569 71 484 q 198 701 136 654 q 347 747 260 747 q 496 708 434 747 q 596 599 559 668 l 596 1021 l 486 1021 l 486 1058 l 596 1058 l 633 1058 l 633 37 l 743 37 l 743 0 l 597 0 l 596 117 q 496 21 560 57 q 346 -14 433 -14 m 345 22 q 504 66 441 22 q 596 182 568 109 l 596 526 q 511 657 570 604 q 347 711 452 711 q 216 667 269 711 q 136 547 163 624 q 109 368 109 469 l 109 353 q 169 112 109 201 q 345 22 229 22 m 390 853 l 390 890 l 743 890 l 743 853 l 390 853 z "},"e":{"ha":735,"x_min":76,"x_max":649,"o":"m 382 -14 q 225 31 294 -14 q 116 156 156 76 q 76 339 76 235 l 76 382 q 115 570 76 488 q 221 700 153 652 q 374 747 288 747 q 518 710 456 747 q 615 606 581 673 q 649 448 649 539 l 649 391 l 113 391 l 113 339 q 147 177 113 248 q 243 64 182 105 q 382 22 304 22 q 506 46 452 22 q 602 112 560 71 l 622 83 q 519 13 576 40 q 382 -14 461 -14 m 120 428 l 612 428 l 612 450 q 583 584 612 525 q 500 677 553 643 q 374 711 446 711 q 249 674 304 711 q 159 574 193 637 q 118 432 124 511 l 120 428 z "},"é":{"ha":735,"x_min":76,"x_max":649,"o":"m 382 -14 q 225 31 294 -14 q 116 156 156 76 q 76 339 76 235 l 76 382 q 115 570 76 488 q 221 700 153 652 q 374 747 288 747 q 518 710 456 747 q 615 606 581 673 q 649 448 649 539 l 649 391 l 113 391 l 113 339 q 147 177 113 248 q 243 64 182 105 q 382 22 304 22 q 506 46 452 22 q 602 112 560 71 l 622 83 q 519 13 576 40 q 382 -14 461 -14 m 120 428 l 612 428 l 612 450 q 583 584 612 525 q 500 677 553 643 q 374 711 446 711 q 249 674 304 711 q 159 574 193 637 q 118 432 124 511 l 120 428 m 334 901 l 456 1058 l 500 1058 l 501 1055 l 366 898 l 336 898 l 334 901 z "},"ĕ":{"ha":735,"x_min":76,"x_max":649,"o":"m 382 -14 q 225 31 294 -14 q 116 156 156 76 q 76 339 76 235 l 76 382 q 115 570 76 488 q 221 700 153 652 q 374 747 288 747 q 518 710 456 747 q 615 606 581 673 q 649 448 649 539 l 649 391 l 113 391 l 113 339 q 147 177 113 248 q 243 64 182 105 q 382 22 304 22 q 506 46 452 22 q 602 112 560 71 l 622 83 q 519 13 576 40 q 382 -14 461 -14 m 120 428 l 612 428 l 612 450 q 583 584 612 525 q 500 677 553 643 q 374 711 446 711 q 249 674 304 711 q 159 574 193 637 q 118 432 124 511 l 120 428 m 376 894 q 238 939 288 894 q 189 1054 189 983 l 191 1058 l 226 1058 q 262 966 226 1001 q 376 930 298 930 q 488 966 450 930 q 525 1058 525 1002 l 560 1058 l 562 1054 q 512 939 562 983 q 376 894 463 894 z "},"ě":{"ha":735,"x_min":76,"x_max":649,"o":"m 382 -14 q 225 31 294 -14 q 116 156 156 76 q 76 339 76 235 l 76 382 q 115 570 76 488 q 221 700 153 652 q 374 747 288 747 q 518 710 456 747 q 615 606 581 673 q 649 448 649 539 l 649 391 l 113 391 l 113 339 q 147 177 113 248 q 243 64 182 105 q 382 22 304 22 q 506 46 452 22 q 602 112 560 71 l 622 83 q 519 13 576 40 q 382 -14 461 -14 m 120 428 l 612 428 l 612 450 q 583 584 612 525 q 500 677 553 643 q 374 711 446 711 q 249 674 304 711 q 159 574 193 637 q 118 432 124 511 l 120 428 m 546 1058 l 546 1046 l 398 907 l 354 907 l 204 1049 l 204 1058 l 245 1058 l 377 932 l 506 1058 l 546 1058 z "},"ê":{"ha":735,"x_min":76,"x_max":649,"o":"m 382 -14 q 225 31 294 -14 q 116 156 156 76 q 76 339 76 235 l 76 382 q 115 570 76 488 q 221 700 153 652 q 374 747 288 747 q 518 710 456 747 q 615 606 581 673 q 649 448 649 539 l 649 391 l 113 391 l 113 339 q 147 177 113 248 q 243 64 182 105 q 382 22 304 22 q 506 46 452 22 q 602 112 560 71 l 622 83 q 519 13 576 40 q 382 -14 461 -14 m 120 428 l 612 428 l 612 450 q 583 584 612 525 q 500 677 553 643 q 374 711 446 711 q 249 674 304 711 q 159 574 193 637 q 118 432 124 511 l 120 428 m 204 907 l 204 918 l 352 1058 l 396 1058 l 546 916 l 546 907 l 505 907 l 373 1033 l 244 907 l 204 907 z "},"ế":{"ha":735,"x_min":76,"x_max":649,"o":"m 382 -14 q 225 31 294 -14 q 116 156 156 76 q 76 339 76 235 l 76 382 q 115 570 76 488 q 221 700 153 652 q 374 747 288 747 q 518 710 456 747 q 615 606 581 673 q 649 448 649 539 l 649 391 l 113 391 l 113 339 q 147 177 113 248 q 243 64 182 105 q 382 22 304 22 q 506 46 452 22 q 602 112 560 71 l 622 83 q 519 13 576 40 q 382 -14 461 -14 m 120 428 l 612 428 l 612 450 q 583 584 612 525 q 500 677 553 643 q 374 711 446 711 q 249 674 304 711 q 159 574 193 637 q 118 432 124 511 l 120 428 m 203 874 l 203 886 l 353 1012 l 397 1012 l 550 883 l 550 874 l 507 874 l 375 985 l 245 874 l 203 874 m 471 1019 l 566 1164 l 609 1164 l 610 1160 l 503 1015 l 473 1015 l 471 1019 z "},"ệ":{"ha":735,"x_min":76,"x_max":649,"o":"m 382 -14 q 225 31 294 -14 q 116 156 156 76 q 76 339 76 235 l 76 382 q 115 570 76 488 q 221 700 153 652 q 374 747 288 747 q 518 710 456 747 q 615 606 581 673 q 649 448 649 539 l 649 391 l 113 391 l 113 339 q 147 177 113 248 q 243 64 182 105 q 382 22 304 22 q 506 46 452 22 q 602 112 560 71 l 622 83 q 519 13 576 40 q 382 -14 461 -14 m 120 428 l 612 428 l 612 450 q 583 584 612 525 q 500 677 553 643 q 374 711 446 711 q 249 674 304 711 q 159 574 193 637 q 118 432 124 511 l 120 428 m 204 907 l 204 918 l 352 1058 l 396 1058 l 546 916 l 546 907 l 505 907 l 373 1033 l 244 907 l 204 907 m 345 -249 l 345 -154 l 393 -154 l 393 -249 l 345 -249 z "},"ề":{"ha":735,"x_min":76,"x_max":649,"o":"m 382 -14 q 225 31 294 -14 q 116 156 156 76 q 76 339 76 235 l 76 382 q 115 570 76 488 q 221 700 153 652 q 374 747 288 747 q 518 710 456 747 q 615 606 581 673 q 649 448 649 539 l 649 391 l 113 391 l 113 339 q 147 177 113 248 q 243 64 182 105 q 382 22 304 22 q 506 46 452 22 q 602 112 560 71 l 622 83 q 519 13 576 40 q 382 -14 461 -14 m 120 428 l 612 428 l 612 450 q 583 584 612 525 q 500 677 553 643 q 374 711 446 711 q 249 674 304 711 q 159 574 193 637 q 118 432 124 511 l 120 428 m 547 874 l 505 874 l 375 985 l 243 874 l 200 874 l 200 883 l 353 1012 l 397 1012 l 547 886 l 547 874 m 279 1019 l 277 1015 l 247 1015 l 140 1160 l 141 1164 l 184 1164 l 279 1019 z "},"ể":{"ha":735,"x_min":76,"x_max":649,"o":"m 382 -14 q 225 31 294 -14 q 116 156 156 76 q 76 339 76 235 l 76 382 q 115 570 76 488 q 221 700 153 652 q 374 747 288 747 q 518 710 456 747 q 615 606 581 673 q 649 448 649 539 l 649 391 l 113 391 l 113 339 q 147 177 113 248 q 243 64 182 105 q 382 22 304 22 q 506 46 452 22 q 602 112 560 71 l 622 83 q 519 13 576 40 q 382 -14 461 -14 m 120 428 l 612 428 l 612 450 q 583 584 612 525 q 500 677 553 643 q 374 711 446 711 q 249 674 304 711 q 159 574 193 637 q 118 432 124 511 l 120 428 m 203 874 l 203 886 l 353 1012 l 397 1012 l 550 883 l 550 874 l 507 874 l 375 985 l 245 874 l 203 874 m 500 977 l 500 1041 q 585 1058 559 1045 q 610 1095 610 1070 q 576 1141 610 1127 q 475 1155 541 1155 l 480 1188 q 607 1163 566 1188 q 648 1095 648 1138 q 617 1035 648 1055 q 533 1010 585 1014 l 533 977 l 500 977 z "},"ễ":{"ha":735,"x_min":76,"x_max":649,"o":"m 382 -14 q 225 31 294 -14 q 116 156 156 76 q 76 339 76 235 l 76 382 q 115 570 76 488 q 221 700 153 652 q 374 747 288 747 q 518 710 456 747 q 615 606 581 673 q 649 448 649 539 l 649 391 l 113 391 l 113 339 q 147 177 113 248 q 243 64 182 105 q 382 22 304 22 q 506 46 452 22 q 602 112 560 71 l 622 83 q 519 13 576 40 q 382 -14 461 -14 m 120 428 l 612 428 l 612 450 q 583 584 612 525 q 500 677 553 643 q 374 711 446 711 q 249 674 304 711 q 159 574 193 637 q 118 432 124 511 l 120 428 m 236 1080 l 203 1081 q 216 1135 203 1112 q 252 1172 229 1158 q 300 1185 274 1185 q 359 1168 334 1185 q 409 1135 385 1152 q 458 1118 433 1118 q 502 1137 482 1118 q 522 1189 522 1156 l 555 1188 q 543 1134 556 1158 q 508 1096 530 1109 q 460 1082 486 1082 q 401 1099 427 1082 q 351 1133 375 1116 q 300 1149 327 1149 q 255 1132 275 1149 q 236 1080 236 1114 m 201 874 l 201 886 l 352 1012 l 396 1012 l 549 883 l 549 874 l 505 874 l 374 985 l 244 874 l 201 874 z "},"ë":{"ha":735,"x_min":76,"x_max":649,"o":"m 382 -14 q 225 31 294 -14 q 116 156 156 76 q 76 339 76 235 l 76 382 q 115 570 76 488 q 221 700 153 652 q 374 747 288 747 q 518 710 456 747 q 615 606 581 673 q 649 448 649 539 l 649 391 l 113 391 l 113 339 q 147 177 113 248 q 243 64 182 105 q 382 22 304 22 q 506 46 452 22 q 602 112 560 71 l 622 83 q 519 13 576 40 q 382 -14 461 -14 m 120 428 l 612 428 l 612 450 q 583 584 612 525 q 500 677 553 643 q 374 711 446 711 q 249 674 304 711 q 159 574 193 637 q 118 432 124 511 l 120 428 m 458 964 l 458 1058 l 507 1058 l 507 964 l 458 964 m 241 964 l 241 1058 l 291 1058 l 291 964 l 241 964 z "},"ė":{"ha":735,"x_min":76,"x_max":649,"o":"m 382 -14 q 225 31 294 -14 q 116 156 156 76 q 76 339 76 235 l 76 382 q 115 570 76 488 q 221 700 153 652 q 374 747 288 747 q 518 710 456 747 q 615 606 581 673 q 649 448 649 539 l 649 391 l 113 391 l 113 339 q 147 177 113 248 q 243 64 182 105 q 382 22 304 22 q 506 46 452 22 q 602 112 560 71 l 622 83 q 519 13 576 40 q 382 -14 461 -14 m 120 428 l 612 428 l 612 450 q 583 584 612 525 q 500 677 553 643 q 374 711 446 711 q 249 674 304 711 q 159 574 193 637 q 118 432 124 511 l 120 428 m 350 963 l 350 1058 l 399 1058 l 399 963 l 350 963 z "},"ẹ":{"ha":735,"x_min":76,"x_max":649,"o":"m 382 -14 q 225 31 294 -14 q 116 156 156 76 q 76 339 76 235 l 76 382 q 115 570 76 488 q 221 700 153 652 q 374 747 288 747 q 518 710 456 747 q 615 606 581 673 q 649 448 649 539 l 649 391 l 113 391 l 113 339 q 147 177 113 248 q 243 64 182 105 q 382 22 304 22 q 506 46 452 22 q 602 112 560 71 l 622 83 q 519 13 576 40 q 382 -14 461 -14 m 120 428 l 612 428 l 612 450 q 583 584 612 525 q 500 677 553 643 q 374 711 446 711 q 249 674 304 711 q 159 574 193 637 q 118 432 124 511 l 120 428 m 345 -249 l 345 -154 l 393 -154 l 393 -249 l 345 -249 z "},"è":{"ha":735,"x_min":76,"x_max":649,"o":"m 382 -14 q 225 31 294 -14 q 116 156 156 76 q 76 339 76 235 l 76 382 q 115 570 76 488 q 221 700 153 652 q 374 747 288 747 q 518 710 456 747 q 615 606 581 673 q 649 448 649 539 l 649 391 l 113 391 l 113 339 q 147 177 113 248 q 243 64 182 105 q 382 22 304 22 q 506 46 452 22 q 602 112 560 71 l 622 83 q 519 13 576 40 q 382 -14 461 -14 m 120 428 l 612 428 l 612 450 q 583 584 612 525 q 500 677 553 643 q 374 711 446 711 q 249 674 304 711 q 159 574 193 637 q 118 432 124 511 l 120 428 m 416 901 l 414 898 l 384 898 l 249 1055 l 250 1058 l 294 1058 l 416 901 z "},"ẻ":{"ha":735,"x_min":76,"x_max":649,"o":"m 382 -14 q 225 31 294 -14 q 116 156 156 76 q 76 339 76 235 l 76 382 q 115 570 76 488 q 221 700 153 652 q 374 747 288 747 q 518 710 456 747 q 615 606 581 673 q 649 448 649 539 l 649 391 l 113 391 l 113 339 q 147 177 113 248 q 243 64 182 105 q 382 22 304 22 q 506 46 452 22 q 602 112 560 71 l 622 83 q 519 13 576 40 q 382 -14 461 -14 m 120 428 l 612 428 l 612 450 q 583 584 612 525 q 500 677 553 643 q 374 711 446 711 q 249 674 304 711 q 159 574 193 637 q 118 432 124 511 l 120 428 m 321 876 l 321 943 q 410 963 385 949 q 435 1004 435 977 q 393 1057 435 1041 q 289 1072 351 1072 l 294 1105 q 425 1079 376 1105 q 473 1004 473 1052 q 442 939 473 962 q 353 913 411 916 l 353 876 l 321 876 z "},"ē":{"ha":735,"x_min":76,"x_max":649,"o":"m 382 -14 q 225 31 294 -14 q 116 156 156 76 q 76 339 76 235 l 76 382 q 115 570 76 488 q 221 700 153 652 q 374 747 288 747 q 518 710 456 747 q 615 606 581 673 q 649 448 649 539 l 649 391 l 113 391 l 113 339 q 147 177 113 248 q 243 64 182 105 q 382 22 304 22 q 506 46 452 22 q 602 112 560 71 l 622 83 q 519 13 576 40 q 382 -14 461 -14 m 120 428 l 612 428 l 612 450 q 583 584 612 525 q 500 677 553 643 q 374 711 446 711 q 249 674 304 711 q 159 574 193 637 q 118 432 124 511 l 120 428 m 162 963 l 162 999 l 587 999 l 587 963 l 162 963 z "},"ę":{"ha":735,"x_min":76,"x_max":649,"o":"m 382 -14 q 225 31 294 -14 q 116 156 156 76 q 76 339 76 235 l 76 382 q 115 570 76 488 q 221 700 153 652 q 374 747 288 747 q 518 710 456 747 q 615 606 581 673 q 649 448 649 539 l 649 391 l 113 391 l 113 339 q 147 177 113 248 q 243 64 182 105 q 382 22 304 22 q 506 46 452 22 q 602 112 560 71 l 622 83 q 519 13 576 40 q 382 -14 461 -14 m 120 428 l 612 428 l 612 450 q 583 584 612 525 q 500 677 553 643 q 374 711 446 711 q 249 674 304 711 q 159 574 193 637 q 118 432 124 511 l 120 428 m 535 -287 q 449 -254 483 -287 q 415 -151 415 -220 q 447 -40 415 -92 q 554 64 478 12 l 578 47 q 483 -48 513 -5 q 452 -151 452 -92 q 468 -220 452 -190 q 535 -250 484 -250 q 575 -243 559 -250 q 609 -224 592 -236 l 620 -257 q 583 -278 604 -269 q 535 -287 563 -287 z "},"ẽ":{"ha":735,"x_min":76,"x_max":649,"o":"m 382 -14 q 225 31 294 -14 q 116 156 156 76 q 76 339 76 235 l 76 382 q 115 570 76 488 q 221 700 153 652 q 374 747 288 747 q 518 710 456 747 q 615 606 581 673 q 649 448 649 539 l 649 391 l 113 391 l 113 339 q 147 177 113 248 q 243 64 182 105 q 382 22 304 22 q 506 46 452 22 q 602 112 560 71 l 622 83 q 519 13 576 40 q 382 -14 461 -14 m 120 428 l 612 428 l 612 450 q 583 584 612 525 q 500 677 553 643 q 374 711 446 711 q 249 674 304 711 q 159 574 193 637 q 118 432 124 511 l 120 428 m 194 930 l 158 930 q 173 995 158 968 q 214 1038 189 1023 q 270 1054 239 1054 q 346 1033 309 1054 q 417 990 383 1012 q 481 969 451 969 q 532 992 509 969 q 555 1058 555 1016 l 591 1058 q 576 993 591 1021 q 537 948 562 964 q 483 932 513 932 q 407 954 444 932 q 336 997 370 975 q 269 1018 301 1018 q 217 996 240 1018 q 194 930 194 973 z "},"ə":{"ha":700,"x_min":59,"x_max":646,"o":"m 340 -14 q 193 22 256 -14 q 95 126 130 59 q 59 286 59 194 l 59 342 l 609 342 q 609 360 609 350 q 609 394 609 370 q 573 554 609 482 q 476 668 537 626 q 338 711 414 711 q 200 688 255 711 q 106 621 144 665 l 86 650 q 191 722 129 697 q 338 747 253 747 q 491 701 421 747 q 603 574 561 654 q 646 394 646 494 l 646 351 q 605 162 646 245 q 495 33 564 80 q 340 -14 426 -14 m 340 22 q 469 59 412 22 q 561 158 526 95 q 603 301 596 221 l 601 305 l 96 305 l 96 283 q 126 149 96 208 q 212 56 157 90 q 340 22 267 22 z "},"f":{"ha":490,"x_min":60,"x_max":467,"o":"m 77 0 l 77 37 l 188 37 l 188 696 l 60 696 l 60 734 l 188 734 l 188 854 q 238 1015 188 958 q 380 1072 289 1072 q 424 1069 402 1072 q 467 1061 446 1067 l 461 1025 q 423 1033 439 1031 q 380 1036 406 1036 q 266 987 307 1036 q 224 854 224 939 l 224 734 l 418 734 l 418 696 l 224 696 l 224 37 l 335 37 l 335 0 l 77 0 z "},"g":{"ha":783,"x_min":71,"x_max":730,"o":"m 355 -296 q 244 -285 302 -296 q 142 -254 186 -274 l 153 -218 q 249 -250 203 -239 q 354 -260 295 -260 q 533 -188 471 -260 q 595 9 595 -116 l 595 116 q 495 21 559 56 q 346 -14 432 -14 q 198 31 260 -14 q 103 158 136 75 q 71 353 71 241 l 71 368 q 103 569 71 484 q 198 701 136 654 q 347 747 260 747 q 497 707 434 747 q 596 598 559 667 l 602 734 l 633 734 l 633 9 q 599 -153 633 -84 q 504 -259 566 -222 q 355 -296 441 -296 m 345 22 q 506 67 443 22 q 595 187 568 112 l 595 520 q 512 656 570 601 q 347 711 454 711 q 216 667 269 711 q 135 547 163 624 q 108 368 108 469 l 108 353 q 168 112 108 201 q 345 22 229 22 m 619 697 l 614 734 l 730 734 l 730 697 l 619 697 z "},"ğ":{"ha":783,"x_min":71,"x_max":730,"o":"m 355 -296 q 244 -285 302 -296 q 142 -254 186 -274 l 153 -218 q 249 -250 203 -239 q 354 -260 295 -260 q 533 -188 471 -260 q 595 9 595 -116 l 595 116 q 495 21 559 56 q 346 -14 432 -14 q 198 31 260 -14 q 103 158 136 75 q 71 353 71 241 l 71 368 q 103 569 71 484 q 198 701 136 654 q 347 747 260 747 q 497 707 434 747 q 596 598 559 667 l 602 734 l 633 734 l 633 9 q 599 -153 633 -84 q 504 -259 566 -222 q 355 -296 441 -296 m 345 22 q 506 67 443 22 q 595 187 568 112 l 595 520 q 512 656 570 601 q 347 711 454 711 q 216 667 269 711 q 135 547 163 624 q 108 368 108 469 l 108 353 q 168 112 108 201 q 345 22 229 22 m 619 697 l 614 734 l 730 734 l 730 697 l 619 697 m 380 894 q 242 939 292 894 q 193 1054 193 983 l 195 1058 l 230 1058 q 266 966 230 1001 q 380 930 302 930 q 492 966 454 930 q 529 1058 529 1002 l 564 1058 l 566 1054 q 516 939 566 983 q 380 894 467 894 z "},"ĝ":{"ha":783,"x_min":71,"x_max":730,"o":"m 355 -296 q 244 -285 302 -296 q 142 -254 186 -274 l 153 -218 q 249 -250 203 -239 q 354 -260 295 -260 q 533 -188 471 -260 q 595 9 595 -116 l 595 116 q 495 21 559 56 q 346 -14 432 -14 q 198 31 260 -14 q 103 158 136 75 q 71 353 71 241 l 71 368 q 103 569 71 484 q 198 701 136 654 q 347 747 260 747 q 497 707 434 747 q 596 598 559 667 l 602 734 l 633 734 l 633 9 q 599 -153 633 -84 q 504 -259 566 -222 q 355 -296 441 -296 m 345 22 q 506 67 443 22 q 595 187 568 112 l 595 520 q 512 656 570 601 q 347 711 454 711 q 216 667 269 711 q 135 547 163 624 q 108 368 108 469 l 108 353 q 168 112 108 201 q 345 22 229 22 m 619 697 l 614 734 l 730 734 l 730 697 l 619 697 m 208 907 l 208 918 l 356 1058 l 400 1058 l 550 916 l 550 907 l 509 907 l 377 1033 l 248 907 l 208 907 z "},"ģ":{"ha":783,"x_min":71,"x_max":730,"o":"m 355 -296 q 244 -285 302 -296 q 142 -254 186 -274 l 153 -218 q 249 -250 203 -239 q 354 -260 295 -260 q 533 -188 471 -260 q 595 9 595 -116 l 595 116 q 495 21 559 56 q 346 -14 432 -14 q 198 31 260 -14 q 103 158 136 75 q 71 353 71 241 l 71 368 q 103 569 71 484 q 198 701 136 654 q 347 747 260 747 q 497 707 434 747 q 596 598 559 667 l 602 734 l 633 734 l 633 9 q 599 -153 633 -84 q 504 -259 566 -222 q 355 -296 441 -296 m 345 22 q 506 67 443 22 q 595 187 568 112 l 595 520 q 512 656 570 601 q 347 711 454 711 q 216 667 269 711 q 135 547 163 624 q 108 368 108 469 l 108 353 q 168 112 108 201 q 345 22 229 22 m 619 697 l 614 734 l 730 734 l 730 697 l 619 697 m 393 1112 l 418 1090 q 387 1034 397 1061 q 376 969 376 1007 l 376 925 l 340 925 l 340 968 q 354 1049 340 1014 q 393 1112 368 1085 z "},"ġ":{"ha":783,"x_min":71,"x_max":730,"o":"m 355 -296 q 244 -285 302 -296 q 142 -254 186 -274 l 153 -218 q 249 -250 203 -239 q 354 -260 295 -260 q 533 -188 471 -260 q 595 9 595 -116 l 595 116 q 495 21 559 56 q 346 -14 432 -14 q 198 31 260 -14 q 103 158 136 75 q 71 353 71 241 l 71 368 q 103 569 71 484 q 198 701 136 654 q 347 747 260 747 q 497 707 434 747 q 596 598 559 667 l 602 734 l 633 734 l 633 9 q 599 -153 633 -84 q 504 -259 566 -222 q 355 -296 441 -296 m 345 22 q 506 67 443 22 q 595 187 568 112 l 595 520 q 512 656 570 601 q 347 711 454 711 q 216 667 269 711 q 135 547 163 624 q 108 368 108 469 l 108 353 q 168 112 108 201 q 345 22 229 22 m 619 697 l 614 734 l 730 734 l 730 697 l 619 697 m 354 963 l 354 1058 l 403 1058 l 403 963 l 354 963 z "},"h":{"ha":867,"x_min":42,"x_max":793,"o":"m 42 0 l 42 37 l 153 37 l 153 1021 l 42 1021 l 42 1058 l 189 1058 l 189 579 q 289 703 223 659 q 450 747 355 747 q 624 675 564 747 q 683 446 683 602 l 683 37 l 793 37 l 793 0 l 535 0 l 535 37 l 646 37 l 646 448 q 592 651 646 592 q 450 711 539 711 q 269 640 332 711 q 189 458 205 569 l 189 37 l 300 37 l 300 0 l 42 0 z "},"ħ":{"ha":867,"x_min":42,"x_max":793,"o":"m 42 0 l 42 37 l 153 37 l 153 1021 l 42 1021 l 42 1058 l 189 1058 l 189 579 q 289 703 223 659 q 450 747 355 747 q 624 675 564 747 q 683 446 683 602 l 683 37 l 793 37 l 793 0 l 535 0 l 535 37 l 646 37 l 646 448 q 592 651 646 592 q 450 711 539 711 q 269 640 332 711 q 189 458 205 569 l 189 37 l 300 37 l 300 0 l 42 0 m 42 853 l 42 890 l 395 890 l 395 853 l 42 853 z "},"ĥ":{"ha":867,"x_min":3,"x_max":793,"o":"m 42 0 l 42 37 l 153 37 l 153 1021 l 42 1021 l 42 1058 l 189 1058 l 189 579 q 289 703 223 659 q 450 747 355 747 q 624 675 564 747 q 683 446 683 602 l 683 37 l 793 37 l 793 0 l 535 0 l 535 37 l 646 37 l 646 448 q 592 651 646 592 q 450 711 539 711 q 269 640 332 711 q 189 458 205 569 l 189 37 l 300 37 l 300 0 l 42 0 m 3 1160 l 3 1172 l 151 1312 l 195 1312 l 345 1169 l 345 1160 l 304 1160 l 172 1286 l 43 1160 l 3 1160 z "},"i":{"ha":413,"x_min":60,"x_max":318,"o":"m 60 0 l 60 37 l 171 37 l 171 697 l 60 697 l 60 734 l 208 734 l 208 37 l 318 37 l 318 0 l 60 0 m 159 963 l 159 1058 l 208 1058 l 208 963 l 159 963 z "},"ı":{"ha":413,"x_min":60,"x_max":318,"o":"m 60 0 l 60 37 l 171 37 l 171 697 l 60 697 l 60 734 l 208 734 l 208 37 l 318 37 l 318 0 l 60 0 z "},"í":{"ha":413,"x_min":60,"x_max":318,"o":"m 60 0 l 60 37 l 171 37 l 171 697 l 60 697 l 60 734 l 208 734 l 208 37 l 318 37 l 318 0 l 60 0 m 143 901 l 265 1058 l 309 1058 l 310 1055 l 175 898 l 144 898 l 143 901 z "},"ĭ":{"ha":413,"x_min":-3,"x_max":370,"o":"m 60 0 l 60 37 l 171 37 l 171 697 l 60 697 l 60 734 l 208 734 l 208 37 l 318 37 l 318 0 l 60 0 m 184 894 q 47 939 97 894 q -2 1054 -3 983 l -1 1058 l 35 1058 q 71 966 35 1001 q 184 930 106 930 q 296 966 259 930 q 334 1058 334 1002 l 369 1058 l 370 1054 q 321 939 370 983 q 184 894 271 894 z "},"î":{"ha":413,"x_min":13,"x_max":355,"o":"m 60 0 l 60 37 l 171 37 l 171 697 l 60 697 l 60 734 l 208 734 l 208 37 l 318 37 l 318 0 l 60 0 m 13 907 l 13 918 l 161 1058 l 205 1058 l 355 916 l 355 907 l 314 907 l 182 1033 l 53 907 l 13 907 z "},"ï":{"ha":413,"x_min":50,"x_max":318,"o":"m 60 0 l 60 37 l 171 37 l 171 697 l 60 697 l 60 734 l 208 734 l 208 37 l 318 37 l 318 0 l 60 0 m 267 964 l 267 1058 l 316 1058 l 316 964 l 267 964 m 50 964 l 50 1058 l 100 1058 l 100 964 l 50 964 z "},"ị":{"ha":413,"x_min":60,"x_max":318,"o":"m 60 0 l 60 37 l 171 37 l 171 697 l 60 697 l 60 734 l 208 734 l 208 37 l 318 37 l 318 0 l 60 0 m 159 963 l 159 1058 l 208 1058 l 208 963 l 159 963 m 166 -249 l 166 -154 l 215 -154 l 215 -249 l 166 -249 z "},"ì":{"ha":413,"x_min":58,"x_max":318,"o":"m 60 0 l 60 37 l 171 37 l 171 697 l 60 697 l 60 734 l 208 734 l 208 37 l 318 37 l 318 0 l 60 0 m 224 901 l 223 898 l 193 898 l 58 1055 l 59 1058 l 102 1058 l 224 901 z "},"ỉ":{"ha":413,"x_min":60,"x_max":318,"o":"m 60 0 l 60 37 l 171 37 l 171 697 l 60 697 l 60 734 l 208 734 l 208 37 l 318 37 l 318 0 l 60 0 m 130 876 l 130 943 q 219 963 194 949 q 244 1004 244 977 q 202 1057 244 1041 q 98 1072 160 1072 l 102 1105 q 234 1079 185 1105 q 282 1004 282 1052 q 251 939 282 962 q 162 913 220 916 l 162 876 l 130 876 z "},"ĳ":{"ha":795,"x_min":60,"x_max":680,"o":"m 60 0 l 60 37 l 171 37 l 171 697 l 60 697 l 60 734 l 208 734 l 208 37 l 318 37 l 318 0 l 60 0 m 159 963 l 159 1058 l 208 1058 l 208 963 l 159 963 m 486 -296 q 448 -293 466 -296 q 410 -283 431 -290 l 419 -248 q 450 -256 431 -252 q 486 -260 469 -260 q 602 -208 561 -260 q 643 -60 643 -156 l 643 697 l 532 697 l 532 734 l 680 734 l 680 -60 q 629 -235 680 -174 q 486 -296 578 -296 m 627 963 l 627 1058 l 675 1058 l 675 963 l 627 963 z "},"ī":{"ha":413,"x_min":-29,"x_max":396,"o":"m 60 0 l 60 37 l 171 37 l 171 697 l 60 697 l 60 734 l 208 734 l 208 37 l 318 37 l 318 0 l 60 0 m -29 963 l -29 999 l 396 999 l 396 963 l -29 963 z "},"į":{"ha":413,"x_min":60,"x_max":360,"o":"m 60 0 l 60 37 l 171 37 l 171 697 l 60 697 l 60 734 l 208 734 l 208 37 l 318 37 l 318 0 l 60 0 m 159 963 l 159 1058 l 208 1058 l 208 963 l 159 963 m 277 -287 q 195 -256 227 -287 q 163 -170 163 -225 q 191 -83 163 -125 q 283 14 218 -41 l 318 0 q 229 -90 258 -54 q 200 -170 200 -126 q 215 -222 200 -195 q 277 -250 230 -250 q 316 -243 299 -250 q 349 -224 332 -236 l 360 -257 q 323 -278 344 -269 q 277 -287 303 -287 z "},"ĩ":{"ha":413,"x_min":-33,"x_max":400,"o":"m 60 0 l 60 37 l 171 37 l 171 697 l 60 697 l 60 734 l 208 734 l 208 37 l 318 37 l 318 0 l 60 0 m 3 930 l -33 930 q -18 995 -33 968 q 23 1038 -3 1023 q 79 1054 48 1054 q 155 1033 118 1054 q 226 990 192 1012 q 290 969 260 969 q 341 992 317 969 q 364 1058 364 1016 l 400 1058 q 385 993 400 1021 q 346 948 370 964 q 292 932 321 932 q 216 954 253 932 q 144 997 179 975 q 78 1018 110 1018 q 26 996 49 1018 q 3 930 3 973 z "},"j":{"ha":382,"x_min":-3,"x_max":267,"o":"m 73 -296 q 35 -293 53 -296 q -3 -283 18 -290 l 6 -248 q 37 -256 18 -252 q 73 -260 56 -260 q 189 -208 148 -260 q 230 -60 230 -156 l 230 697 l 119 697 l 119 734 l 267 734 l 267 -60 q 216 -235 267 -174 q 73 -296 165 -296 m 214 963 l 214 1058 l 262 1058 l 262 963 l 214 963 z "},"ȷ":{"ha":382,"x_min":-3,"x_max":267,"o":"m 73 -296 q 35 -293 53 -296 q -3 -283 18 -290 l 6 -248 q 37 -256 18 -252 q 73 -260 56 -260 q 189 -208 148 -260 q 230 -60 230 -156 l 230 697 l 119 697 l 119 734 l 267 734 l 267 -60 q 216 -235 267 -174 q 73 -296 165 -296 z "},"ǰ":{"ha":382,"x_min":-3,"x_max":410,"o":"m 73 -296 q 35 -293 53 -296 q -3 -283 18 -290 l 6 -248 q 37 -256 18 -252 q 73 -260 56 -260 q 189 -208 148 -260 q 230 -60 230 -156 l 230 697 l 119 697 l 119 734 l 267 734 l 267 -60 q 216 -235 267 -174 q 73 -296 165 -296 m 410 1058 l 410 1046 l 262 907 l 218 907 l 68 1049 l 68 1058 l 109 1058 l 241 932 l 370 1058 l 410 1058 z "},"ĵ":{"ha":382,"x_min":-3,"x_max":410,"o":"m 73 -296 q 35 -293 53 -296 q -3 -283 18 -290 l 6 -248 q 37 -256 18 -252 q 73 -260 56 -260 q 189 -208 148 -260 q 230 -60 230 -156 l 230 697 l 119 697 l 119 734 l 267 734 l 267 -60 q 216 -235 267 -174 q 73 -296 165 -296 m 68 907 l 68 918 l 216 1058 l 260 1058 l 410 916 l 410 907 l 369 907 l 237 1033 l 108 907 l 68 907 z "},"k":{"ha":783,"x_min":42,"x_max":733,"o":"m 42 0 l 42 37 l 153 37 l 153 1021 l 42 1021 l 42 1058 l 189 1058 l 189 37 l 300 37 l 300 0 l 42 0 m 516 0 l 516 37 l 602 37 l 603 40 l 332 416 l 358 440 l 654 37 l 733 37 l 733 0 l 516 0 m 182 235 l 170 271 l 568 693 l 567 697 l 486 697 l 486 734 l 704 734 l 704 697 l 621 697 l 182 235 z "},"ķ":{"ha":783,"x_min":42,"x_max":733,"o":"m 42 0 l 42 37 l 153 37 l 153 1021 l 42 1021 l 42 1058 l 189 1058 l 189 37 l 300 37 l 300 0 l 42 0 m 516 0 l 516 37 l 602 37 l 603 40 l 332 416 l 358 440 l 654 37 l 733 37 l 733 0 l 516 0 m 182 235 l 170 271 l 568 693 l 567 697 l 486 697 l 486 734 l 704 734 l 704 697 l 621 697 l 182 235 m 366 -360 l 340 -338 q 372 -282 362 -309 q 382 -217 382 -255 l 382 -173 l 418 -173 l 418 -216 q 404 -297 418 -261 q 366 -360 390 -332 z "},"ĸ":{"ha":789,"x_min":42,"x_max":733,"o":"m 182 235 l 170 271 l 572 693 l 571 697 l 490 697 l 490 734 l 708 734 l 708 697 l 625 697 l 182 235 m 42 0 l 42 37 l 153 37 l 153 697 l 42 697 l 42 734 l 189 734 l 189 37 l 300 37 l 300 0 l 42 0 m 631 0 l 332 416 l 358 440 l 654 37 l 733 37 l 733 0 l 631 0 z "},"l":{"ha":394,"x_min":56,"x_max":313,"o":"m 56 0 l 56 37 l 166 37 l 166 1021 l 56 1021 l 56 1058 l 203 1058 l 203 37 l 313 37 l 313 0 l 56 0 z "},"ĺ":{"ha":394,"x_min":56,"x_max":314,"o":"m 56 0 l 56 37 l 166 37 l 166 1021 l 56 1021 l 56 1058 l 203 1058 l 203 37 l 313 37 l 313 0 l 56 0 m 147 1155 l 269 1312 l 313 1312 l 314 1308 l 179 1152 l 149 1152 l 147 1155 z "},"ľ":{"ha":394,"x_min":56,"x_max":361,"o":"m 56 0 l 56 37 l 166 37 l 166 1021 l 56 1021 l 56 1058 l 203 1058 l 203 37 l 313 37 l 313 0 l 56 0 m 308 871 l 283 892 q 314 949 304 922 q 324 1014 324 976 l 324 1058 l 361 1058 l 361 1015 q 347 934 361 970 q 308 871 332 899 z "},"ļ":{"ha":394,"x_min":56,"x_max":313,"o":"m 56 0 l 56 37 l 166 37 l 166 1021 l 56 1021 l 56 1058 l 203 1058 l 203 37 l 313 37 l 313 0 l 56 0 m 172 -360 l 146 -338 q 178 -282 168 -309 q 188 -217 188 -255 l 188 -173 l 224 -173 l 224 -216 q 210 -297 224 -261 q 172 -360 196 -332 z "},"ŀ":{"ha":394,"x_min":56,"x_max":358,"o":"m 56 0 l 56 37 l 166 37 l 166 1021 l 56 1021 l 56 1058 l 203 1058 l 203 37 l 313 37 l 313 0 l 56 0 m 300 431 l 300 519 l 358 519 l 358 431 l 300 431 z "},"ł":{"ha":394,"x_min":32,"x_max":344,"o":"m 56 0 l 56 37 l 166 37 l 166 1021 l 56 1021 l 56 1058 l 203 1058 l 203 37 l 313 37 l 313 0 l 56 0 m 32 464 l 32 504 l 344 631 l 344 591 l 32 464 z "},"m":{"ha":1343,"x_min":60,"x_max":1310,"o":"m 60 0 l 60 37 l 171 37 l 171 697 l 60 697 l 60 734 l 203 734 l 208 583 q 303 704 241 661 q 455 747 366 747 q 609 699 550 747 q 691 549 669 650 q 786 695 720 643 q 951 748 852 748 q 1136 669 1073 748 q 1199 419 1199 589 l 1199 37 l 1310 37 l 1310 1 l 1051 1 l 1051 37 l 1162 37 l 1162 420 q 1105 646 1162 580 q 953 711 1048 711 q 777 641 836 711 q 703 463 717 571 l 703 37 l 814 37 l 814 0 l 555 0 l 555 37 l 666 37 l 666 420 q 609 645 666 580 q 456 711 552 711 q 283 644 342 711 q 208 471 224 577 l 208 37 l 319 37 l 319 0 l 60 0 z "},"ḿ":{"ha":1343,"x_min":60,"x_max":1310,"o":"m 60 0 l 60 37 l 171 37 l 171 697 l 60 697 l 60 734 l 203 734 l 208 583 q 303 704 241 661 q 455 747 366 747 q 609 699 550 747 q 691 549 669 650 q 786 695 720 643 q 951 748 852 748 q 1136 669 1073 748 q 1199 419 1199 589 l 1199 37 l 1310 37 l 1310 1 l 1051 1 l 1051 37 l 1162 37 l 1162 420 q 1105 646 1162 580 q 953 711 1048 711 q 777 641 836 711 q 703 463 717 571 l 703 37 l 814 37 l 814 0 l 555 0 l 555 37 l 666 37 l 666 420 q 609 645 666 580 q 456 711 552 711 q 283 644 342 711 q 208 471 224 577 l 208 37 l 319 37 l 319 0 l 60 0 m 631 901 l 753 1058 l 796 1058 l 798 1055 l 663 898 l 632 898 l 631 901 z "},"n":{"ha":895,"x_min":60,"x_max":812,"o":"m 60 0 l 60 37 l 171 37 l 171 697 l 60 697 l 60 734 l 202 734 l 207 583 q 304 704 240 661 q 461 747 368 747 q 641 672 581 747 q 701 432 701 596 l 701 37 l 812 37 l 812 0 l 554 0 l 554 37 l 665 37 l 665 433 q 610 648 665 586 q 462 711 555 711 q 283 640 343 711 q 208 458 222 569 l 208 37 l 318 37 l 318 0 l 60 0 z "},"ń":{"ha":895,"x_min":60,"x_max":812,"o":"m 60 0 l 60 37 l 171 37 l 171 697 l 60 697 l 60 734 l 202 734 l 207 583 q 304 704 240 661 q 461 747 368 747 q 641 672 581 747 q 701 432 701 596 l 701 37 l 812 37 l 812 0 l 554 0 l 554 37 l 665 37 l 665 433 q 610 648 665 586 q 462 711 555 711 q 283 640 343 711 q 208 458 222 569 l 208 37 l 318 37 l 318 0 l 60 0 m 407 901 l 529 1058 l 572 1058 l 574 1055 l 439 898 l 408 898 l 407 901 z "},"ŉ":{"ha":895,"x_min":39,"x_max":812,"o":"m 60 0 l 60 37 l 171 37 l 171 697 l 60 697 l 60 734 l 202 734 l 207 583 q 304 704 240 661 q 461 747 368 747 q 641 672 581 747 q 701 432 701 596 l 701 37 l 812 37 l 812 0 l 554 0 l 554 37 l 665 37 l 665 433 q 610 648 665 586 q 462 711 555 711 q 283 640 343 711 q 208 458 222 569 l 208 37 l 318 37 l 318 0 l 60 0 m 64 871 l 39 892 q 71 949 61 922 q 81 1014 81 976 l 81 1058 l 117 1058 l 117 1015 q 103 934 117 970 q 64 871 89 899 z "},"ň":{"ha":895,"x_min":60,"x_max":812,"o":"m 60 0 l 60 37 l 171 37 l 171 697 l 60 697 l 60 734 l 202 734 l 207 583 q 304 704 240 661 q 461 747 368 747 q 641 672 581 747 q 701 432 701 596 l 701 37 l 812 37 l 812 0 l 554 0 l 554 37 l 665 37 l 665 433 q 610 648 665 586 q 462 711 555 711 q 283 640 343 711 q 208 458 222 569 l 208 37 l 318 37 l 318 0 l 60 0 m 618 1058 l 618 1046 l 471 907 l 427 907 l 277 1049 l 277 1058 l 317 1058 l 450 932 l 578 1058 l 618 1058 z "},"ņ":{"ha":895,"x_min":60,"x_max":812,"o":"m 60 0 l 60 37 l 171 37 l 171 697 l 60 697 l 60 734 l 202 734 l 207 583 q 304 704 240 661 q 461 747 368 747 q 641 672 581 747 q 701 432 701 596 l 701 37 l 812 37 l 812 0 l 554 0 l 554 37 l 665 37 l 665 433 q 610 648 665 586 q 462 711 555 711 q 283 640 343 711 q 208 458 222 569 l 208 37 l 318 37 l 318 0 l 60 0 m 422 -360 l 397 -338 q 428 -282 418 -309 q 438 -217 438 -255 l 438 -173 l 475 -173 l 475 -216 q 460 -297 475 -261 q 422 -360 446 -332 z "},"ŋ":{"ha":831,"x_min":61,"x_max":703,"o":"m 510 -296 q 465 -293 486 -296 q 420 -283 444 -290 l 429 -248 q 466 -256 443 -252 q 510 -260 489 -260 q 626 -208 585 -260 q 667 -60 667 -155 l 667 433 q 612 648 667 586 q 464 711 558 711 q 285 641 346 711 q 208 461 224 571 l 208 37 l 319 37 l 319 0 l 61 0 l 61 37 l 172 37 l 172 697 l 61 697 l 61 734 l 204 734 l 208 582 q 305 704 241 661 q 463 747 369 747 q 643 672 583 747 q 703 432 703 596 l 703 -60 q 652 -235 703 -174 q 510 -296 601 -296 z "},"ñ":{"ha":895,"x_min":60,"x_max":812,"o":"m 60 0 l 60 37 l 171 37 l 171 697 l 60 697 l 60 734 l 202 734 l 207 583 q 304 704 240 661 q 461 747 368 747 q 641 672 581 747 q 701 432 701 596 l 701 37 l 812 37 l 812 0 l 554 0 l 554 37 l 665 37 l 665 433 q 610 648 665 586 q 462 711 555 711 q 283 640 343 711 q 208 458 222 569 l 208 37 l 318 37 l 318 0 l 60 0 m 267 930 l 231 930 q 246 995 231 968 q 287 1038 261 1023 q 342 1054 312 1054 q 419 1033 382 1054 q 490 990 456 1012 q 553 969 524 969 q 605 992 581 969 q 628 1058 628 1016 l 664 1058 q 649 993 664 1021 q 610 948 634 964 q 555 932 585 932 q 480 954 517 932 q 408 997 443 975 q 342 1018 374 1018 q 290 996 313 1018 q 267 930 267 973 z "},"o":{"ha":783,"x_min":71,"x_max":713,"o":"m 393 -14 q 224 33 297 -14 q 111 162 152 79 q 71 353 71 245 l 71 381 q 111 571 71 489 q 224 701 152 654 q 391 747 296 747 q 559 701 487 747 q 672 571 631 654 q 713 381 713 489 l 713 353 q 672 162 713 245 q 559 33 631 79 q 393 -14 487 -14 m 393 22 q 543 67 479 22 q 641 186 606 111 q 676 353 676 261 l 676 381 q 641 546 676 471 q 542 666 606 621 q 391 711 477 711 q 241 666 305 711 q 142 546 177 621 q 107 381 107 471 l 107 353 q 142 185 107 260 q 241 66 177 111 q 393 22 305 22 z "},"ó":{"ha":783,"x_min":71,"x_max":713,"o":"m 393 -14 q 224 33 297 -14 q 111 162 152 79 q 71 353 71 245 l 71 381 q 111 571 71 489 q 224 701 152 654 q 391 747 296 747 q 559 701 487 747 q 672 571 631 654 q 713 381 713 489 l 713 353 q 672 162 713 245 q 559 33 631 79 q 393 -14 487 -14 m 393 22 q 543 67 479 22 q 641 186 606 111 q 676 353 676 261 l 676 381 q 641 546 676 471 q 542 666 606 621 q 391 711 477 711 q 241 666 305 711 q 142 546 177 621 q 107 381 107 471 l 107 353 q 142 185 107 260 q 241 66 177 111 q 393 22 305 22 m 351 901 l 473 1058 l 517 1058 l 518 1055 l 383 898 l 353 898 l 351 901 z "},"ŏ":{"ha":783,"x_min":71,"x_max":713,"o":"m 393 -14 q 224 33 297 -14 q 111 162 152 79 q 71 353 71 245 l 71 381 q 111 571 71 489 q 224 701 152 654 q 391 747 296 747 q 559 701 487 747 q 672 571 631 654 q 713 381 713 489 l 713 353 q 672 162 713 245 q 559 33 631 79 q 393 -14 487 -14 m 393 22 q 543 67 479 22 q 641 186 606 111 q 676 353 676 261 l 676 381 q 641 546 676 471 q 542 666 606 621 q 391 711 477 711 q 241 666 305 711 q 142 546 177 621 q 107 381 107 471 l 107 353 q 142 185 107 260 q 241 66 177 111 q 393 22 305 22 m 393 894 q 255 939 305 894 q 206 1054 205 983 l 208 1058 l 243 1058 q 279 966 243 1001 q 393 930 315 930 q 505 966 467 930 q 542 1058 542 1002 l 577 1058 l 578 1054 q 529 939 578 983 q 393 894 479 894 z "},"ô":{"ha":783,"x_min":71,"x_max":713,"o":"m 393 -14 q 224 33 297 -14 q 111 162 152 79 q 71 353 71 245 l 71 381 q 111 571 71 489 q 224 701 152 654 q 391 747 296 747 q 559 701 487 747 q 672 571 631 654 q 713 381 713 489 l 713 353 q 672 162 713 245 q 559 33 631 79 q 393 -14 487 -14 m 393 22 q 543 67 479 22 q 641 186 606 111 q 676 353 676 261 l 676 381 q 641 546 676 471 q 542 666 606 621 q 391 711 477 711 q 241 666 305 711 q 142 546 177 621 q 107 381 107 471 l 107 353 q 142 185 107 260 q 241 66 177 111 q 393 22 305 22 m 221 907 l 221 918 l 369 1058 l 413 1058 l 563 916 l 563 907 l 522 907 l 390 1033 l 261 907 l 221 907 z "},"ố":{"ha":783,"x_min":71,"x_max":713,"o":"m 393 -14 q 224 33 297 -14 q 111 162 152 79 q 71 353 71 245 l 71 381 q 111 571 71 489 q 224 701 152 654 q 391 747 296 747 q 559 701 487 747 q 672 571 631 654 q 713 381 713 489 l 713 353 q 672 162 713 245 q 559 33 631 79 q 393 -14 487 -14 m 393 22 q 543 67 479 22 q 641 186 606 111 q 676 353 676 261 l 676 381 q 641 546 676 471 q 542 666 606 621 q 391 711 477 711 q 241 666 305 711 q 142 546 177 621 q 107 381 107 471 l 107 353 q 142 185 107 260 q 241 66 177 111 q 393 22 305 22 m 220 874 l 220 886 l 370 1012 l 414 1012 l 567 883 l 567 874 l 524 874 l 392 985 l 262 874 l 220 874 m 488 1019 l 583 1164 l 626 1164 l 627 1160 l 520 1015 l 490 1015 l 488 1019 z "},"ộ":{"ha":783,"x_min":71,"x_max":713,"o":"m 393 -14 q 224 33 297 -14 q 111 162 152 79 q 71 353 71 245 l 71 381 q 111 571 71 489 q 224 701 152 654 q 391 747 296 747 q 559 701 487 747 q 672 571 631 654 q 713 381 713 489 l 713 353 q 672 162 713 245 q 559 33 631 79 q 393 -14 487 -14 m 393 22 q 543 67 479 22 q 641 186 606 111 q 676 353 676 261 l 676 381 q 641 546 676 471 q 542 666 606 621 q 391 711 477 711 q 241 666 305 711 q 142 546 177 621 q 107 381 107 471 l 107 353 q 142 185 107 260 q 241 66 177 111 q 393 22 305 22 m 221 907 l 221 918 l 369 1058 l 413 1058 l 563 916 l 563 907 l 522 907 l 390 1033 l 261 907 l 221 907 m 368 -249 l 368 -154 l 416 -154 l 416 -249 l 368 -249 z "},"ồ":{"ha":783,"x_min":71,"x_max":713,"o":"m 393 -14 q 224 33 297 -14 q 111 162 152 79 q 71 353 71 245 l 71 381 q 111 571 71 489 q 224 701 152 654 q 391 747 296 747 q 559 701 487 747 q 672 571 631 654 q 713 381 713 489 l 713 353 q 672 162 713 245 q 559 33 631 79 q 393 -14 487 -14 m 393 22 q 543 67 479 22 q 641 186 606 111 q 676 353 676 261 l 676 381 q 641 546 676 471 q 542 666 606 621 q 391 711 477 711 q 241 666 305 711 q 142 546 177 621 q 107 381 107 471 l 107 353 q 142 185 107 260 q 241 66 177 111 q 393 22 305 22 m 564 874 l 522 874 l 392 985 l 260 874 l 217 874 l 217 883 l 370 1012 l 414 1012 l 564 886 l 564 874 m 296 1019 l 294 1015 l 264 1015 l 157 1160 l 158 1164 l 201 1164 l 296 1019 z "},"ổ":{"ha":783,"x_min":71,"x_max":713,"o":"m 393 -14 q 224 33 297 -14 q 111 162 152 79 q 71 353 71 245 l 71 381 q 111 571 71 489 q 224 701 152 654 q 391 747 296 747 q 559 701 487 747 q 672 571 631 654 q 713 381 713 489 l 713 353 q 672 162 713 245 q 559 33 631 79 q 393 -14 487 -14 m 393 22 q 543 67 479 22 q 641 186 606 111 q 676 353 676 261 l 676 381 q 641 546 676 471 q 542 666 606 621 q 391 711 477 711 q 241 666 305 711 q 142 546 177 621 q 107 381 107 471 l 107 353 q 142 185 107 260 q 241 66 177 111 q 393 22 305 22 m 220 874 l 220 886 l 370 1012 l 414 1012 l 567 883 l 567 874 l 524 874 l 392 985 l 262 874 l 220 874 m 517 977 l 517 1041 q 602 1058 576 1045 q 627 1095 627 1070 q 593 1141 627 1127 q 492 1155 558 1155 l 497 1188 q 624 1163 583 1188 q 665 1095 665 1138 q 634 1035 665 1055 q 550 1010 602 1014 l 550 977 l 517 977 z "},"ỗ":{"ha":783,"x_min":71,"x_max":713,"o":"m 393 -14 q 224 33 297 -14 q 111 162 152 79 q 71 353 71 245 l 71 381 q 111 571 71 489 q 224 701 152 654 q 391 747 296 747 q 559 701 487 747 q 672 571 631 654 q 713 381 713 489 l 713 353 q 672 162 713 245 q 559 33 631 79 q 393 -14 487 -14 m 393 22 q 543 67 479 22 q 641 186 606 111 q 676 353 676 261 l 676 381 q 641 546 676 471 q 542 666 606 621 q 391 711 477 711 q 241 666 305 711 q 142 546 177 621 q 107 381 107 471 l 107 353 q 142 185 107 260 q 241 66 177 111 q 393 22 305 22 m 253 1080 l 220 1081 q 233 1135 220 1112 q 269 1172 246 1158 q 317 1185 291 1185 q 376 1168 351 1185 q 426 1135 402 1152 q 475 1118 450 1118 q 519 1137 499 1118 q 538 1189 538 1156 l 572 1188 q 560 1134 573 1158 q 525 1096 547 1109 q 477 1082 503 1082 q 418 1099 444 1082 q 368 1133 392 1116 q 317 1149 344 1149 q 272 1132 292 1149 q 253 1080 253 1114 m 218 874 l 218 886 l 369 1012 l 413 1012 l 566 883 l 566 874 l 522 874 l 391 985 l 261 874 l 218 874 z "},"ö":{"ha":783,"x_min":71,"x_max":713,"o":"m 393 -14 q 224 33 297 -14 q 111 162 152 79 q 71 353 71 245 l 71 381 q 111 571 71 489 q 224 701 152 654 q 391 747 296 747 q 559 701 487 747 q 672 571 631 654 q 713 381 713 489 l 713 353 q 672 162 713 245 q 559 33 631 79 q 393 -14 487 -14 m 393 22 q 543 67 479 22 q 641 186 606 111 q 676 353 676 261 l 676 381 q 641 546 676 471 q 542 666 606 621 q 391 711 477 711 q 241 666 305 711 q 142 546 177 621 q 107 381 107 471 l 107 353 q 142 185 107 260 q 241 66 177 111 q 393 22 305 22 m 475 964 l 475 1058 l 524 1058 l 524 964 l 475 964 m 258 964 l 258 1058 l 308 1058 l 308 964 l 258 964 z "},"ọ":{"ha":783,"x_min":71,"x_max":713,"o":"m 393 -14 q 224 33 297 -14 q 111 162 152 79 q 71 353 71 245 l 71 381 q 111 571 71 489 q 224 701 152 654 q 391 747 296 747 q 559 701 487 747 q 672 571 631 654 q 713 381 713 489 l 713 353 q 672 162 713 245 q 559 33 631 79 q 393 -14 487 -14 m 393 22 q 543 67 479 22 q 641 186 606 111 q 676 353 676 261 l 676 381 q 641 546 676 471 q 542 666 606 621 q 391 711 477 711 q 241 666 305 711 q 142 546 177 621 q 107 381 107 471 l 107 353 q 142 185 107 260 q 241 66 177 111 q 393 22 305 22 m 368 -249 l 368 -154 l 416 -154 l 416 -249 l 368 -249 z "},"ò":{"ha":783,"x_min":71,"x_max":713,"o":"m 393 -14 q 224 33 297 -14 q 111 162 152 79 q 71 353 71 245 l 71 381 q 111 571 71 489 q 224 701 152 654 q 391 747 296 747 q 559 701 487 747 q 672 571 631 654 q 713 381 713 489 l 713 353 q 672 162 713 245 q 559 33 631 79 q 393 -14 487 -14 m 393 22 q 543 67 479 22 q 641 186 606 111 q 676 353 676 261 l 676 381 q 641 546 676 471 q 542 666 606 621 q 391 711 477 711 q 241 666 305 711 q 142 546 177 621 q 107 381 107 471 l 107 353 q 142 185 107 260 q 241 66 177 111 q 393 22 305 22 m 433 901 l 431 898 l 401 898 l 266 1055 l 267 1058 l 311 1058 l 433 901 z "},"ỏ":{"ha":783,"x_min":71,"x_max":713,"o":"m 393 -14 q 224 33 297 -14 q 111 162 152 79 q 71 353 71 245 l 71 381 q 111 571 71 489 q 224 701 152 654 q 391 747 296 747 q 559 701 487 747 q 672 571 631 654 q 713 381 713 489 l 713 353 q 672 162 713 245 q 559 33 631 79 q 393 -14 487 -14 m 393 22 q 543 67 479 22 q 641 186 606 111 q 676 353 676 261 l 676 381 q 641 546 676 471 q 542 666 606 621 q 391 711 477 711 q 241 666 305 711 q 142 546 177 621 q 107 381 107 471 l 107 353 q 142 185 107 260 q 241 66 177 111 q 393 22 305 22 m 338 876 l 338 943 q 427 963 402 949 q 452 1004 452 977 q 410 1057 452 1041 q 306 1072 368 1072 l 311 1105 q 442 1079 393 1105 q 490 1004 490 1052 q 459 939 490 962 q 370 913 428 916 l 370 876 l 338 876 z "},"ơ":{"ha":789,"x_min":71,"x_max":793,"o":"m 393 -14 q 224 33 297 -14 q 111 162 152 79 q 71 353 71 245 l 71 381 q 111 571 71 489 q 224 701 152 654 q 391 747 296 747 q 559 701 487 747 q 672 571 631 654 q 713 381 713 489 l 713 353 q 672 162 713 245 q 559 33 631 79 q 393 -14 487 -14 m 393 22 q 543 67 479 22 q 641 186 606 111 q 676 353 676 261 l 676 381 q 641 546 676 471 q 542 666 606 621 q 391 711 477 711 q 241 666 305 711 q 142 546 177 621 q 107 381 107 471 l 107 353 q 142 185 107 260 q 241 66 177 111 q 393 22 305 22 m 611 610 l 611 646 q 698 663 667 646 q 743 716 730 680 q 756 811 756 752 l 793 811 q 775 697 793 742 q 716 631 756 652 q 611 610 676 610 z "},"ớ":{"ha":789,"x_min":71,"x_max":793,"o":"m 393 -14 q 224 33 297 -14 q 111 162 152 79 q 71 353 71 245 l 71 381 q 111 571 71 489 q 224 701 152 654 q 391 747 296 747 q 559 701 487 747 q 672 571 631 654 q 713 381 713 489 l 713 353 q 672 162 713 245 q 559 33 631 79 q 393 -14 487 -14 m 393 22 q 543 67 479 22 q 641 186 606 111 q 676 353 676 261 l 676 381 q 641 546 676 471 q 542 666 606 621 q 391 711 477 711 q 241 666 305 711 q 142 546 177 621 q 107 381 107 471 l 107 353 q 142 185 107 260 q 241 66 177 111 q 393 22 305 22 m 611 610 l 611 646 q 698 663 667 646 q 743 716 730 680 q 756 811 756 752 l 793 811 q 775 697 793 742 q 716 631 756 652 q 611 610 676 610 m 351 901 l 473 1058 l 517 1058 l 518 1055 l 383 898 l 353 898 l 351 901 z "},"ợ":{"ha":789,"x_min":71,"x_max":793,"o":"m 393 -14 q 224 33 297 -14 q 111 162 152 79 q 71 353 71 245 l 71 381 q 111 571 71 489 q 224 701 152 654 q 391 747 296 747 q 559 701 487 747 q 672 571 631 654 q 713 381 713 489 l 713 353 q 672 162 713 245 q 559 33 631 79 q 393 -14 487 -14 m 393 22 q 543 67 479 22 q 641 186 606 111 q 676 353 676 261 l 676 381 q 641 546 676 471 q 542 666 606 621 q 391 711 477 711 q 241 666 305 711 q 142 546 177 621 q 107 381 107 471 l 107 353 q 142 185 107 260 q 241 66 177 111 q 393 22 305 22 m 611 610 l 611 646 q 698 663 667 646 q 743 716 730 680 q 756 811 756 752 l 793 811 q 775 697 793 742 q 716 631 756 652 q 611 610 676 610 m 368 -249 l 368 -154 l 416 -154 l 416 -249 l 368 -249 z "},"ờ":{"ha":789,"x_min":71,"x_max":793,"o":"m 393 -14 q 224 33 297 -14 q 111 162 152 79 q 71 353 71 245 l 71 381 q 111 571 71 489 q 224 701 152 654 q 391 747 296 747 q 559 701 487 747 q 672 571 631 654 q 713 381 713 489 l 713 353 q 672 162 713 245 q 559 33 631 79 q 393 -14 487 -14 m 393 22 q 543 67 479 22 q 641 186 606 111 q 676 353 676 261 l 676 381 q 641 546 676 471 q 542 666 606 621 q 391 711 477 711 q 241 666 305 711 q 142 546 177 621 q 107 381 107 471 l 107 353 q 142 185 107 260 q 241 66 177 111 q 393 22 305 22 m 611 610 l 611 646 q 698 663 667 646 q 743 716 730 680 q 756 811 756 752 l 793 811 q 775 697 793 742 q 716 631 756 652 q 611 610 676 610 m 433 901 l 431 898 l 401 898 l 266 1055 l 267 1058 l 311 1058 l 433 901 z "},"ở":{"ha":789,"x_min":71,"x_max":793,"o":"m 393 -14 q 224 33 297 -14 q 111 162 152 79 q 71 353 71 245 l 71 381 q 111 571 71 489 q 224 701 152 654 q 391 747 296 747 q 559 701 487 747 q 672 571 631 654 q 713 381 713 489 l 713 353 q 672 162 713 245 q 559 33 631 79 q 393 -14 487 -14 m 393 22 q 543 67 479 22 q 641 186 606 111 q 676 353 676 261 l 676 381 q 641 546 676 471 q 542 666 606 621 q 391 711 477 711 q 241 666 305 711 q 142 546 177 621 q 107 381 107 471 l 107 353 q 142 185 107 260 q 241 66 177 111 q 393 22 305 22 m 611 610 l 611 646 q 698 663 667 646 q 743 716 730 680 q 756 811 756 752 l 793 811 q 775 697 793 742 q 716 631 756 652 q 611 610 676 610 m 338 876 l 338 943 q 427 963 402 949 q 452 1004 452 977 q 410 1057 452 1041 q 306 1072 368 1072 l 311 1105 q 442 1079 393 1105 q 490 1004 490 1052 q 459 939 490 962 q 370 913 428 916 l 370 876 l 338 876 z "},"ỡ":{"ha":789,"x_min":71,"x_max":793,"o":"m 393 -14 q 224 33 297 -14 q 111 162 152 79 q 71 353 71 245 l 71 381 q 111 571 71 489 q 224 701 152 654 q 391 747 296 747 q 559 701 487 747 q 672 571 631 654 q 713 381 713 489 l 713 353 q 672 162 713 245 q 559 33 631 79 q 393 -14 487 -14 m 393 22 q 543 67 479 22 q 641 186 606 111 q 676 353 676 261 l 676 381 q 641 546 676 471 q 542 666 606 621 q 391 711 477 711 q 241 666 305 711 q 142 546 177 621 q 107 381 107 471 l 107 353 q 142 185 107 260 q 241 66 177 111 q 393 22 305 22 m 611 610 l 611 646 q 698 663 667 646 q 743 716 730 680 q 756 811 756 752 l 793 811 q 775 697 793 742 q 716 631 756 652 q 611 610 676 610 m 211 930 l 175 930 q 190 995 175 968 q 231 1038 205 1023 q 287 1054 256 1054 q 363 1033 326 1054 q 434 990 400 1012 q 498 969 468 969 q 549 992 526 969 q 572 1058 572 1016 l 608 1058 q 593 993 608 1021 q 554 948 578 964 q 500 932 530 932 q 424 954 461 932 q 353 997 387 975 q 286 1018 318 1018 q 234 996 257 1018 q 211 930 211 973 z "},"ő":{"ha":783,"x_min":71,"x_max":713,"o":"m 393 -14 q 224 33 297 -14 q 111 162 152 79 q 71 353 71 245 l 71 381 q 111 571 71 489 q 224 701 152 654 q 391 747 296 747 q 559 701 487 747 q 672 571 631 654 q 713 381 713 489 l 713 353 q 672 162 713 245 q 559 33 631 79 q 393 -14 487 -14 m 393 22 q 543 67 479 22 q 641 186 606 111 q 676 353 676 261 l 676 381 q 641 546 676 471 q 542 666 606 621 q 391 711 477 711 q 241 666 305 711 q 142 546 177 621 q 107 381 107 471 l 107 353 q 142 185 107 260 q 241 66 177 111 q 393 22 305 22 m 415 898 l 414 902 l 559 1058 l 605 1058 l 606 1054 l 450 898 l 415 898 m 256 900 l 254 903 l 376 1058 l 419 1058 l 421 1054 l 288 900 l 256 900 z "},"ō":{"ha":783,"x_min":71,"x_max":713,"o":"m 393 -14 q 224 33 297 -14 q 111 162 152 79 q 71 353 71 245 l 71 381 q 111 571 71 489 q 224 701 152 654 q 391 747 296 747 q 559 701 487 747 q 672 571 631 654 q 713 381 713 489 l 713 353 q 672 162 713 245 q 559 33 631 79 q 393 -14 487 -14 m 393 22 q 543 67 479 22 q 641 186 606 111 q 676 353 676 261 l 676 381 q 641 546 676 471 q 542 666 606 621 q 391 711 477 711 q 241 666 305 711 q 142 546 177 621 q 107 381 107 471 l 107 353 q 142 185 107 260 q 241 66 177 111 q 393 22 305 22 m 179 963 l 179 999 l 604 999 l 604 963 l 179 963 z "},"ø":{"ha":783,"x_min":71,"x_max":713,"o":"m 393 -14 q 224 33 297 -14 q 111 162 152 79 q 71 353 71 245 l 71 381 q 111 571 71 489 q 224 701 152 654 q 391 747 296 747 q 559 701 487 747 q 672 571 631 654 q 713 381 713 489 l 713 353 q 672 162 713 245 q 559 33 631 79 q 393 -14 487 -14 m 393 22 q 543 67 479 22 q 641 186 606 111 q 676 353 676 261 l 676 381 q 641 546 676 471 q 542 666 606 621 q 391 711 477 711 q 241 666 305 711 q 142 546 177 621 q 107 381 107 471 l 107 353 q 142 185 107 260 q 241 66 177 111 q 393 22 305 22 m 125 -96 l 616 829 l 659 829 l 168 -96 l 125 -96 z "},"ǿ":{"ha":783,"x_min":71,"x_max":713,"o":"m 393 -14 q 224 33 297 -14 q 111 162 152 79 q 71 353 71 245 l 71 381 q 111 571 71 489 q 224 701 152 654 q 391 747 296 747 q 559 701 487 747 q 672 571 631 654 q 713 381 713 489 l 713 353 q 672 162 713 245 q 559 33 631 79 q 393 -14 487 -14 m 393 22 q 543 67 479 22 q 641 186 606 111 q 676 353 676 261 l 676 381 q 641 546 676 471 q 542 666 606 621 q 391 711 477 711 q 241 666 305 711 q 142 546 177 621 q 107 381 107 471 l 107 353 q 142 185 107 260 q 241 66 177 111 q 393 22 305 22 m 125 -96 l 616 829 l 659 829 l 168 -96 l 125 -96 m 351 901 l 473 1058 l 517 1058 l 518 1055 l 383 898 l 353 898 l 351 901 z "},"õ":{"ha":783,"x_min":71,"x_max":713,"o":"m 393 -14 q 224 33 297 -14 q 111 162 152 79 q 71 353 71 245 l 71 381 q 111 571 71 489 q 224 701 152 654 q 391 747 296 747 q 559 701 487 747 q 672 571 631 654 q 713 381 713 489 l 713 353 q 672 162 713 245 q 559 33 631 79 q 393 -14 487 -14 m 393 22 q 543 67 479 22 q 641 186 606 111 q 676 353 676 261 l 676 381 q 641 546 676 471 q 542 666 606 621 q 391 711 477 711 q 241 666 305 711 q 142 546 177 621 q 107 381 107 471 l 107 353 q 142 185 107 260 q 241 66 177 111 q 393 22 305 22 m 211 930 l 175 930 q 190 995 175 968 q 231 1038 205 1023 q 287 1054 256 1054 q 363 1033 326 1054 q 434 990 400 1012 q 498 969 468 969 q 549 992 526 969 q 572 1058 572 1016 l 608 1058 q 593 993 608 1021 q 554 948 578 964 q 500 932 530 932 q 424 954 461 932 q 353 997 387 975 q 286 1018 318 1018 q 234 996 257 1018 q 211 930 211 973 z "},"œ":{"ha":1352,"x_min":71,"x_max":1266,"o":"m 393 -14 q 224 33 297 -14 q 111 162 152 79 q 71 353 71 245 l 71 381 q 111 571 71 489 q 224 701 152 654 q 391 747 296 747 q 584 682 503 747 q 696 507 665 617 q 806 682 727 616 q 985 747 884 747 q 1132 710 1068 747 q 1231 606 1195 673 q 1266 448 1266 539 l 1266 391 l 716 391 l 716 339 q 752 179 716 250 q 849 65 788 107 q 987 22 911 22 q 1085 32 1042 22 q 1160 62 1127 42 q 1219 112 1193 82 l 1239 83 q 1134 11 1196 35 q 987 -14 1072 -14 q 863 16 922 -14 q 760 99 804 45 q 696 224 717 153 q 584 50 664 114 q 393 -14 503 -14 m 393 22 q 543 67 479 22 q 641 186 606 111 q 676 353 676 261 l 676 381 q 641 546 676 471 q 542 666 606 621 q 391 711 477 711 q 241 666 305 711 q 142 546 177 621 q 107 381 107 471 l 107 353 q 142 185 107 260 q 241 66 177 111 q 393 22 305 22 m 724 428 l 1230 428 l 1230 450 q 1199 584 1230 525 q 1113 677 1168 643 q 985 711 1058 711 q 856 674 913 711 q 763 574 798 637 q 722 432 728 511 l 724 428 z "},"p":{"ha":787,"x_min":44,"x_max":717,"o":"m 44 -282 l 44 -245 l 155 -245 l 155 697 l 44 697 l 44 734 l 183 734 l 191 602 q 290 709 227 670 q 440 747 353 747 q 588 701 526 747 q 684 569 650 654 q 717 368 717 484 l 717 353 q 684 158 717 240 q 589 31 651 75 q 441 -14 528 -14 q 291 20 355 -14 q 191 114 227 55 l 191 -245 l 302 -245 l 302 -282 l 44 -282 m 442 22 q 619 112 558 22 q 680 353 680 201 l 680 368 q 652 547 680 469 q 571 667 625 624 q 441 711 518 711 q 275 657 334 711 q 191 526 216 604 l 191 182 q 282 66 218 109 q 442 22 346 22 z "},"þ":{"ha":787,"x_min":44,"x_max":717,"o":"m 44 -282 l 44 -245 l 155 -245 l 155 1021 l 44 1021 l 44 1058 l 191 1058 l 191 603 q 291 709 228 670 q 440 747 354 747 q 588 701 526 747 q 684 569 650 654 q 717 368 717 484 l 717 353 q 684 158 717 240 q 589 31 651 75 q 441 -14 528 -14 q 291 20 355 -14 q 191 114 227 55 l 191 -245 l 302 -245 l 302 -282 l 44 -282 m 442 22 q 619 112 558 22 q 680 353 680 201 l 680 368 q 652 547 680 469 q 571 667 625 624 q 441 711 518 711 q 275 657 334 711 q 191 526 216 604 l 191 182 q 282 66 218 109 q 442 22 346 22 z "},"q":{"ha":770,"x_min":71,"x_max":743,"o":"m 486 -282 l 486 -245 l 596 -245 l 596 115 q 496 21 559 56 q 346 -14 432 -14 q 198 31 260 -14 q 103 158 136 75 q 71 353 71 240 l 71 368 q 103 569 71 484 q 198 701 136 654 q 347 747 260 747 q 496 708 433 747 q 596 601 559 669 l 600 734 l 633 734 l 633 -245 l 743 -245 l 743 -282 l 486 -282 m 345 22 q 506 67 442 22 q 596 186 569 111 l 596 521 q 511 655 570 599 q 347 711 451 711 q 216 667 269 711 q 136 547 163 624 q 109 368 109 469 l 109 353 q 169 112 109 201 q 345 22 229 22 z "},"r":{"ha":558,"x_min":60,"x_max":512,"o":"m 60 0 l 60 37 l 171 37 l 171 697 l 60 697 l 60 734 l 201 734 l 208 606 l 208 581 q 298 704 238 660 q 447 747 359 747 q 483 745 463 747 q 512 739 503 742 l 508 707 l 447 711 q 287 648 349 711 q 208 481 226 585 l 208 37 l 318 37 l 318 0 l 60 0 z "},"ŕ":{"ha":558,"x_min":60,"x_max":512,"o":"m 60 0 l 60 37 l 171 37 l 171 697 l 60 697 l 60 734 l 201 734 l 208 606 l 208 581 q 298 704 238 660 q 447 747 359 747 q 483 745 463 747 q 512 739 503 742 l 508 707 l 447 711 q 287 648 349 711 q 208 481 226 585 l 208 37 l 318 37 l 318 0 l 60 0 m 239 901 l 361 1058 l 404 1058 l 406 1055 l 271 898 l 240 898 l 239 901 z "},"ř":{"ha":558,"x_min":60,"x_max":512,"o":"m 60 0 l 60 37 l 171 37 l 171 697 l 60 697 l 60 734 l 201 734 l 208 606 l 208 581 q 298 704 238 660 q 447 747 359 747 q 483 745 463 747 q 512 739 503 742 l 508 707 l 447 711 q 287 648 349 711 q 208 481 226 585 l 208 37 l 318 37 l 318 0 l 60 0 m 450 1058 l 450 1046 l 302 907 l 258 907 l 109 1049 l 109 1058 l 149 1058 l 281 932 l 410 1058 l 450 1058 z "},"ŗ":{"ha":558,"x_min":60,"x_max":512,"o":"m 60 0 l 60 37 l 171 37 l 171 697 l 60 697 l 60 734 l 201 734 l 208 606 l 208 581 q 298 704 238 660 q 447 747 359 747 q 483 745 463 747 q 512 739 503 742 l 508 707 l 447 711 q 287 648 349 711 q 208 481 226 585 l 208 37 l 318 37 l 318 0 l 60 0 m 163 -360 l 138 -338 q 169 -282 159 -309 q 179 -217 179 -255 l 179 -173 l 216 -173 l 216 -216 q 201 -297 216 -261 q 163 -360 187 -332 z "},"s":{"ha":684,"x_min":70,"x_max":588,"o":"m 330 -14 q 183 12 250 -14 q 70 83 115 37 l 70 214 l 106 214 l 106 103 q 205 41 146 60 q 330 22 264 22 q 492 70 432 22 q 551 180 551 117 q 502 286 551 238 q 328 361 452 334 q 143 432 198 388 q 87 560 87 476 q 116 655 87 613 q 198 723 144 698 q 324 747 251 747 q 463 720 403 747 q 564 648 523 693 l 564 511 l 528 511 l 528 629 q 444 690 492 669 q 324 711 396 711 q 174 665 224 711 q 124 562 124 618 q 141 492 124 522 q 203 439 157 463 q 338 396 250 416 q 525 318 462 369 q 588 179 588 267 q 517 39 588 93 q 330 -14 447 -14 z "},"ś":{"ha":684,"x_min":70,"x_max":588,"o":"m 330 -14 q 183 12 250 -14 q 70 83 115 37 l 70 214 l 106 214 l 106 103 q 205 41 146 60 q 330 22 264 22 q 492 70 432 22 q 551 180 551 117 q 502 286 551 238 q 328 361 452 334 q 143 432 198 388 q 87 560 87 476 q 116 655 87 613 q 198 723 144 698 q 324 747 251 747 q 463 720 403 747 q 564 648 523 693 l 564 511 l 528 511 l 528 629 q 444 690 492 669 q 324 711 396 711 q 174 665 224 711 q 124 562 124 618 q 141 492 124 522 q 203 439 157 463 q 338 396 250 416 q 525 318 462 369 q 588 179 588 267 q 517 39 588 93 q 330 -14 447 -14 m 302 901 l 424 1058 l 467 1058 l 469 1055 l 334 898 l 303 898 l 302 901 z "},"š":{"ha":684,"x_min":70,"x_max":588,"o":"m 330 -14 q 183 12 250 -14 q 70 83 115 37 l 70 214 l 106 214 l 106 103 q 205 41 146 60 q 330 22 264 22 q 492 70 432 22 q 551 180 551 117 q 502 286 551 238 q 328 361 452 334 q 143 432 198 388 q 87 560 87 476 q 116 655 87 613 q 198 723 144 698 q 324 747 251 747 q 463 720 403 747 q 564 648 523 693 l 564 511 l 528 511 l 528 629 q 444 690 492 669 q 324 711 396 711 q 174 665 224 711 q 124 562 124 618 q 141 492 124 522 q 203 439 157 463 q 338 396 250 416 q 525 318 462 369 q 588 179 588 267 q 517 39 588 93 q 330 -14 447 -14 m 513 1058 l 513 1046 l 366 907 l 321 907 l 172 1049 l 172 1058 l 212 1058 l 345 932 l 473 1058 l 513 1058 z "},"ş":{"ha":684,"x_min":70,"x_max":588,"o":"m 330 -14 q 183 12 250 -14 q 70 83 115 37 l 70 214 l 106 214 l 106 103 q 205 41 146 60 q 330 22 264 22 q 492 70 432 22 q 551 180 551 117 q 502 286 551 238 q 328 361 452 334 q 143 432 198 388 q 87 560 87 476 q 116 655 87 613 q 198 723 144 698 q 324 747 251 747 q 463 720 403 747 q 564 648 523 693 l 564 511 l 528 511 l 528 629 q 444 690 492 669 q 324 711 396 711 q 174 665 224 711 q 124 562 124 618 q 141 492 124 522 q 203 439 157 463 q 338 396 250 416 q 525 318 462 369 q 588 179 588 267 q 517 39 588 93 q 330 -14 447 -14 m 262 -295 l 257 -262 q 379 -237 328 -262 q 431 -166 431 -213 q 400 -106 431 -123 q 290 -82 370 -89 l 307 0 l 342 0 l 335 -52 q 433 -82 397 -56 q 469 -166 469 -109 q 415 -260 469 -225 q 262 -295 361 -295 z "},"ŝ":{"ha":684,"x_min":70,"x_max":588,"o":"m 330 -14 q 183 12 250 -14 q 70 83 115 37 l 70 214 l 106 214 l 106 103 q 205 41 146 60 q 330 22 264 22 q 492 70 432 22 q 551 180 551 117 q 502 286 551 238 q 328 361 452 334 q 143 432 198 388 q 87 560 87 476 q 116 655 87 613 q 198 723 144 698 q 324 747 251 747 q 463 720 403 747 q 564 648 523 693 l 564 511 l 528 511 l 528 629 q 444 690 492 669 q 324 711 396 711 q 174 665 224 711 q 124 562 124 618 q 141 492 124 522 q 203 439 157 463 q 338 396 250 416 q 525 318 462 369 q 588 179 588 267 q 517 39 588 93 q 330 -14 447 -14 m 172 907 l 172 918 l 319 1058 l 363 1058 l 513 916 l 513 907 l 473 907 l 340 1033 l 212 907 l 172 907 z "},"ș":{"ha":684,"x_min":70,"x_max":588,"o":"m 330 -14 q 183 12 250 -14 q 70 83 115 37 l 70 214 l 106 214 l 106 103 q 205 41 146 60 q 330 22 264 22 q 492 70 432 22 q 551 180 551 117 q 502 286 551 238 q 328 361 452 334 q 143 432 198 388 q 87 560 87 476 q 116 655 87 613 q 198 723 144 698 q 324 747 251 747 q 463 720 403 747 q 564 648 523 693 l 564 511 l 528 511 l 528 629 q 444 690 492 669 q 324 711 396 711 q 174 665 224 711 q 124 562 124 618 q 141 492 124 522 q 203 439 157 463 q 338 396 250 416 q 525 318 462 369 q 588 179 588 267 q 517 39 588 93 q 330 -14 447 -14 m 316 -360 l 291 -338 q 322 -282 313 -309 q 332 -217 332 -255 l 332 -173 l 369 -173 l 369 -216 q 355 -297 369 -261 q 316 -360 340 -332 z "},"ß":{"ha":843,"x_min":37,"x_max":757,"o":"m 528 -14 q 446 -6 488 -14 q 369 16 404 2 q 316 46 334 30 l 333 79 q 416 39 361 56 q 522 22 471 22 q 665 70 609 22 q 720 194 720 119 q 694 283 720 245 q 628 355 667 322 q 550 422 589 388 q 485 496 511 456 q 458 591 458 537 q 471 663 458 625 q 499 740 483 701 q 527 817 515 779 q 539 890 539 855 q 496 994 539 952 q 376 1036 452 1036 q 237 976 290 1036 q 184 806 184 917 l 184 0 l 37 0 l 37 37 l 148 37 l 148 806 q 175 951 148 892 q 253 1041 202 1010 q 374 1072 303 1072 q 477 1050 432 1072 q 549 987 523 1027 q 576 890 576 946 q 564 809 576 849 q 535 731 551 769 q 507 658 519 694 q 495 590 495 623 q 522 508 495 544 q 587 439 548 471 q 665 372 626 407 q 730 295 704 338 q 757 194 757 252 q 724 82 757 128 q 638 11 690 35 q 528 -14 586 -14 z "},"ſ":{"ha":474,"x_min":39,"x_max":427,"o":"m 39 0 l 39 37 l 149 37 l 149 854 q 199 1016 149 959 q 340 1072 250 1072 q 386 1069 363 1072 q 427 1061 408 1067 l 422 1025 q 384 1033 401 1031 q 341 1036 367 1036 q 227 988 268 1036 q 186 854 186 940 l 186 37 l 296 37 l 296 0 l 39 0 z "},"t":{"ha":488,"x_min":44,"x_max":420,"o":"m 330 -14 q 218 34 256 -14 q 180 189 180 82 l 180 696 l 44 696 l 44 734 l 180 734 l 180 932 l 217 932 l 217 734 l 397 734 l 397 696 l 217 696 l 217 189 q 248 61 217 99 q 328 22 278 22 q 367 24 350 22 q 414 28 384 25 l 420 -5 q 379 -12 400 -10 q 330 -14 357 -14 z "},"ŧ":{"ha":488,"x_min":43,"x_max":420,"o":"m 330 -14 q 218 34 256 -14 q 180 189 180 82 l 180 696 l 44 696 l 44 734 l 180 734 l 180 932 l 217 932 l 217 734 l 397 734 l 397 696 l 217 696 l 217 189 q 248 61 217 99 q 328 22 278 22 q 367 24 350 22 q 414 28 384 25 l 420 -5 q 379 -12 400 -10 q 330 -14 357 -14 m 43 431 l 43 467 l 397 467 l 397 431 l 43 431 z "},"ť":{"ha":488,"x_min":44,"x_max":425,"o":"m 330 -14 q 218 34 256 -14 q 180 189 180 82 l 180 696 l 44 696 l 44 734 l 180 734 l 180 932 l 217 932 l 217 734 l 397 734 l 397 696 l 217 696 l 217 189 q 248 61 217 99 q 328 22 278 22 q 367 24 350 22 q 414 28 384 25 l 420 -5 q 379 -12 400 -10 q 330 -14 357 -14 m 372 871 l 347 892 q 378 949 368 922 q 388 1014 388 976 l 388 1058 l 425 1058 l 425 1015 q 410 934 425 970 q 372 871 396 899 z "},"ţ":{"ha":488,"x_min":44,"x_max":441,"o":"m 330 -14 q 218 34 256 -14 q 180 189 180 82 l 180 696 l 44 696 l 44 734 l 180 734 l 180 932 l 217 932 l 217 734 l 397 734 l 397 696 l 217 696 l 217 189 q 248 61 217 99 q 328 22 278 22 q 367 24 350 22 q 414 28 384 25 l 420 -5 q 379 -12 400 -10 q 330 -14 357 -14 m 234 -295 l 229 -262 q 352 -237 300 -262 q 404 -166 404 -213 q 373 -106 404 -123 q 262 -82 342 -89 l 279 0 l 315 0 l 307 -52 q 405 -82 369 -56 q 441 -166 441 -109 q 387 -260 441 -225 q 234 -295 334 -295 z "},"ț":{"ha":488,"x_min":44,"x_max":420,"o":"m 330 -14 q 218 34 256 -14 q 180 189 180 82 l 180 696 l 44 696 l 44 734 l 180 734 l 180 932 l 217 932 l 217 734 l 397 734 l 397 696 l 217 696 l 217 189 q 248 61 217 99 q 328 22 278 22 q 367 24 350 22 q 414 28 384 25 l 420 -5 q 379 -12 400 -10 q 330 -14 357 -14 m 288 -360 l 263 -338 q 295 -282 285 -309 q 304 -217 304 -255 l 304 -173 l 341 -173 l 341 -216 q 327 -297 341 -261 q 288 -360 313 -332 z "},"u":{"ha":815,"x_min":30,"x_max":755,"o":"m 361 -14 q 189 66 250 -14 q 127 315 127 146 l 127 697 l 30 697 l 30 734 l 127 734 l 163 734 l 163 314 q 216 94 163 165 q 360 22 269 22 q 533 79 475 22 q 608 228 591 135 l 608 697 l 497 697 l 497 734 l 608 734 l 645 734 l 645 37 l 755 37 l 755 0 l 614 0 l 609 132 q 514 24 574 62 q 361 -14 453 -14 z "},"ú":{"ha":815,"x_min":30,"x_max":755,"o":"m 361 -14 q 189 66 250 -14 q 127 315 127 146 l 127 697 l 30 697 l 30 734 l 127 734 l 163 734 l 163 314 q 216 94 163 165 q 360 22 269 22 q 533 79 475 22 q 608 228 591 135 l 608 697 l 497 697 l 497 734 l 608 734 l 645 734 l 645 37 l 755 37 l 755 0 l 614 0 l 609 132 q 514 24 574 62 q 361 -14 453 -14 m 367 901 l 489 1058 l 532 1058 l 534 1055 l 399 898 l 368 898 l 367 901 z "},"ŭ":{"ha":815,"x_min":30,"x_max":755,"o":"m 361 -14 q 189 66 250 -14 q 127 315 127 146 l 127 697 l 30 697 l 30 734 l 127 734 l 163 734 l 163 314 q 216 94 163 165 q 360 22 269 22 q 533 79 475 22 q 608 228 591 135 l 608 697 l 497 697 l 497 734 l 608 734 l 645 734 l 645 37 l 755 37 l 755 0 l 614 0 l 609 132 q 514 24 574 62 q 361 -14 453 -14 m 408 894 q 271 939 321 894 q 222 1054 221 983 l 223 1058 l 258 1058 q 294 966 258 1001 q 408 930 330 930 q 520 966 483 930 q 557 1058 557 1002 l 593 1058 l 594 1054 q 545 939 594 983 q 408 894 495 894 z "},"û":{"ha":815,"x_min":30,"x_max":755,"o":"m 361 -14 q 189 66 250 -14 q 127 315 127 146 l 127 697 l 30 697 l 30 734 l 127 734 l 163 734 l 163 314 q 216 94 163 165 q 360 22 269 22 q 533 79 475 22 q 608 228 591 135 l 608 697 l 497 697 l 497 734 l 608 734 l 645 734 l 645 37 l 755 37 l 755 0 l 614 0 l 609 132 q 514 24 574 62 q 361 -14 453 -14 m 237 907 l 237 918 l 385 1058 l 429 1058 l 578 916 l 578 907 l 538 907 l 406 1033 l 277 907 l 237 907 z "},"ü":{"ha":815,"x_min":30,"x_max":755,"o":"m 361 -14 q 189 66 250 -14 q 127 315 127 146 l 127 697 l 30 697 l 30 734 l 127 734 l 163 734 l 163 314 q 216 94 163 165 q 360 22 269 22 q 533 79 475 22 q 608 228 591 135 l 608 697 l 497 697 l 497 734 l 608 734 l 645 734 l 645 37 l 755 37 l 755 0 l 614 0 l 609 132 q 514 24 574 62 q 361 -14 453 -14 m 491 964 l 491 1058 l 540 1058 l 540 964 l 491 964 m 274 964 l 274 1058 l 323 1058 l 323 964 l 274 964 z "},"ụ":{"ha":815,"x_min":30,"x_max":755,"o":"m 361 -14 q 189 66 250 -14 q 127 315 127 146 l 127 697 l 30 697 l 30 734 l 127 734 l 163 734 l 163 314 q 216 94 163 165 q 360 22 269 22 q 533 79 475 22 q 608 228 591 135 l 608 697 l 497 697 l 497 734 l 608 734 l 645 734 l 645 37 l 755 37 l 755 0 l 614 0 l 609 132 q 514 24 574 62 q 361 -14 453 -14 m 383 -249 l 383 -154 l 432 -154 l 432 -249 l 383 -249 z "},"ù":{"ha":815,"x_min":30,"x_max":755,"o":"m 361 -14 q 189 66 250 -14 q 127 315 127 146 l 127 697 l 30 697 l 30 734 l 127 734 l 163 734 l 163 314 q 216 94 163 165 q 360 22 269 22 q 533 79 475 22 q 608 228 591 135 l 608 697 l 497 697 l 497 734 l 608 734 l 645 734 l 645 37 l 755 37 l 755 0 l 614 0 l 609 132 q 514 24 574 62 q 361 -14 453 -14 m 448 901 l 447 898 l 416 898 l 281 1055 l 283 1058 l 326 1058 l 448 901 z "},"ủ":{"ha":815,"x_min":30,"x_max":755,"o":"m 361 -14 q 189 66 250 -14 q 127 315 127 146 l 127 697 l 30 697 l 30 734 l 127 734 l 163 734 l 163 314 q 216 94 163 165 q 360 22 269 22 q 533 79 475 22 q 608 228 591 135 l 608 697 l 497 697 l 497 734 l 608 734 l 645 734 l 645 37 l 755 37 l 755 0 l 614 0 l 609 132 q 514 24 574 62 q 361 -14 453 -14 m 353 876 l 353 943 q 443 963 418 949 q 468 1004 468 977 q 426 1057 468 1041 q 321 1072 384 1072 l 326 1105 q 457 1079 409 1105 q 506 1004 506 1052 q 475 939 506 962 q 386 913 444 916 l 386 876 l 353 876 z "},"ư":{"ha":820,"x_min":30,"x_max":814,"o":"m 361 -14 q 189 66 250 -14 q 127 315 127 146 l 127 697 l 30 697 l 30 734 l 127 734 l 163 734 l 163 314 q 216 94 163 165 q 360 22 269 22 q 533 79 475 22 q 608 228 591 135 l 608 697 l 497 697 l 497 734 l 608 734 l 645 734 l 645 37 l 755 37 l 755 0 l 614 0 l 609 132 q 514 24 574 62 q 361 -14 453 -14 m 632 610 l 632 646 q 719 663 688 646 q 764 716 751 680 q 777 811 777 752 l 814 811 q 796 697 814 742 q 737 631 777 652 q 632 610 697 610 z "},"ứ":{"ha":820,"x_min":30,"x_max":814,"o":"m 361 -14 q 189 66 250 -14 q 127 315 127 146 l 127 697 l 30 697 l 30 734 l 127 734 l 163 734 l 163 314 q 216 94 163 165 q 360 22 269 22 q 533 79 475 22 q 608 228 591 135 l 608 697 l 497 697 l 497 734 l 608 734 l 645 734 l 645 37 l 755 37 l 755 0 l 614 0 l 609 132 q 514 24 574 62 q 361 -14 453 -14 m 632 610 l 632 646 q 719 663 688 646 q 764 716 751 680 q 777 811 777 752 l 814 811 q 796 697 814 742 q 737 631 777 652 q 632 610 697 610 m 367 901 l 489 1058 l 532 1058 l 534 1055 l 399 898 l 368 898 l 367 901 z "},"ự":{"ha":820,"x_min":30,"x_max":814,"o":"m 361 -14 q 189 66 250 -14 q 127 315 127 146 l 127 697 l 30 697 l 30 734 l 127 734 l 163 734 l 163 314 q 216 94 163 165 q 360 22 269 22 q 533 79 475 22 q 608 228 591 135 l 608 697 l 497 697 l 497 734 l 608 734 l 645 734 l 645 37 l 755 37 l 755 0 l 614 0 l 609 132 q 514 24 574 62 q 361 -14 453 -14 m 632 610 l 632 646 q 719 663 688 646 q 764 716 751 680 q 777 811 777 752 l 814 811 q 796 697 814 742 q 737 631 777 652 q 632 610 697 610 m 383 -249 l 383 -154 l 432 -154 l 432 -249 l 383 -249 z "},"ừ":{"ha":820,"x_min":30,"x_max":814,"o":"m 361 -14 q 189 66 250 -14 q 127 315 127 146 l 127 697 l 30 697 l 30 734 l 127 734 l 163 734 l 163 314 q 216 94 163 165 q 360 22 269 22 q 533 79 475 22 q 608 228 591 135 l 608 697 l 497 697 l 497 734 l 608 734 l 645 734 l 645 37 l 755 37 l 755 0 l 614 0 l 609 132 q 514 24 574 62 q 361 -14 453 -14 m 632 610 l 632 646 q 719 663 688 646 q 764 716 751 680 q 777 811 777 752 l 814 811 q 796 697 814 742 q 737 631 777 652 q 632 610 697 610 m 448 901 l 447 898 l 416 898 l 281 1055 l 283 1058 l 326 1058 l 448 901 z "},"ử":{"ha":820,"x_min":30,"x_max":814,"o":"m 361 -14 q 189 66 250 -14 q 127 315 127 146 l 127 697 l 30 697 l 30 734 l 127 734 l 163 734 l 163 314 q 216 94 163 165 q 360 22 269 22 q 533 79 475 22 q 608 228 591 135 l 608 697 l 497 697 l 497 734 l 608 734 l 645 734 l 645 37 l 755 37 l 755 0 l 614 0 l 609 132 q 514 24 574 62 q 361 -14 453 -14 m 632 610 l 632 646 q 719 663 688 646 q 764 716 751 680 q 777 811 777 752 l 814 811 q 796 697 814 742 q 737 631 777 652 q 632 610 697 610 m 353 876 l 353 943 q 443 963 418 949 q 468 1004 468 977 q 426 1057 468 1041 q 321 1072 384 1072 l 326 1105 q 457 1079 409 1105 q 506 1004 506 1052 q 475 939 506 962 q 386 913 444 916 l 386 876 l 353 876 z "},"ữ":{"ha":820,"x_min":30,"x_max":814,"o":"m 361 -14 q 189 66 250 -14 q 127 315 127 146 l 127 697 l 30 697 l 30 734 l 127 734 l 163 734 l 163 314 q 216 94 163 165 q 360 22 269 22 q 533 79 475 22 q 608 228 591 135 l 608 697 l 497 697 l 497 734 l 608 734 l 645 734 l 645 37 l 755 37 l 755 0 l 614 0 l 609 132 q 514 24 574 62 q 361 -14 453 -14 m 632 610 l 632 646 q 719 663 688 646 q 764 716 751 680 q 777 811 777 752 l 814 811 q 796 697 814 742 q 737 631 777 652 q 632 610 697 610 m 227 930 l 191 930 q 206 995 191 968 q 247 1038 221 1023 q 302 1054 272 1054 q 379 1033 342 1054 q 450 990 416 1012 q 513 969 484 969 q 565 992 541 969 q 588 1058 588 1016 l 624 1058 q 609 993 624 1021 q 570 948 594 964 q 515 932 545 932 q 440 954 477 932 q 368 997 403 975 q 302 1018 334 1018 q 250 996 273 1018 q 227 930 227 973 z "},"ű":{"ha":815,"x_min":30,"x_max":755,"o":"m 361 -14 q 189 66 250 -14 q 127 315 127 146 l 127 697 l 30 697 l 30 734 l 127 734 l 163 734 l 163 314 q 216 94 163 165 q 360 22 269 22 q 533 79 475 22 q 608 228 591 135 l 608 697 l 497 697 l 497 734 l 608 734 l 645 734 l 645 37 l 755 37 l 755 0 l 614 0 l 609 132 q 514 24 574 62 q 361 -14 453 -14 m 431 898 l 429 902 l 574 1058 l 621 1058 l 622 1054 l 465 898 l 431 898 m 271 900 l 270 903 l 391 1058 l 435 1058 l 437 1054 l 304 900 l 271 900 z "},"ū":{"ha":815,"x_min":30,"x_max":755,"o":"m 361 -14 q 189 66 250 -14 q 127 315 127 146 l 127 697 l 30 697 l 30 734 l 127 734 l 163 734 l 163 314 q 216 94 163 165 q 360 22 269 22 q 533 79 475 22 q 608 228 591 135 l 608 697 l 497 697 l 497 734 l 608 734 l 645 734 l 645 37 l 755 37 l 755 0 l 614 0 l 609 132 q 514 24 574 62 q 361 -14 453 -14 m 195 963 l 195 999 l 620 999 l 620 963 l 195 963 z "},"ų":{"ha":815,"x_min":30,"x_max":798,"o":"m 361 -14 q 189 66 250 -14 q 127 315 127 146 l 127 697 l 30 697 l 30 734 l 127 734 l 163 734 l 163 314 q 216 94 163 165 q 360 22 269 22 q 533 79 475 22 q 608 228 591 135 l 608 697 l 497 697 l 497 734 l 608 734 l 645 734 l 645 37 l 755 37 l 755 0 l 614 0 l 609 132 q 514 24 574 62 q 361 -14 453 -14 m 715 -287 q 633 -256 665 -287 q 601 -170 601 -225 q 628 -83 601 -125 q 720 14 655 -41 l 755 0 q 666 -90 695 -54 q 637 -170 637 -126 q 652 -222 637 -195 q 715 -250 667 -250 q 753 -243 736 -250 q 787 -224 770 -236 l 798 -257 q 761 -278 781 -269 q 715 -287 741 -287 z "},"ů":{"ha":815,"x_min":30,"x_max":755,"o":"m 361 -14 q 189 66 250 -14 q 127 315 127 146 l 127 697 l 30 697 l 30 734 l 127 734 l 163 734 l 163 314 q 216 94 163 165 q 360 22 269 22 q 533 79 475 22 q 608 228 591 135 l 608 697 l 497 697 l 497 734 l 608 734 l 645 734 l 645 37 l 755 37 l 755 0 l 614 0 l 609 132 q 514 24 574 62 q 361 -14 453 -14 m 408 822 q 325 855 359 822 q 292 937 292 888 q 325 1021 292 987 q 408 1055 359 1055 q 490 1021 456 1055 q 524 937 524 987 q 490 855 524 888 q 408 822 456 822 m 408 859 q 465 880 442 859 q 487 937 487 902 q 465 996 487 973 q 408 1019 442 1019 q 351 996 373 1019 q 328 937 328 973 q 351 880 328 902 q 408 859 373 859 z "},"ũ":{"ha":815,"x_min":30,"x_max":755,"o":"m 361 -14 q 189 66 250 -14 q 127 315 127 146 l 127 697 l 30 697 l 30 734 l 127 734 l 163 734 l 163 314 q 216 94 163 165 q 360 22 269 22 q 533 79 475 22 q 608 228 591 135 l 608 697 l 497 697 l 497 734 l 608 734 l 645 734 l 645 37 l 755 37 l 755 0 l 614 0 l 609 132 q 514 24 574 62 q 361 -14 453 -14 m 227 930 l 191 930 q 206 995 191 968 q 247 1038 221 1023 q 302 1054 272 1054 q 379 1033 342 1054 q 450 990 416 1012 q 513 969 484 969 q 565 992 541 969 q 588 1058 588 1016 l 624 1058 q 609 993 624 1021 q 570 948 594 964 q 515 932 545 932 q 440 954 477 932 q 368 997 403 975 q 302 1018 334 1018 q 250 996 273 1018 q 227 930 227 973 z "},"v":{"ha":790,"x_min":35,"x_max":772,"o":"m 386 0 l 115 697 l 35 697 l 35 734 l 251 734 l 251 697 l 155 697 l 367 155 l 401 56 l 406 56 l 441 155 l 652 697 l 556 697 l 556 734 l 772 734 l 772 697 l 692 697 l 421 0 l 386 0 z "},"w":{"ha":1212,"x_min":35,"x_max":1166,"o":"m 334 0 l 118 697 l 35 697 l 35 734 l 260 734 l 260 697 l 160 697 l 307 212 l 351 62 l 355 62 l 403 212 l 577 734 l 614 734 l 793 212 l 844 61 l 848 62 l 894 212 l 1040 697 l 940 697 l 940 734 l 1166 734 l 1166 697 l 1082 697 l 866 0 l 829 0 l 637 551 l 597 674 l 593 674 l 556 551 l 371 0 l 334 0 z "},"ẃ":{"ha":1212,"x_min":35,"x_max":1166,"o":"m 334 0 l 118 697 l 35 697 l 35 734 l 260 734 l 260 697 l 160 697 l 307 212 l 351 62 l 355 62 l 403 212 l 577 734 l 614 734 l 793 212 l 844 61 l 848 62 l 894 212 l 1040 697 l 940 697 l 940 734 l 1166 734 l 1166 697 l 1082 697 l 866 0 l 829 0 l 637 551 l 597 674 l 593 674 l 556 551 l 371 0 l 334 0 m 566 901 l 688 1058 l 731 1058 l 732 1055 l 597 898 l 567 898 l 566 901 z "},"ŵ":{"ha":1212,"x_min":35,"x_max":1166,"o":"m 334 0 l 118 697 l 35 697 l 35 734 l 260 734 l 260 697 l 160 697 l 307 212 l 351 62 l 355 62 l 403 212 l 577 734 l 614 734 l 793 212 l 844 61 l 848 62 l 894 212 l 1040 697 l 940 697 l 940 734 l 1166 734 l 1166 697 l 1082 697 l 866 0 l 829 0 l 637 551 l 597 674 l 593 674 l 556 551 l 371 0 l 334 0 m 435 907 l 435 918 l 583 1058 l 627 1058 l 777 916 l 777 907 l 736 907 l 604 1033 l 475 907 l 435 907 z "},"ẅ":{"ha":1212,"x_min":35,"x_max":1166,"o":"m 334 0 l 118 697 l 35 697 l 35 734 l 260 734 l 260 697 l 160 697 l 307 212 l 351 62 l 355 62 l 403 212 l 577 734 l 614 734 l 793 212 l 844 61 l 848 62 l 894 212 l 1040 697 l 940 697 l 940 734 l 1166 734 l 1166 697 l 1082 697 l 866 0 l 829 0 l 637 551 l 597 674 l 593 674 l 556 551 l 371 0 l 334 0 m 690 964 l 690 1058 l 739 1058 l 739 964 l 690 964 m 473 964 l 473 1058 l 522 1058 l 522 964 l 473 964 z "},"ẁ":{"ha":1212,"x_min":35,"x_max":1166,"o":"m 334 0 l 118 697 l 35 697 l 35 734 l 260 734 l 260 697 l 160 697 l 307 212 l 351 62 l 355 62 l 403 212 l 577 734 l 614 734 l 793 212 l 844 61 l 848 62 l 894 212 l 1040 697 l 940 697 l 940 734 l 1166 734 l 1166 697 l 1082 697 l 866 0 l 829 0 l 637 551 l 597 674 l 593 674 l 556 551 l 371 0 l 334 0 m 647 901 l 646 898 l 615 898 l 480 1055 l 481 1058 l 525 1058 l 647 901 z "},"x":{"ha":808,"x_min":56,"x_max":762,"o":"m 56 0 l 56 37 l 141 37 l 386 376 l 155 697 l 69 697 l 69 734 l 285 734 l 285 697 l 201 697 l 409 408 l 616 697 l 532 697 l 532 734 l 748 734 l 748 697 l 663 697 l 431 376 l 676 37 l 762 37 l 762 0 l 547 0 l 547 37 l 631 37 l 408 345 l 186 37 l 271 37 l 271 0 l 56 0 z "},"y":{"ha":804,"x_min":37,"x_max":780,"o":"m 192 -296 q 163 -294 179 -296 q 140 -289 148 -292 l 146 -254 q 169 -258 154 -256 q 192 -260 184 -260 q 289 -224 254 -260 q 351 -115 324 -187 l 395 4 l 117 697 l 37 697 l 37 734 l 254 734 l 254 697 l 157 697 l 385 133 l 412 60 l 416 60 l 659 697 l 563 697 l 563 734 l 780 734 l 780 697 l 700 697 l 388 -122 q 345 -213 368 -174 q 286 -274 321 -252 q 192 -296 250 -296 z "},"ý":{"ha":804,"x_min":37,"x_max":780,"o":"m 192 -296 q 163 -294 179 -296 q 140 -289 148 -292 l 146 -254 q 169 -258 154 -256 q 192 -260 184 -260 q 289 -224 254 -260 q 351 -115 324 -187 l 395 4 l 117 697 l 37 697 l 37 734 l 254 734 l 254 697 l 157 697 l 385 133 l 412 60 l 416 60 l 659 697 l 563 697 l 563 734 l 780 734 l 780 697 l 700 697 l 388 -122 q 345 -213 368 -174 q 286 -274 321 -252 q 192 -296 250 -296 m 361 901 l 484 1058 l 527 1058 l 528 1055 l 393 898 l 363 898 l 361 901 z "},"ŷ":{"ha":804,"x_min":37,"x_max":780,"o":"m 192 -296 q 163 -294 179 -296 q 140 -289 148 -292 l 146 -254 q 169 -258 154 -256 q 192 -260 184 -260 q 289 -224 254 -260 q 351 -115 324 -187 l 395 4 l 117 697 l 37 697 l 37 734 l 254 734 l 254 697 l 157 697 l 385 133 l 412 60 l 416 60 l 659 697 l 563 697 l 563 734 l 780 734 l 780 697 l 700 697 l 388 -122 q 345 -213 368 -174 q 286 -274 321 -252 q 192 -296 250 -296 m 231 907 l 231 918 l 379 1058 l 423 1058 l 573 916 l 573 907 l 532 907 l 400 1033 l 271 907 l 231 907 z "},"ÿ":{"ha":804,"x_min":37,"x_max":780,"o":"m 192 -296 q 163 -294 179 -296 q 140 -289 148 -292 l 146 -254 q 169 -258 154 -256 q 192 -260 184 -260 q 289 -224 254 -260 q 351 -115 324 -187 l 395 4 l 117 697 l 37 697 l 37 734 l 254 734 l 254 697 l 157 697 l 385 133 l 412 60 l 416 60 l 659 697 l 563 697 l 563 734 l 780 734 l 780 697 l 700 697 l 388 -122 q 345 -213 368 -174 q 286 -274 321 -252 q 192 -296 250 -296 m 486 964 l 486 1058 l 534 1058 l 534 964 l 486 964 m 269 964 l 269 1058 l 318 1058 l 318 964 l 269 964 z "},"ỵ":{"ha":804,"x_min":37,"x_max":780,"o":"m 192 -296 q 163 -294 179 -296 q 140 -289 148 -292 l 146 -254 q 169 -258 154 -256 q 192 -260 184 -260 q 289 -224 254 -260 q 351 -115 324 -187 l 395 4 l 117 697 l 37 697 l 37 734 l 254 734 l 254 697 l 157 697 l 385 133 l 412 60 l 416 60 l 659 697 l 563 697 l 563 734 l 780 734 l 780 697 l 700 697 l 388 -122 q 345 -213 368 -174 q 286 -274 321 -252 q 192 -296 250 -296 m 530 -249 l 530 -154 l 579 -154 l 579 -249 l 530 -249 z "},"ỳ":{"ha":804,"x_min":37,"x_max":780,"o":"m 192 -296 q 163 -294 179 -296 q 140 -289 148 -292 l 146 -254 q 169 -258 154 -256 q 192 -260 184 -260 q 289 -224 254 -260 q 351 -115 324 -187 l 395 4 l 117 697 l 37 697 l 37 734 l 254 734 l 254 697 l 157 697 l 385 133 l 412 60 l 416 60 l 659 697 l 563 697 l 563 734 l 780 734 l 780 697 l 700 697 l 388 -122 q 345 -213 368 -174 q 286 -274 321 -252 q 192 -296 250 -296 m 443 901 l 441 898 l 411 898 l 276 1055 l 277 1058 l 321 1058 l 443 901 z "},"ỷ":{"ha":804,"x_min":37,"x_max":780,"o":"m 192 -296 q 163 -294 179 -296 q 140 -289 148 -292 l 146 -254 q 169 -258 154 -256 q 192 -260 184 -260 q 289 -224 254 -260 q 351 -115 324 -187 l 395 4 l 117 697 l 37 697 l 37 734 l 254 734 l 254 697 l 157 697 l 385 133 l 412 60 l 416 60 l 659 697 l 563 697 l 563 734 l 780 734 l 780 697 l 700 697 l 388 -122 q 345 -213 368 -174 q 286 -274 321 -252 q 192 -296 250 -296 m 348 876 l 348 943 q 437 963 412 949 q 463 1004 463 977 q 420 1057 463 1041 q 316 1072 378 1072 l 321 1105 q 452 1079 404 1105 q 500 1004 500 1052 q 469 939 500 962 q 380 913 438 916 l 380 876 l 348 876 z "},"ỹ":{"ha":804,"x_min":37,"x_max":780,"o":"m 192 -296 q 163 -294 179 -296 q 140 -289 148 -292 l 146 -254 q 169 -258 154 -256 q 192 -260 184 -260 q 289 -224 254 -260 q 351 -115 324 -187 l 395 4 l 117 697 l 37 697 l 37 734 l 254 734 l 254 697 l 157 697 l 385 133 l 412 60 l 416 60 l 659 697 l 563 697 l 563 734 l 780 734 l 780 697 l 700 697 l 388 -122 q 345 -213 368 -174 q 286 -274 321 -252 q 192 -296 250 -296 m 221 930 l 185 930 q 200 995 185 968 q 241 1038 216 1023 q 297 1054 267 1054 q 373 1033 336 1054 q 444 990 410 1012 q 508 969 478 969 q 559 992 536 969 q 583 1058 583 1016 l 618 1058 q 604 993 618 1021 q 564 948 589 964 q 510 932 540 932 q 434 954 471 932 q 363 997 397 975 q 296 1018 328 1018 q 244 996 267 1018 q 221 930 221 973 z "},"z":{"ha":730,"x_min":81,"x_max":653,"o":"m 81 0 l 81 30 l 564 696 l 119 696 l 119 535 l 82 535 l 82 734 l 613 734 l 613 701 l 131 37 l 616 37 l 616 199 l 653 199 l 653 0 l 81 0 z "},"ź":{"ha":730,"x_min":81,"x_max":653,"o":"m 81 0 l 81 30 l 564 696 l 119 696 l 119 535 l 82 535 l 82 734 l 613 734 l 613 701 l 131 37 l 616 37 l 616 199 l 653 199 l 653 0 l 81 0 m 325 901 l 447 1058 l 490 1058 l 492 1055 l 357 898 l 326 898 l 325 901 z "},"ž":{"ha":730,"x_min":81,"x_max":653,"o":"m 81 0 l 81 30 l 564 696 l 119 696 l 119 535 l 82 535 l 82 734 l 613 734 l 613 701 l 131 37 l 616 37 l 616 199 l 653 199 l 653 0 l 81 0 m 536 1058 l 536 1046 l 389 907 l 345 907 l 195 1049 l 195 1058 l 235 1058 l 368 932 l 496 1058 l 536 1058 z "},"ż":{"ha":730,"x_min":81,"x_max":653,"o":"m 81 0 l 81 30 l 564 696 l 119 696 l 119 535 l 82 535 l 82 734 l 613 734 l 613 701 l 131 37 l 616 37 l 616 199 l 653 199 l 653 0 l 81 0 m 340 963 l 340 1058 l 389 1058 l 389 963 l 340 963 z "},"ﬁ":{"ha":802,"x_min":48,"x_max":747,"o":"m 65 0 l 65 37 l 176 37 l 176 696 l 48 696 l 48 734 l 176 734 l 176 841 q 234 1012 176 951 q 395 1072 292 1072 q 486 1063 440 1072 q 576 1034 532 1054 l 571 998 q 489 1027 526 1018 q 395 1036 451 1036 q 261 984 310 1036 q 212 841 212 932 l 212 734 l 637 734 l 637 37 l 747 37 l 747 0 l 490 0 l 490 37 l 600 37 l 600 696 l 212 696 l 212 37 l 323 37 l 323 0 l 65 0 z "}}}
